<svg id="Layer_1" data-name="Layer 1" xmlns="http://www.w3.org/2000/svg" viewBox="0 0 422.71 73.75"><ellipse cx="147.34" cy="43.27" rx="26.72" ry="30.47" style="fill:#41b6da"/><path d="M39.62,60.72c0-10.55,6.18-16.66,13.29-16.66a11.32,11.32,0,0,1,8.47,4.12L58,52.79a6.76,6.76,0,0,0-5-2.53c-3.87,0-6.91,3.84-6.91,10.21C46.15,67,48.84,70.8,53,70.8a7.12,7.12,0,0,0,5.51-3l3.36,4.51A11.09,11.09,0,0,1,52.72,77C45.58,77,39.62,71.42,39.62,60.72Z" transform="translate(-39.62 -18.49)" style="fill:#fff"/><path d="M64.32,64.33c0-8,5-12.68,10.44-12.68S85.2,56.29,85.2,64.33,80.19,77,74.76,77,64.32,72.36,64.32,64.33Zm14.37,0c0-4.18-1.3-6.9-3.93-6.9s-3.93,2.72-3.93,6.9,1.31,6.89,3.93,6.89S78.69,68.52,78.69,64.33Z" transform="translate(-39.62 -18.49)" style="fill:#fff"/><path d="M86.92,52.23H93.3l2.79,11.42c.55,2.4,1.12,4.9,1.67,7.43h.17c.55-2.53,1.11-5,1.66-7.43l2.79-11.42h6.08l-7,24.19H94.15Z" transform="translate(-39.62 -18.49)" style="fill:#fff"/><path d="M111.3,45A3.68,3.68,0,1,1,115,48.69,3.58,3.58,0,0,1,111.3,45Zm.5,7.28h6.35V76.42H111.8Z" transform="translate(-39.62 -18.49)" style="fill:#fff"/><path d="M122.62,64.33c0-7.91,4.37-12.68,8.89-12.68a6.71,6.71,0,0,1,5.25,2.52l-.23-3.66V42.26h6.35V76.42H137.7l-.46-2.4h-.15a8.13,8.13,0,0,1-5.71,3C126.06,77,122.62,72.23,122.62,64.33ZM136.53,69V59A4.88,4.88,0,0,0,133,57.51c-2,0-3.86,2.14-3.86,6.74,0,4.75,1.46,6.89,3.92,6.89A4,4,0,0,0,136.53,69Z" transform="translate(-39.62 -18.49)" style="fill:#fff"/><path d="M166,70.64h6V52.72h-5.14V48.28a17.51,17.51,0,0,0,6.81-2.82h4.68V70.64h5.14v5.78H166Z" transform="translate(-39.62 -18.49)" style="fill:#fff"/><path d="M187.64,73.28,191,69a5.92,5.92,0,0,0,4.26,2.23c3.22,0,5.7-2.75,5.7-11,0-7.68-2.14-10-4.45-10-1.88,0-3.46,1.49-3.46,5,0,3.27,1.53,4.51,3.61,4.51,1.43,0,3-.9,4.26-3.34l.29,4.69a7.57,7.57,0,0,1-5.78,3.71c-4.7,0-8.17-3-8.17-9.57s4.15-10.38,9.12-10.38c5.32,0,10.38,4.48,10.38,15.35,0,11.58-5.32,16.78-11.09,16.78A10.44,10.44,0,0,1,187.64,73.28Z" transform="translate(-39.62 -18.49)" style="fill:#fff"/><path d="M229.19,44.64h8c8.6,0,14.14,4.83,14.14,15.75s-5.54,16-13.78,16h-8.32Zm7.57,26c4.78,0,8-2.65,8-10.25s-3.23-10-8-10h-1.2V70.64Z" transform="translate(-39.62 -18.49)" style="fill:#fff"/><path d="M261.43,44.64h7.62l8.84,31.78h-6.74l-3.68-16.09c-.78-3.18-1.53-6.94-2.29-10.25H265c-.68,3.35-1.43,7.07-2.21,10.25l-3.7,16.09h-6.51Zm-3,18.63H272v5.58H258.42Z" transform="translate(-39.62 -18.49)" style="fill:#fff"/><path d="M279.13,72.41l3.65-4.93a10.61,10.61,0,0,0,6.92,3.32c2.66,0,4-1.18,4-3.07s-1.6-2.64-4.06-3.78l-3.66-1.76a9.18,9.18,0,0,1-5.68-8.66c0-5.27,4.16-9.47,10-9.47a12.28,12.28,0,0,1,9.06,4.16l-3.21,4.53a8.63,8.63,0,0,0-5.85-2.49c-2.19,0-3.59,1-3.59,2.85s1.84,2.66,4.3,3.76l3.59,1.64a8.71,8.71,0,0,1,5.58,8.65c0,5.27-3.89,9.84-10.6,9.84A14.55,14.55,0,0,1,279.13,72.41Z" transform="translate(-39.62 -18.49)" style="fill:#fff"/><path d="M305,44.64h6.36V56.89h9.72V44.64h6.37V76.42h-6.37V63.15h-9.72V76.42H305Z" transform="translate(-39.62 -18.49)" style="fill:#fff"/><path d="M334.09,44.64h9.64c5.84,0,10.38,1.82,10.38,7.88,0,2.86-1.41,5.89-3.71,6.86v.2c2.87.84,5.1,3.23,5.1,7.48,0,6.46-4.85,9.36-11,9.36H334.09Zm9.34,12.73c3.09,0,4.46-1.47,4.46-3.78s-1.45-3.4-4.41-3.4h-3v7.18ZM344,70.88c3.47,0,5.26-1.4,5.26-4.29s-1.76-3.92-5.26-3.92h-3.56v8.21Z" transform="translate(-39.62 -18.49)" style="fill:#fff"/><path d="M358.9,60.39c0-10.38,5.19-16.33,12.78-16.33s12.79,6,12.79,16.33S379.27,77,371.68,77,358.9,70.78,358.9,60.39Zm19.05,0c0-6.37-2.43-10.13-6.27-10.13s-6.26,3.76-6.26,10.13,2.42,10.41,6.26,10.41S378,66.76,378,60.39Z" transform="translate(-39.62 -18.49)" style="fill:#fff"/><path d="M394.58,44.64h7.62L411,76.42h-6.73l-3.69-16.09c-.78-3.18-1.53-6.94-2.28-10.25h-.18c-.68,3.35-1.43,7.07-2.21,10.25l-3.7,16.09h-6.51Zm-3,18.63h13.55v5.58H391.57Z" transform="translate(-39.62 -18.49)" style="fill:#fff"/><path d="M413.76,44.64H423.9c6,0,10.86,2.34,10.86,9.9,0,7.3-4.89,10.44-10.86,10.44h-3.78V76.42h-6.36Zm9.62,14.64c3.35,0,5.14-1.62,5.14-4.74s-1.79-4.19-5.14-4.19h-3.26v8.93Zm-.65,3.81,4.4-4.6,9,17.93H429Z" transform="translate(-39.62 -18.49)" style="fill:#fff"/><path d="M440.24,44.64h8c8.6,0,14.14,4.83,14.14,15.75s-5.54,16-13.79,16h-8.31Zm7.57,26c4.78,0,8-2.65,8-10.25s-3.22-10-8-10H446.6V70.64Z" transform="translate(-39.62 -18.49)" style="fill:#fff"/><ellipse cx="116.72" cy="16.15" rx="7.15" ry="8.23" style="fill:#41b6da"/><ellipse cx="130.96" cy="8.23" rx="4.79" ry="5.18" style="fill:#41b6da"/><ellipse cx="146.08" cy="5.49" rx="4.79" ry="5.49" style="fill:#41b6da"/><ellipse cx="160.32" cy="7.62" rx="4.79" ry="5.18" style="fill:#41b6da"/></svg>