<?xml version="1.0" encoding="utf-8"?>
<!-- Generator: Adobe Illustrator 24.1.1, SVG Export Plug-In . SVG Version: 6.00 Build 0)  -->
<svg version="1.1" id="Layer_1" xmlns="http://www.w3.org/2000/svg" xmlns:xlink="http://www.w3.org/1999/xlink" x="0px" y="0px"
	 viewBox="0 0 95.2 94.9" style="enable-background:new 0 0 95.2 94.9;" xml:space="preserve">
<g>
	<path d="M41.2,92.2c-0.2,0-0.3-0.1-0.4-0.1h-0.2h-0.1l0,0c0.4,0.1,0.6,0.1,1,0.2l0,0L41.2,92.2z M11.8,20C11.8,20,11.8,20,11.8,20
		L11.8,20L11.8,20z M68.4,20.8l-0.2-0.5l-0.3-0.4h-0.4l-0.4-0.2L66.7,20l-0.4,0.1L66,20.4l-0.4,0.1l-0.4,0.6l0.7,0.5L66,22
		c0.4,0.4,0.8,0.7,1.3,1.1l0.4,0.4H68l0.2,0.2l-0.4,0.1l0.1,0.4v0.2l-0.2,0.2l0.1,0.3l0.4,0.4l0.5,0.2l0.4,0.4l0.8,0.1l0.8-0.2v-0.2
		l-0.3-0.4l-0.2-0.6l-0.4-0.2V24h-0.4v-0.6l0.5,0.2l0.4-0.2L69.8,23l-0.4-0.3L69,22.9l0.1,0.4l-0.3-0.4l-0.1-0.2v-0.3l-0.1-0.3
		l-0.7-0.2l-0.4-0.5l-0.4-0.2L67,21l0.5,0.1l-0.2-0.4l0.4-0.1L68.4,20.8z M92.3,49.9v-0.6v-0.4v-0.5V48v-0.3v-0.4
		c0-0.3-0.1-0.5-0.2-0.8v0.4v-0.4c0-0.4,0-0.8,0-1.3L92,44.7v-0.6l-0.1-0.4l-0.1-0.8c-0.2-0.7-0.3-1.5-0.4-2.2l-0.2-0.6v0.4L91.1,41
		L91,40.9l-0.2-0.2l-0.1-0.9l-0.1-0.6l-0.4-0.8v-0.3L90,38c-0.2-0.4-0.3-0.6-0.4-1l-0.1-0.4l0-0.4l-0.2-0.4h-0.2l0.1,0.3v0.4
		L89,36.3v0.1l-0.1-0.1h-0.1v0.1h-0.2l-0.3,0.2l0.2,0.5l0,0.5L88,38l-0.2,0.9l-0.1,0.5l-0.3,0.4c0,0.1,0,0.3,0.1,0.4l-0.2,0.2
		L87,40.7h-0.2v0.5c0.1,0.5,0.2,1.1,0.3,1.6L87,43.6l0.1,1.3h-0.2l-0.2,0.6l0.1,0.3L86.4,46l-0.1,0.5l-0.2,0.2L85.8,46
		c-0.2-0.6-0.3-1.3-0.4-1.9l-0.1-0.3l-0.3-0.7c-0.1-0.4-0.2-1-0.4-1.4l-0.5-1c-0.2-0.8-0.4-1.6-0.6-2.4l-0.2-0.9l-0.2-0.7l-0.5,0.4
		L82.2,37l-0.8-0.9l0.2-0.3l-0.2-0.3l-0.7-0.6l-0.4-0.1l-0.3-0.5l-0.5-0.6l-0.9,0.1h-0.8L77,33.9c-0.5-0.1-1.2-0.3-1.7-0.4l-0.6-0.1
		l-0.4-0.9L74,32.4l-0.4,0.1l-0.5,0.4l-0.8-0.3l-0.9-0.5l-0.6-0.2l-0.5-0.6l-0.7-0.9l-0.2,0.1L69,30.2l-0.2,0.3h-0.4l0.2,0.3V31
		c0.2,0.4,0.4,0.7,0.6,1.1l0.4,0.2l0.2,0.3l0.4,0.3l0.1,0.3v0.3l0.1,0.3l0.2,0.2l0.1,0.3l0.1,0.2L70.7,34l0.1-0.4l0.2-0.1l0.2,0.2
		l0.1,0.4l-0.1,0.4l0.2,0.3h0.1l0.1,0.2l0.4-0.1c0.3,0,0.5,0,0.9,0.1l0.4-0.4l0.4-0.4l0.3-0.4l0.1-0.3l0.1,0.1v0.3L74.1,34l0.2,0.5
		l0.4,0.4l0.4,0.3l0.4,0.1l0.4,0.1c0.2,0.2,0.4,0.4,0.5,0.6l0.2,0.1c0,0.1,0,0.1,0,0.2c-0.1,0.2-0.1,0.4-0.2,0.6l-0.2,0.3L76,37.6
		h-0.3l-0.3-0.2v0.4l0.2,0.4v0.1c-0.1,0-0.2,0-0.3,0l-0.4,0.3V39l-0.1,0.2h-0.4l-0.3,0.2v0.3l-0.3,0.2l-0.4-0.1L73,40.1h-0.3
		l-0.4,0.3l0.1,0.2v0.3l-0.6,0.3l-1,0.4l-0.5,0.5H70L69.8,42l-0.4,0.2L69,42.4h-0.5h-0.2l-0.2,0.3L68,42.8L67.9,43h-0.4l-0.2,0.1
		h-0.4l-0.2-0.4v-0.4L66.6,42l-0.3-0.5l-0.2-0.3h0.2l-0.1-0.4l0.1-0.2l-0.1-0.4l-0.1-0.4l-0.2-0.3l-0.2-0.2L65.4,39l-0.5-0.6
		l-0.3-0.6l-0.5-0.5l-0.4-0.1l-0.5-0.8l-0.1-0.5v-0.5l-0.4-0.8l-0.4-0.2L62,34.2l-0.2-0.3v-0.2l-0.2-0.3l-0.1-0.2L61,32.7
		c-0.3-0.4-0.6-0.7-0.9-1.1h-0.4l0.1-0.4v-0.3l0.1-0.3v-0.1l-0.2,0.3l-0.1,0.6l-0.2,0.4l-0.2,0.1c-0.2-0.2-0.4-0.4-0.6-0.5l-0.6-1
		H58l0.4,0.7l0.4,0.7l0.6,1.1l0.3,0.4l0.3,0.4l0.7,0.8l-0.1,0.1l0.1,0.4l0.9,0.6l0.2,0.2l0.3,0.7l-0.2,0.1l0.2,0.7l0.3,0.9
		c0.3,0.2,0.4,0.3,0.7,0.4l0.4,0.9l0.3,0.7l0.4,0.4l1,0.7c0.4,0.4,0.7,0.7,1,1.2l0.4,0.3l0.2,0.3v0.3l-0.4,0.2
		c0.2,0.1,0.4,0.3,0.5,0.4l0.2,0.4l0.4,0.4h0.4l0.6-0.2l0.7-0.1l0.6-0.3l0.4-0.1l0.3-0.2c0.2,0,0.4,0,0.6,0l0.3-0.1l0.4-0.1l0.3-0.3
		h0.3v0.2L72.3,44v0.4l-0.1,0.3l-0.4,0.9c-0.2,0.6-0.4,1.3-0.7,1.9l-0.5,1.2c-0.4,0.6-0.9,1.3-1.4,1.9l-0.7,0.6l-1.1,0.7l-0.9,0.5
		l-0.8,0.9l-0.2,0.5L65.3,54l-0.5,0.3l-0.2,0.3l-0.2,0.1l-0.2,0.5L64,55.4l-0.2,0.4l-0.3,0.3L63,57v0.4l0.4,0.3v0.2l-0.3,0.5v0.2
		L63,59l0.2,0.4l0.2,0.7l0.3,0.2l0.1,0.4l-0.1,0.7V62l-0.1,1.1l0.1,0.4l-0.3,0.4L63,64.3l-0.4,0.4c-0.4,0.2-1,0.4-1.4,0.5l-0.9,0.7
		L60,66l-0.5,0.4l-0.4,0.2L59,67l0.3,0.5l0.1,0.4v0.2h0.1l-0.1,0.8l-0.3,0.4l0.1,0.1l-0.1,0.3l-0.3,0.2c-0.4,0.2-0.9,0.4-1.4,0.5
		L57,70.7V71h0.2l-0.1,0.4l-0.3,0.4l-0.2,0.5l-0.2,0.3c-0.2,0.1-0.4,0.3-0.6,0.4l-0.4,0.3l-0.2,0.4l-0.4,0.4
		c-0.4,0.4-0.8,0.6-1.3,0.9L53,75.3l-0.6,0.2H52L52,75.7l-0.3-0.3l-0.4,0.1l-0.5-0.1l-0.4,0.1H50l-0.6,0.1L49,75.7l-0.4,0.2h-0.3
		L48,75.7h-0.2l-0.3-0.3v0.1v-0.1V75l-0.2-0.4l0.2-0.1v-0.4c-0.4-0.6-0.8-1.3-1.2-1.9l-0.5-0.4l-0.3-0.5l-0.2-0.6L45,70.3l-0.3-1
		v-0.9L44.7,68l-0.2-0.2L44,67.3l-0.4-0.8l-0.2-0.4l-0.6-0.7l-0.1-0.5v-0.4l0.1-0.6l0.3-0.6V63l0.3-0.6l0.2-0.3l0.4-0.4l0.3-0.3
		l0.1-0.5v-0.5l-0.3-0.3c-0.2-0.3-0.3-0.5-0.4-0.9V59l0.3-0.3c-0.2-0.4-0.3-0.8-0.4-1.2l-0.4-0.4l0.1-0.2l-0.1-0.3L43,56.1l-0.5-0.7
		l-1.2-0.8L40.8,54l-0.4-0.8v-0.3l0.2-0.3c0.1-0.4,0.3-0.7,0.4-1.1l-0.3-0.1l0.3-0.9l0.1-0.6l-0.3-0.5l-0.4-0.2l-0.2-0.4L40,48.7
		v-0.2l-0.8,0.3L39,48.7l-0.3,0.2h-0.6l-0.4-0.4L37.4,48l-0.5-0.6c-0.4,0-0.9,0-1.3,0l-0.7,0.1l-0.6,0.2L33,48.1l-0.4,0.3l-0.7,0.2
		l-0.7-0.3h-0.4l-0.5-0.2h-0.4l-0.9,0.1c-0.4,0.2-0.8,0.4-1.3,0.4h-0.2h-0.2l-0.7-0.4l-0.6-0.4l-0.6-0.4l-0.4-0.5l-0.2-0.1l-0.5-0.3
		l-0.4-0.4l-0.1-0.3l-0.1-0.5l-0.3-0.4L23,44.6l-0.1-0.2l-0.2-0.2l-0.1-0.4l-0.1-0.2l-0.2-0.1l-0.4-0.4L21.6,43l-0.2-0.2v-0.1
		l-0.2-0.2c0-0.3-0.1-0.5-0.1-0.7l0.1-0.4v-0.6l-0.3-0.3l0.3-0.2l0.4-0.5l0.2-0.4V39l0.2-0.4l0.2-0.7v-0.7v-0.4l0.1-0.4l-0.1,0
		L21.9,36c0.1-0.2,0.1-0.4,0.2-0.6l0.3-0.2l0.3-0.4v-0.3L23,34l0.4-0.4l0.3-0.1l0.3-0.4l0.1-0.4l0.4-0.4l0.4-0.3l0.5-0.7l0.4-0.3
		l0.6-0.1l0.6-0.4l0.4-0.2l0.6-0.5V29l0.4-0.6l0.2-0.4l0.5-0.4c0.4-0.2,0.8-0.4,1.3-0.5l0.6-0.6l0.3-0.4h0.4l0.4,0.3h0.6l0.7,0.2
		h0.3l0.7-0.4l0.8-0.1l0.4-0.3l0.7-0.2c0.8-0.1,1.5-0.1,2.3-0.1l0.4,0.1l0.7-0.3h0.7l0.3,0.2h0.4l0.8-0.3l0.4,0.1l0.1,0.4l0.6-0.3
		v0.1l-0.4,0.3v0.3l0.3,0.2l-0.2,0.5l-0.4,0.4l0.1,0.4h0.4l0.2,0.3l0.3,0.1l0.8,0.3l0.3-0.1l0.6,0.1l1,0.3l0.4,0.6l0.6,0.2l1,0.3
		l0.8,0.4l0.4-0.2l0.2-0.5L49.3,29l0.2-0.4l0.5-0.3l0.4-0.1l1,0.2l0.3,0.3H52l0.3,0.1l0.7,0.1l0.2,0.3h0.9c0.5,0.2,1.2,0.3,1.7,0.5
		l0.5-0.2l0.3-0.2l0.6-0.1l0.5,0.1l0.2,0.4l0.2-0.2l0.5,0.2l0.5,0.1l0.3-0.2l0.2-0.2h-0.1l0.2-0.3l0.1-0.5l0.1-0.2l0,0l0.2-0.5
		l0.3-0.4l0,0l-0.2-0.7l0.1-0.3L60,26.2l0.2-0.3L59.8,26l-0.5-0.2l-0.4,0.4l-1,0.1l-0.5-0.4h-0.7l-0.1,0.3l-0.4,0.1l-0.7-0.4h-0.7
		l-0.4-0.6l-0.5-0.4l0.3-0.4l-0.7-0.3l0.7-0.5h1l0.2-0.4l1.3,0.1l0.7-0.4l0.7-0.2h1l1.2,0.4l0.9,0.3l0.7-0.1l0.5,0.1l0.6-0.3v-0.3
		l-0.4-0.7l-0.4-0.3h-0.4l-0.3-0.2l-0.9-0.5L59.9,21l-0.5-0.3l0.4-0.1l0.4-0.4l-0.4-0.3l0.8-0.2v-0.2l-0.5,0.1h-0.4l-0.4,0.2h-0.5
		L58.4,20l0.1,0.4l0.4,0.2h0.6l-0.1,0.2l-0.6,0.1l-0.7,0.4l-0.4-0.1l0.1-0.3l-0.7-0.2l0.1-0.1l0.5-0.2l-0.2-0.2l-1-0.2l-0.1-0.2
		l-0.5,0.1l-0.2,0.3l-0.4,0.4v0.2L55,20.9l-0.2-0.1l-0.1,0.7l-0.3,0.3l-0.2,0.4l0.3,0.4l0.1,0.3l0.5,0.2L55,23.2h-0.7L54,23.4
		l-0.6,0.3l-0.2-0.3v-0.1h-0.4l-0.4-0.2l-0.8,0.2l0.4,0.4l-0.4,0.1c-0.1,0-0.3,0-0.4,0L51,23.4v0.2l0.2,0.4l0.4,0.3l-0.3,0.1
		l0.4,0.3l0.4,0.2v0.4l-0.7-0.4l0.2,0.4l-0.5,0.1l0.3,0.5H51l-0.6-0.3l-0.3-0.5l-0.1-0.4c-0.2-0.2-0.4-0.4-0.6-0.6l-0.1-0.2h-0.1
		v-0.2l-0.4-0.2l-0.1-0.3l0.1-0.4l0.1-0.2l-0.1-0.1l-0.1-0.1l-0.2-0.2c-0.3-0.1-0.6-0.3-0.9-0.4l-0.4-0.2l-0.6-0.2L46.1,21h0.1
		l-0.3-0.3v-0.2l-0.4-0.1l-0.2,0.3l-0.2-0.2v-0.1l0,0l0.2-0.1l-0.5-0.1l-0.4,0.2v0.3l-0.1,0.2l0.2,0.3l0.6,0.3l0.3,0.5l0.7,0.4h0.5
		l0.2,0.2l-0.3,0.2c0.4,0.2,0.7,0.3,1.1,0.4l0.5,0.4l0.1,0.1l-0.1,0.2l-0.4-0.3l-0.5-0.1L47,23.9l0.4,0.3l-0.1,0.4H47L46.6,25h-0.3
		c0-0.1,0-0.1,0-0.2l0.2-0.4l0.2-0.1c-0.2-0.2-0.3-0.4-0.4-0.7L46,23.5l-0.2-0.3l-0.5-0.1L45,22.8h-0.4l-0.5-0.3l-0.5-0.4l-0.4-0.4
		l-0.1-0.6L42.7,21l-0.5-0.2l-0.3,0.1l-0.4,0.4h-0.3l-0.6,0.4l-1.3-0.2l-1,0.2l-0.2,0.4v0.3l-0.7,0.4l-0.9,0.1v0.2L36,23.5L35.6,24
		l0.2,0.4l-0.4,0.3l-0.3,0.4l-0.5,0.1l-0.5,0.4c-0.5,0-1,0-1.5,0l-0.4,0.2l-0.3,0.3L31.4,26l-0.2-0.2l-0.1-0.4h-0.5l-0.3,0.2
		l-0.3-0.1l-0.4,0.1l0.3-0.4l0.1-0.4l-0.3-0.1l-0.3-0.5l0.2-0.4l0.3-0.2l0.1-0.3l0.3-0.4l0.1-0.3v-0.2v-0.2l0.2-0.4l-0.2-0.3l1-0.4
		l0.7,0.1h0.8l0.6,0.1H34h1l0.4-0.4l0.4-1.2l-0.4-0.6L35,18.8l-0.8-0.3l0.1-0.4l0.8-0.1l1,0.2v-0.6l0.4,0.3l1.5-0.4l0.3-0.4
		c0.4-0.1,0.7-0.1,1.1-0.2l0.4-0.2l0.7-0.8l0.8-0.2h0.4l0.1-0.1h0.6l0.1,0.1l0.4-0.3l-0.1-0.2v-0.3l-0.2-0.3l0.1-0.5l0.1-0.1h0.1
		h0.5l0.2-0.1l0.4-0.1L44,14.1h-0.1l0.1,0.2l0.3,0.1l-0.2,0.2l-0.2-0.1l-0.4,0.4l0.1,0.3v0.2l0.5,0.1v0.2l0.5-0.1l0.4-0.2l0.6,0.2
		l0.3,0.2l0.4-0.2c0.5-0.1,1.1-0.3,1.6-0.4l0.5,0.1v0.1h0.5l0.1-0.2l0.7-0.2l-0.2-0.4v-0.4l0.3-0.3l0.4-0.2l0.4,0.4H51
		c0-0.2,0.1-0.4,0.1-0.6l-0.2,0.1l-0.1-0.2l0.1-0.2l0.6-0.1L52,13l0.5,0.1H53l0.5-0.3L53,12.5h-0.9l-0.7,0.3l-0.8,0.1l-0.4-0.3
		l-0.5-0.2l0.1-0.4l-0.3-0.4l0.2-0.3l0.4-0.3l1-0.3l0.3-0.1l-0.2-0.2l-0.6-0.2l-0.8,0.2l-0.4,0.2l0.1,0.3c-0.5,0.3-1.1,0.4-1.6,0.7
		l-0.4,0.6l0.4,0.4l0.4,0.3L48,13.4h-0.5l-0.3,0.8l-0.4,0.4l-0.6-0.1l-0.4,0.4h-0.6l-0.1-0.4l-0.4-0.6l-0.2-0.7l-0.3-0.3l-1.3,0.5
		l-0.7,0.1l-0.6-0.3l-0.1-0.5l0.2-1.1l0.5-0.3l1.3-0.4l1-0.4c0.7-0.4,1.3-0.9,2.1-1.3c0.6-0.3,1.3-0.4,1.9-0.7l1-0.1H50l0.5-0.3h0.7
		l0.6,0.1l1.3,0.3l-0.4,0.1l0.5,0.3l0.3-0.1l0.7,0.3l1.1,0.1L57,9.6l0.4,0.2l0.2,0.3l-0.3,0.2l-0.6,0.1c-0.6-0.1-1.3-0.3-2-0.4
		l-0.3,0l0.8,0.3l0.3,0.6c0.4,0.1,0.6,0.2,1,0.3V11l-0.4-0.2l0.3-0.2l1.2,0.3l0.3-0.1l-0.5-0.3l0.7-0.4h0.4l0.4,0.2V10l-0.4-0.3V9.4
		l-0.4-0.3l1.1,0.2l0.4,0.2h-0.4l0.2,0.2l0.4,0.2l0.5-0.1l-0.1-0.3c0.5-0.2,1-0.4,1.5-0.5h0.3l-0.2,0.4l0.4,0.1l0.1-0.1H63l0.3-0.2
		l0.6,0.3L64,9.2l-0.5-0.3V8.8l1,0.1c0.7,0.2,1.3,0.4,2.1,0.5h-0.2l-0.5-0.2l-0.1-0.1h-0.4l-0.1-0.2l-0.5-0.3l-0.2-0.2V8l-0.3-0.3
		l0.1-0.1L65,7.7l0.4,0.2l0.2,0.3l0.3,0.1l0.4,0.3l0.6,0.5l0.5,0.3l0.3,0.3l0.2,0.5l0.4,0.1l-0.1-0.2l0.2-0.1l-0.2-0.2V9.6l-0.4-0.3
		L67.5,9h-0.3l-0.4-0.2l-0.4-0.4l-0.6,0V8.1l-0.4-0.3h0.1L65.9,8l0.4,0.4l0.4,0.1l-0.4-0.3L66.4,8h0.4l0.6,0.2l-0.6-0.3l-0.6-0.4
		l0.3-0.1H67h0.3l-0.4-0.2L66.6,7h0.1V6.9h0.2l-0.2-0.1l0,0C56.2,2,44.5,1.3,33.8,4.7h-0.1l0.6-0.1v0.1h0.2v0.1l0.1-0.1l0.3-0.1
		l0.7-0.1H36l0.3-0.1c0.5,0,1.2,0,1.7,0c0.3,0.1,0.5,0.2,0.7,0.2l-0.5,0.1c-0.5,0-1.2,0-1.7,0l0,0H37l0.5,0.1L38,4.7v0.1L37.5,5
		c0.6-0.1,1.3-0.1,1.9-0.2L40,4.9V5l-1.3,0.2l0,0h-0.2h-0.8h0.5c-0.4,0.1-0.7,0.3-1.1,0.4l-0.4,0.3v0.2h-0.3L36,6.2l0.3,0.2L36,6.7
		h-0.4V7L35,7.2l0.2,0.2l-0.3,0.1h-0.4H34v0.3L33.8,8l-0.4-0.5l-0.3,0.1l0.3,0.1l0.1,0.2l-0.2,0.3l-0.6,0.1c0-0.1-0.1-0.3-0.2-0.4
		l-0.2,0.3l-0.5,0.2c0.4,0,0.7,0,1.1,0.1c-0.7,0.2-1.4,0.4-2.2,0.5l-1,0.1h-0.3L29,9.3l-0.9,0.4L27.2,10H27
		c-0.3,0.1-0.6,0.1-0.9,0.2l-0.6,0.2l-0.4,0.3L24.8,11L24,11.4l-0.3,0.4c-0.4,0.3-0.7,0.5-1.2,0.8h-0.4l0.1-0.4h-0.4l0.1-0.3
		l0.4-0.4l0.4-0.5l0.4-0.3l0.4-0.4l0.4-0.4l0.4-0.3l0.1-0.2L25.1,9l0.4-0.2c0.3-0.1,0.5-0.3,0.8-0.4c-0.2,0.1-0.4,0.1-0.5,0.2
		l-0.2,0.1V8.6L26,8.3l0.4-0.2h0.1l0.3,0.1l0.1-0.3L27,7.8h-0.2l0.1-0.1l0.7-0.4l0.2-0.1c0.3-0.2,0.6-0.4,0.9-0.5l0.1-0.1
		c-3.7,1.7-7.1,3.9-10.2,6.4c-0.3,0.3-0.5,0.5-0.7,0.8l-0.4,0.3l-0.2,0.3l-0.2,0.3l0.1,0.1L17.1,15l-0.4,0.4l0.1,0.1l-0.1,0.2
		l-0.5,0.5l-0.3,0.2l0,0l-0.3,0.2l-0.6,0.3l-0.5,0.4l-0.3,0.1l-0.1-0.1l0,0c-0.3,0.3-0.5,0.5-0.7,0.8l0,0l0,0
		c-0.4,0.4-0.8,0.9-1.2,1.3l-0.1,0.3l0.3-0.1l0.6-0.6l-0.3,0.4l-0.1,0.2L12.3,20l-0.5,0.4l-0.3,0.3l-0.2,0.2
		c-4.9,6.5-8,14.4-8.7,22.9V44l0.1,0.1l0.1-0.3v-0.4h0.2h0.2l-0.2,0.2V44L3,44.1l0.1,0.3V45h0.1c0.1,0.2,0.1,0.3,0.2,0.4v0.5v0.4
		l0,0c0,0.4,0,0.7,0.1,0.8l0.3,0.2v-0.2L4,47l0.3,0.3c0,0.1,0.1,0.2,0.2,0.3l0.3,0.7l0.1,0.4H5c0.1,0.6,0.2,1.2,0.3,1.8l0.1,0V51
		l-0.2,0.6l0.2,0.3L5.9,52l0.1,0.8l0.2-0.4l0.4,0.3l0.6,0.4l0.2,0.4v0.4l0.4-0.4l0.8,0.4h0.6l0.7,0.6l0.5,0.8l0.4,0.2h0.4l0.2,0.3
		c0.2,0.4,0.3,0.9,0.4,1.3v1.2l-0.1,0.6l-0.4,1l0.1,1l-0.2,0.6h-0.1V62l0.4,1.3c0.1,0.5,0.2,1,0.4,1.5v0.3l0.3,0.9v0.9l0.2,0.7
		l-0.2,0.3l0.1,0.4c-0.1,0-0.3,0-0.4,0l-0.4,0.1l-0.1,0.3l-0.3,0.2l-0.1,0.5l0.1,0.6l0.2,0.4l0.3,0.4l0.3,0.6l0.1,0.3v0.4l0.4,1.1
		l0.1,0.4v0.3l0.3,0.5l0.1,0.4l0.2,0.4v0.3l-0.4-0.1l-0.1,0.1l-0.4-0.3h-0.1l-0.4-0.4l0.2,0.3l0.5,0.4l0.3,0.4l0.3,0.3l0.2,0.3
		l0.4,0.7v0.2l-0.2,0.1l-0.1-0.1c0.2,0.3,0.4,0.4,0.6,0.7l0.3,0.3l0.1,0.2v0.1c3.8,4,8.3,7.2,13.2,9.5h0.1h0.1
		c3.7,1.7,7.6,3,11.7,3.6L39,91.7H39l0,0l0,0v-0.1v-0.1l0.4,0.2h0.1c0.1,0,0.1,0,0.2,0h0.2H40H40c0.1,0,0.2-0.1,0.2-0.2v-0.1l0,0
		l-0.1-0.1l-0.3-0.1l-0.1-0.1V91c0.1,0,0.2-0.1,0.3-0.1l0.1-0.1v-0.1l-0.1-0.1l0.1-0.1h0.3l0.2,0.1H41l-0.1-0.1v-0.1h0.3l0.2,0.1
		h0.1c0.2,0,0.4-0.1,0.5-0.1h0.3l0.2,0.1l0.2-0.1c0.3-0.1,0.4-0.1,0.7-0.1l0.2-0.1h0.3l0.2-0.1l0.1-0.1l0.2,0.1h0.1
		c0.1,0.1,0.3,0.1,0.4,0.2h0.3l0.1-0.1l0.3-0.1H46l0.1,0.1l0.2-0.1c0.3,0,0.5,0,0.9,0c0.2,0,0.4,0,0.5,0.1l0.1,0.1l0.2,0.1h0.3
		c0.3,0,0.5,0,0.8,0c0.2,0,0.4,0,0.5-0.1l0.3-0.1h0.3h0.3l0.3-0.1L51,90l0.2-0.1h0.3V90l0.2,0.1H52l0.1,0.1l0.1,0.1l0.3-0.1l0.2-0.1
		H53l0.4-0.1c0.4-0.1,1-0.2,1.4-0.3H55c0.2-0.1,0.4-0.1,0.6-0.2h0.2l0.3-0.1l0.2-0.1c0.4-0.1,0.8-0.2,1.2-0.2c0.1,0,0.3,0,0.4,0.1
		l0.1,0.1l-0.2,0.1l0.1,0.1v0.1h0.2v0.1v0.1h0.2l0.3-0.1l0.4-0.1l0.1,0.1c0.1,0,0.2,0,0.3,0.1h0.2c0.1,0,0.1,0,0.2,0l-0.4,0.3
		c-0.2,0.1-0.3,0.1-0.4,0.2c-0.2,0-0.4,0.1-0.6,0.2l-0.2,0.1h0.2l-0.3,0.1c-0.2,0.1-0.4,0.1-0.5,0.2L57.5,91h0.1h0.3
		c0.4-0.1,0.7-0.2,1.1-0.3c0.2-0.1,0.4-0.1,0.6-0.2h0.2H60c0.2,0,0.3,0,0.4-0.1c0.4-0.2,0.9-0.3,1.4-0.4c0.2-0.1,0.4-0.1,0.6-0.2
		h0.1c0.1,0,0.3,0,0.4-0.1H63l0.3-0.1l0.4-0.2c-0.1,0.1-0.3,0.2-0.4,0.2v0.1l0,0h0.1c14-5.3,25.3-18.6,28-34.7
		c0-0.5,0.1-1.1,0.1-1.7v-0.6c0-0.4,0-0.8,0-1.3L91.4,51v-0.6c-0.1-0.4-0.2-0.9-0.3-1.3v-0.4h0.1l0.3,0.2c0.1,0.5,0.1,1.1,0.2,1.6
		v0.9h0.1c0-0.2,0-0.3,0-0.4v-0.1v-0.4L92.3,49.9z M44.3,24.8l0.8,0.1c0.4,0,0.8-0.1,1.3-0.1L46,25.4l0.1,0.2l-0.2,0.3l-0.5-0.3
		L45,25.5l-1-0.4L44.3,24.8z M59.9,7c0.3-0.2,0.6-0.3,0.9-0.4l0.7,0l0.2-0.1H62l0.4,0.1v0.1C62,6.8,61.8,6.9,61.4,7L61,7.4v0.4
		l-0.1,0.4l0.4,0.3l0.9,0.3H62l-1-0.1l-0.3-0.2l-0.6-0.1l-0.3-0.2l0.3-0.1l-0.2-0.2l0.3-0.3h-0.3l0.4-0.3L59.9,7z M35.3,15.8
		l0.8,0.1l0.2-0.3L36,15.2l-0.6-0.1v-0.2l0.3-0.2l-0.1-0.2l-0.4,0.3l0.2-0.4L35.2,14l0.4-0.5l0.5-0.4h0.4H37l-0.6,0.7l0.5-0.1h0.5
		l-0.3,0.4l-0.6,0.4h0.5l0.3,0.6l0.4,0.1l0.2,0.6l0.1,0.2l0.6,0.1l-0.2,0.5L38,16.8l0.2,0.3l-0.6,0.3h-0.8h-1.1l-0.3-0.1L35,17.6
		l-0.5-0.1l-0.4,0.3l-0.3-0.1l1-0.5l0.5-0.1l-0.8-0.2l-0.1-0.2l0.6-0.2l-0.2-0.3L35.3,15.8z M34.5,14.9l0.4,0.4l-0.4,0.4l0,0
		L34.5,16l-0.6,0.4l-1.1,0.3l-0.7-0.1l0.6-0.5v-0.5c0.4-0.2,0.9-0.4,1.3-0.6L34.5,14.9L34.5,14.9z M30.4,10.1l0.4-0.3l0.5-0.1
		l0.3,0.3l0.7-0.2l0.4,0.1l0.8-0.2h0.6L33.9,10l0.2,0.3l-0.6,0.2c-0.5,0.1-1.2,0.3-1.7,0.4c-0.4-0.1-0.9-0.2-1.3-0.2l0.5-0.2
		l-0.6-0.1l0.7-0.1l0.1-0.1L30.4,10.1z M15.7,16.7c-0.3,0.3-0.6,0.5-0.9,0.8l0.3-0.2v0.1l-0.2,0.2v0.2l0.2-0.1v0.2l-0.4,0.4l0.2-0.1
		l-0.2,0.2l-0.2,0.4l-0.4,0.4H14v-0.1l0.4-0.4v-0.1L13.8,19h-0.1l0.4-0.3L14,18.6h-0.2h-0.4l0.1-0.2l0.3-0.2l0.1-0.2
		c0.4-0.4,0.9-0.8,1.3-1.2l0.4-0.3l0.3-0.2H16L15.7,16.7z M69.8,64.1L69.8,64.1l-0.2,0.2l-0.1-0.4l-0.2,0.2v0.5l-0.1,0.3L69,65.2
		l-0.2,0.5c-0.7,1.3-1.4,2.5-2.2,3.8l-0.4,0.7l-0.5,0.2l-0.6,0.3c-0.3-0.1-0.4-0.3-0.7-0.4l-0.1-0.4l0.1-0.5l-0.1-0.5l0.1-0.4
		l0.2-0.4l0.3-0.1l0.1-0.2l0.4-0.5l0.2-0.4l-0.1-0.6v-0.4l0.1-0.6l0.3-0.4l0.2-0.4h0.4l0.4-0.2l0.3-0.1h0.3l0.4-0.4l0.6-0.4l0.3-0.4
		v-0.3l0.3,0.1l0.4-0.4l0.1-0.4l0.3-0.3l0.2,0.3l0.1,0.3l0.1,0.4l-0.3,0.7l0.1,0.4L69.8,64.1z M87.8,47.9l-0.2,0.2l-0.3,0.2
		l-0.2-0.6l-0.1-1.1l0.2-1.3l0.3,0.4l0.2,0.5l0.2,0.8L87.8,47.9z M92.3,43.2L92.3,43.2l-0.1-0.6h-0.1c0.1,1.1,0.1,2.2,0.2,3.1h0.1
		c0,0.4,0.1,0.9,0.1,1.3l0.1,0.4l0.1,0.1C92.4,46.2,92.3,44.7,92.3,43.2z"/>
</g>
</svg>
