<?xml version="1.0" encoding="utf-8"?>
<!-- Generator: Adobe Illustrator 24.1.1, SVG Export Plug-In . SVG Version: 6.00 Build 0)  -->
<svg version="1.1" id="Layer_1" xmlns="http://www.w3.org/2000/svg" xmlns:xlink="http://www.w3.org/1999/xlink" x="0px" y="0px"
	 viewBox="0 0 95 95.5" style="enable-background:new 0 0 95 95.5;" xml:space="preserve">
<g>
	<path d="M24.2,51c0-0.2-0.4-0.4-0.9-0.4s-1.2-0.3-1.6-0.6c-0.4-0.3-1-0.3-1.2,0c-0.3,0.3-0.2,0.6,0.2,0.6c0.4,0,0.9,0.2,1.2,0.4
		c0.3,0.2,0.9,0.4,1.4,0.4S24.2,51.2,24.2,51z"/>
	<path d="M27.3,51.8c-0.3-0.2-0.6-0.6-0.7-0.8c0,0,0,0-0.6,0.4c-0.6,0.4-0.6,0.4-0.6,0.4c-0.7,0.3-1.7,1-2.4,1.6c0,0,0,0,1.2,0
		c0.7,0,0.7,0,0.7,0c1,0,2,0,2.3,0s0.5-0.2,0.5-0.5C27.8,52.5,27.6,52.1,27.3,51.8z"/>
	<path d="M42,9.6c0.3,0,0.5,0.1,0.2,0C42.1,9.6,42.1,9.6,42,9.6z"/>
	<path d="M53.9,32.5C53.9,32.5,53.9,32.5,53.9,32.5c-0.4,0.6-0.7,1.3-0.7,1.6s0.1,0.8,0.1,1c0.1,0.2,0.5,0.1,0.9-0.3
		c0.4-0.4,0.9-0.7,1-0.8c0.2-0.1,0.3-0.5,0.3-0.9c0,0,0,0,0-0.2s-0.4-0.8-0.5-1.1s-0.5-0.7-0.5-1.1s0-0.4,0-0.4
		c-0.2-0.5-0.7-0.9-1-0.9c0,0,0,0-0.1,0s-0.1,0.7-0.2,0.8c-0.1,0.2-0.1,0.2-0.1,0.2C53.4,31.1,53.7,31.9,53.9,32.5
		C53.9,32.4,53.9,32.4,53.9,32.5z"/>
	<path d="M51.5,33.9c0.3-0.1,0.3-0.1,0.3-0.1c0.3-0.2,0.6-0.7,0.8-1.2c0.1-0.5,0.2-1.1,0.2-1.5c0,0,0,0-0.4,0.2
		c-0.4,0.2-0.8,0.4-0.8,0.7C51.5,32.5,51.2,33.9,51.5,33.9z"/>
	<path d="M75.7,65.6c-0.9,1.2-1.7,2.2-1.9,2.4c-0.2,0.1-0.6,0.8-1,1.5c0,0,0,0-0.1,0.2C72.6,70,72.6,70,72.6,70
		c0.3,0.5,0.7,0.8,0.8,0.8c0.1,0,0.3,0,0.5,0.1c0,0,0,0,0.1-0.1c0.1-0.1,0.2-0.1,0.4-0.4c0.1-0.3,0.2-0.4,0.3-0.8
		c0.1-0.5,0.9-1.9,1-2.1s0.1-0.2,0.1-0.2c0.3-1,0.8-2.4,1-3.2c0,0,0,0-0.5,0.8C75.7,65.6,75.7,65.6,75.7,65.6z"/>
	<polygon points="43,24.4 43,24.4 43,24.4 	"/>
	<path d="M47.5,4.1C23.6,4.1,4.1,23.6,4.1,47.5c0,23.9,19.5,43.4,43.4,43.4c23.9,0,43.4-19.5,43.4-43.4C90.9,23.6,71.4,4.1,47.5,4.1
		z M61.5,41.7c0.2-0.3,0.6-0.5,0.8-0.5c0.3,0,0.9,0.1,1.4,0.3c0.5,0.2,0.9,0,0.9-0.4c0-0.4,0.1-0.7,0.4-0.7c0.2,0,0.8,0.3,1.3,0.7
		c0.5,0.4,1.5,0.7,2.3,0.7c0.8,0,1.3,0.5,1.1,1.1c0,0,0,0-0.2,0.4c-0.2,0.4-0.2,0.4-0.2,0.4c-0.9,0.2-2,0.4-2.6,0.4
		c-0.6,0-1.3,0-1.6-0.1c-0.3,0-0.8,0.1-1.2,0.4s-1,0.3-1.3,0.1c-0.4-0.2-1.4-0.9-2.2-1.6c0,0,0,0-0.1-0.4c-0.1-0.4-1.9-0.6-2.3-0.7
		S57.5,42,57.5,42c-1.1,0.1-2.3,0.3-2.6,0.6c0,0,0,0-1.1,0.2c-1.1,0.2,1.1-1.4,1.7-1.6s0.8-1.3,1.2-2.1c0.4-0.8,0.4-0.8,0.4-0.8
		c0.9,0.5,1.8,0.8,2,0.8c0.3,0,1,0.3,1.6,0.7c0,0,0,0,0.4,0.6c0.4,0.6-0.2,0.4-0.5,0.8c-0.2,0.4-0.2,0.4-0.2,0.4
		C60.7,41.9,61.3,42,61.5,41.7z M67.2,37.5c0,0,0,0,0.4-0.4c0.4-0.4,0.4-0.4,0.4-0.4c0.4,0.2,0.9,0.1,1-0.4s0.6-0.3,1,0.4
		c0,0,0,0,0.1,0.4c0.1,0.4,0.1,0.4,0.1,0.4c0.7,0.3,1.2,0.8,1,1c-0.2,0.2-0.8,0.4-1.3,0.4c-0.5,0-1.1,0-1.4,0s-1.5-0.2-1.7-0.4
		C66.6,38.1,66.8,37.7,67.2,37.5z M69.2,46.4c0,0,0.1,0,0.3,0c0.5,0,0.5,0,0.5,0c0.4,0,1,0.4,1.3,0.8c0,0,0,0,0.2,0.8
		c0.2,0.8,1.7,2.1,1.9,3.2c0.2,1.2,0.2,1.2,0.2,1.2c-0.1,0.5-0.7,0.3-1.3-0.4c0,0,0,0-0.4-0.6s-1.4-1.7-1.9-2
		C69.6,49,69.6,49,69.6,49C69.6,47.6,69.3,46.4,69.2,46.4C69.2,46.4,69.2,46.4,69.2,46.4z M69.8,14.8c1.4,0.9,2.6,1.9,3.9,3
		c-0.6,0.9-1.2,1.4-1.5,1.1c-0.3-0.3-1.1-1.8-1.7-3.4c0,0,0,0-0.4-0.4C69.7,14.9,69.7,14.9,69.8,14.8C69.7,14.9,69.8,14.8,69.8,14.8
		z M8,49.8c0.8,0.3,0.7,0.2,0.7,0.1c0,0,0,0,0.1-0.5c0.1-0.5,0.6,0.4,0.1-0.5S8.7,49,8.4,48.1S8.1,46.8,8,46.5c0,0,0,0,0,0
		c0,0,0,0,0.4,0c0.4,0,0.4,0,0.4,0c0.2,0.7,0.7,2,1.1,2.8c0,0,0,0,0.4,0.2c0.4,0.2,0.6,0.5,0.8,0.7c0,0,0,0,0.1,0.5s-0.6,0.6,0,1
		s-0.2-0.4,0.6,0.4c0.8,0.7,1.3,0.6,1.7,0.8c0.4,0.2,0.5-0.7,0.8,0c0.4,0.7-0.7,0,0.4,0.7c1.1,0.7,1.1,0.7,1.1,0.7
		c0.3,0.2,0.7,0,0.7-0.4c0,0,0,0,0.7,0.7c0.7,0.7,0.7,0.7,0.7,0.7c0.5,0.1,0.9,0.3,1,0.5c0,0,0,0,0.6,0.5c0.6,0.5,0-0.2,0.6,0.5
		c0.6,0.7,0.8,0.9,1.1,1.1c0.3,0.2,0.6,0.4,0.8,0.4s0.3,0.1,0.4,0.3c0.1,0.2,0.4,0.6,0.7,0.9c0.3,0.3,0.5,0.8,0.5,1
		c0,0.2-0.3,0-0.6-0.4c0,0,0,0,0,0.8s0.1,0.1,0,0.8c-0.1,0.7,0,0.9,0.2,1.2c0.2,0.3,0.4,0.7,0.4,0.9c0,0.2,0,0.6,0,0.8
		c0,0.2,0.3,0.8,0.7,1.3c0,0,0,0,0.4,0.2s-0.6-0.6,0.4,0.2c1,0.8,1.3,1.1,1.6,1.4s0.7,0.7,0.7,0.8c0,0.1,0.4,0,0.8-0.4
		c0,0,0,0,0.4,0.6c0.4,0.6,0.4,0.6,0.4,0.6c0.3,0.3,0.5,0.7,0.5,0.8c0,0.1,0.2-0.2,0.5-0.7c0,0,0,0,0.2,1c0.2,1,0.2,1,0.2,1
		c-0.1,0.3,0.1,0.7,0.5,1.1c0,0,0,0,0.1,0.4c0.1,0.4-0.2,0.7,0,1.1c0.2,0.4,0.2,0.4,0.2,0.4c0.2,0.9,0.6,2,0.8,2.5
		c0.3,0.5,0.4,1.3,0.2,1.7c0,0,0,0,0.2,0.4c0.2,0.4,0.2,0.4,0.2,0.4c0.2,0.4,0,1-0.5,1.4c0,0,0,0,0.8,0.8c0.8,0.8,0.4,0,0.8,0.8
		c0.5,0.8,0.5,0.8,0.5,0.8c0.2,0.5,0.7,1.2,1.1,1.7c0.1,0.1,0.1,0.1,0.2,0.2C20.2,80.3,9,66.4,8,49.8z M47.5,87.1
		c-3.2,0-6.4-0.4-9.4-1.1c0,0,0-0.1-0.1-0.1c-0.3-0.7-0.5-1.5-0.4-1.9c0,0,0,0-0.4-0.4c-0.4-0.4-0.4-0.5-0.5-0.7
		c-0.1-0.2-0.2-0.5-0.2-0.7s0.2-0.7,0.5-1c0,0,0,0-0.5-0.2c-0.5-0.2-0.5,0.5-0.5-0.2s0.3-0.9,0.6-1.2c0,0,0,0,0.2-0.4
		c0.2-0.4-0.1,0.5,0.2-0.4c0.4-0.8,0.4-0.8,0.4-0.8c0.1-0.6,0.4-1.2,0.7-1.4c0.2-0.2,0.4-0.5,0.4-0.7c0-0.2,0-0.5,0-0.8
		c0-0.2-0.1-0.6-0.1-0.8c0,0,0,0,0.1-0.5c0.1-0.5,0.1-0.5,0.1-0.5c-0.1-0.4,0-0.8,0.2-1c0,0,0,0,0.4-0.2s0.4-0.2,0.4-0.2
		c0.5-0.5,0.7-1,0.4-1.2c0,0,0,0,0.6-0.4c0.6-0.4,1-0.7,0.8-1.2c-0.1-0.5,0.1,0.7-0.1-0.5c-0.2-1.2-0.4-1.1-0.4-1.9
		c0-0.8-0.5-0.1,0-0.8c0.5-0.7,0.5-0.7,0.5-0.7c0.4-0.8,0.3-1.8-0.1-2.3c0,0,0,0-0.4-0.1c-0.4-0.1-0.7-0.4-1.3-0.6s-0.6-0.2-0.6-0.2
		c-0.9-0.3-2.1-0.8-2.5-1c0,0,0,0-0.4-0.1c-0.4-0.1-0.4-0.1-0.4-0.1c-0.7-0.9-1.3-1.7-1.3-1.7c0,0,0,0-1.1-0.4s-1.3-0.5-1.7-0.8
		c-0.4-0.4-0.4-0.4-0.4-0.4c-0.5-0.5-1-1-1.1-1.1c-0.1-0.2-0.3-0.1-0.5,0.1c0,0,0,0-1.1-0.1c-1.1-0.1-1.1-0.1-1.1-0.1
		c-0.5-0.5-1.2-0.8-1.6-0.8c0,0,0,0-0.5,0.2c-0.5,0.2-0.5,0.2-0.5,0.2c-0.5,0.3-1,0.7-1.3,0.7c-0.2,0.1-0.8,0.1-1.2,0.1
		c-0.4,0-1-0.2-1.3-0.4c-0.3-0.2-0.7-0.6-0.8-1c-0.2-0.4-0.4-0.9-0.4-1.3c0,0,0,0-0.4-0.2c-0.4-0.2-0.4-0.2-0.4-0.2
		c-0.5-0.4-0.9-1-0.7-1.4c0.1-0.4,0-1-0.2-1.3c0,0,0,0-0.5,0.2c-0.5,0.2-0.5,0.2-0.5,0.2c-0.4,0.5-0.9,0.9-1.1,1.1c0,0,0,0-0.4-0.1
		c-0.4-0.1-1-0.4-1.6-1c-0.6-0.6-0.7-1.2-0.7-1.6c0-0.4,0-0.4,0-0.4c0.4-0.9,1.2-1.9,1.7-2.3s1.3-0.7,1.6-0.7c0.3,0,0.9-0.1,1.3-0.3
		c0.4-0.2,1,0.1,1.3,0.5s0.9,1.1,1.2,1.5c0.3,0.4,1.1,0.3,1.9-0.2c0,0,0,0-0.3-0.4c-0.3-0.4-0.3-0.4-0.3-0.4
		c-0.3-0.4-0.2-1.2,0.1-1.7c0,0,0,0,0.2-0.4c0.2-0.4,0.4-0.5,0.9-1.2c0.5-0.7,0.7-1.1,1-1.4c0.2-0.4,0.2-0.4,0.2-0.4
		c0.5-0.9,1.2-1.8,1.4-2c0.3-0.2,0.7-0.6,0.9-0.9c0.2-0.3,0.6-0.7,0.7-0.8c0.2-0.2,0.5-0.3,0.8-0.3s0.9-0.2,1.3-0.4
		c0.5-0.2,1.1-0.4,1.4-0.4c0.3,0,0.3-0.3,0.1-0.6c-0.3-0.3-0.6-0.8-0.8-1c-0.2-0.2,0.2-0.6,0.8-0.8c0.6-0.3,1.9-0.9,2.8-1.4
		c0,0,0,0-0.1,0.4C33.8,34,33.8,34,33.8,34c-0.7,0.9-1.1,1.8-0.8,2c0.3,0.2,1,0.5,1.6,0.6c0,0,0,0,0.2-0.4C35,36,35,36,35,36
		c0.1-0.5,0-1.2-0.1-1.6c-0.1-0.4-0.2-1.3-0.2-1.9c0,0,0,0,0-0.6c0-0.6-0.2-2.2-0.6-1.9c-0.4,0.2-0.4,0.2-0.4,0.2
		c-0.2-0.7-0.4-1.7-0.4-2.2s-0.3-0.6-0.7-0.2c-0.4,0.3-1.1,0.5-1.6,0.5c0,0,0,0,0.1-0.4s0.1-0.4,0.1-0.4c0.3-0.2,0.3-0.6-0.1-0.9
		c-0.4-0.3-1.3-1-2.1-1.5c0,0,0,0-0.2,0.4c-0.2,0.4-0.2,0.4-0.2,0.4c-0.2,0.5-0.5,1.3-0.7,1.6c-0.2,0.4-0.3,0.8-0.3,1.1
		s-0.1,0.7-0.2,1c-0.1,0.3-0.6,0.9-1,1.3c-0.4,0.4-0.9,1-1.1,1.4c-0.2,0.4-0.5-0.1-0.6-1.1c0,0,0,0,0-0.4c0-0.4,0-0.4,0-0.4
		c-0.9-0.8-1.6-1.8-1.7-2.2s0-1.1,0.3-1.7c0,0,0,0,0-0.4c0-0.4,0.6-1.1,1.1-1.6c0.5-0.5,1.7-1.4,2-1.7c0.4-0.2,0.4-0.2,0.4-0.2
		c0.5-0.3,0.8,0,0.7,0.5c-0.1,0.6,0.2,1,0.7,0.9c0.4-0.1,0.7-0.4,0.7-0.7c-0.1-0.3,0.2-0.7,0.5-0.9c0.4-0.2,0.8-0.8,1-1.3
		s0.7-1.7,1.1-2.6c0,0,0,0,0.4,0.2c0.4,0.2,0.4,0.2,0.4,0.2c0.5,0.6,0.5,1.7,0.2,2.4c-0.4,0.7-0.9,1.3-1.2,1.3s-0.6,0.2-0.7,0.5
		c-0.1,0.3,0.1,0.6,0.4,0.7c0,0,0,0,0.5,0.4C32,25,32,25,32,25c0.5,0.5,1.2,0.7,1.6,0.4c0.4-0.3,0.7-0.8,0.7-1s0.2-0.5,0.5-0.5
		s0.7-0.4,0.9-0.8s0.3-1,0.2-1.3c-0.1-0.3-0.1-0.7-0.1-0.9c0,0,0,0,0.1-0.5s0-0.7-0.1-0.9c-0.1-0.2-0.2-0.7-0.2-1c0-0.3,0-0.8,0-1.1
		s-0.2-0.8-0.4-1.1c-0.2-0.4-0.9-0.7-1.5-0.7c-0.6,0-2-0.4-3-0.9c-1-0.5-2.1-0.9-2.3-0.9c-0.2,0-0.7-0.1-1.1-0.3
		c2.4-1.4,4.9-2.6,7.6-3.5c0.1,0.8,0.3,1.6,0.5,2c0.3,0.5,0.9,1,1.2,1.1c0,0,0,0,0.5-0.1c0.5-0.1,1.4-1.3,1.7-1.7
		c0.2-0.4,1.9-1.3,2.4-1.6c0.2-0.1,0.2-0.1,0.2-0.1c0.3,0,0.6,0,0.7,0c0,0,0,0,0.1,0c0.3,0.1,0.3,0.1,0.3,0.1
		c-0.2,0-0.6,0.3-0.9,0.8c0,0,0,0-0.8,0.6c-1,0.7-1,0.7-1,0.7c-0.3,0.7-0.3,1.7,0,2.2c0,0,0,0,0.4,0.6c0.4,0.6,0.4,0.6,0.4,0.6
		c0.1,0.3,0.1,0.7,0.1,0.8c0,0,0,0,0,0.4c0,0.4-0.1,1.4-0.1,1.8c0,0.4-0.7,2.3-0.7,2.6s-0.2,1.3-0.5,2.5c0,0,0,0-0.7,0.5
		c-0.7,0.5-0.1,0.8,0,1.4c0.1,0.6-0.8,0.5,0,1.2c0.8,0.7,0.5,0,0.8,0.7c0.4,0.7,0.1,0.2,0.8,0c0.7-0.2,0.7-0.2,0.7-0.2
		c1.1-1.3,2-2.4,1.9-2.4c0,0,0,0,0.1,0c0,0,0,0,0,0c0,0,0,0,0,0c0,0,0,0,0,0c0,0,0,0-0.1,0.1c0,0,0.1-0.1,0.1-0.1c0,0,0,0,0,0
		c0.2-0.1,0.2-0.1,0.2-0.1c-0.1,0-0.1,0.1-0.2,0.1c0.1-0.1,0.1-0.1,0,0c0,0-0.1,0-0.1,0.1c0,0,0,0,0,0c0,0,0,0,0,0
		c0,0,0.1-0.1,0.3-0.2c0,0,0,0,0.3-0.2c1.6-1.2,0.6-0.6,1.6-1.2s-0.2-0.2,1-0.6c1.2-0.4,1.2-0.4,1.2-0.4c0.8-0.4,1.9-1.4,2.4-2.2
		c0,0,0,0,0.1-0.4s0.4-0.4,0-0.8c-0.4-0.5-0.8,0.7-0.4-0.5c0.5-1.2,0.3-1.2,0.5-1.7c0.3-0.5-0.5,0.2,0-1.1c0.5-1.3,0.5-1.3,0.5-1.3
		c0.2-0.3,0-0.8-0.4-1.1c0,0,0,0,0.7-0.5c0.7-0.5,0.9-0.7,1.1-1.1c0.2-0.3,0.1-0.9-0.2-1.2c0,0,0,0,0.6-0.4C53,9.4,52.9,10,53.2,9
		c0.3-0.8,0.1-0.4,0.2-0.6c5.7,0.9,11.1,3,15.7,6c-0.7,0.5,0.2,1.4,0,1.9C69,16.8,69,16.8,69,16.8c0.1,0.4,1,1.3,1.9,2
		c0,0,0,0,0.5,0.2c0.3,0.1,0.3,0.1,0.3,0.1c0.4,0.5,0.7,0.9,0.7,0.9c0,0-0.1,0.1-0.1,0.2c0,0,0,0-0.8,0.4C70.6,21,70.6,21,70.6,21
		c-0.8,0.4-2.1,0.9-2.9,1.2c0,0,0,0-0.1-0.5c-0.1-0.5-0.1-0.5-0.1-0.5c-0.6-0.1-1.3-0.5-1.6-0.7c0,0,0,0-0.6-0.2
		C64.7,20,64.7,20,64.7,20c-0.4-0.3-1.2-0.8-1.8-1c0,0,0,0-0.5,0.5s-1.9,0.8-2.2,1.7c-0.2,0.8-0.6,1.7-0.7,2.2
		c-0.1,0.5-1.6,2.3-2,2.8c-0.5,0.5-1.1,1.4-0.7,1.9s1.3,1.7,1.7,1.4c0.4-0.2,0.7,0,1.2,0.4c0.5,0.3,1.5-0.7,2.2-2.4c0,0,0,0-0.1,0
		c-0.1,0-0.5-1.7,0-2.1c0.6-0.4,0.9-2.2,1.3-1.8c0.4,0.4,0.4,0.4,0.4,0.4c-0.5,1.4-0.4,2.8,0.2,3.1c0.6,0.2,1.7,0.1,2.5-0.3
		c0,0,0,0-0.6,0.7c-0.6,0.7-1.7,1.4-1.8,1.8c-0.1,0.4-0.1,0.4-0.1,0.4c-1,1.1-2.2,2-2.6,2c-0.4,0-1.4-0.2-2.1-0.5c0,0,0,0-0.8,0.5
		c-0.8,0.5-0.8,0.5-0.8,0.5c-0.9,0.9-1.7,2.1-1.7,2.5c0,0.5-0.5,0.5-1.2,0.1c0,0,0,0-0.2,0.7c-0.2,0.7-0.2,0.7-0.2,0.7
		c0.1,0.5,0.3,1.1,0.5,1.4c0.1,0.3,0.1,0.7,0,1c0,0,0,0-0.9,0.1c-0.9,0.1-1.1-0.7-1.4,0s-0.2,0.7-0.2,0.7c0.1,0.6,0.2,1.4,0.2,1.8
		c0,0.4,0.2-0.2,0.5-1.2c0,0,0,0-0.1,1.9c-0.1,1.9,0.8,0.3-0.1,1.9s0,0.4-1,1.6c-1,1.2-1,1.7-1.7,2.7c-0.7,1-0.9,2.1-1.4,2.4
		c-0.4,0.3,0.1,0.5,0,1c-0.1,0.5-0.1,0.5-0.1,0.5c0,0.8,0.5,2.2,1,3.2c0,0,0,0,0.2,0.4s0.4,0.7,0.8,1.3c0.5,0.6,1,0.4,1.6,0.2
		c0,0,0,0,0.4,0.4s1,0.4,1.7,0.4c0,0,0,0,0.4,0s0.6,0.2,1,0c0.4-0.2,0.4-0.2,0.4-0.2c0.5-0.2,1.3-0.2,1.7,0c0.4,0.2,1,0.5,1.3,0.6
		s0.5,1.2,0.4,2.4c0,0,0,0,0.4,0.5s1.2,1.7,1.6,1.7s0.4,0,0.4,0c0.3,0.3,0.6,1,0.6,1.6c0,0.6-0.1,1.4-0.3,1.8
		c-0.2,0.4-0.3,0.8-0.3,1S61,68,60.9,68.7c0,0,0,0,0.2,0.7c0.2,0.7,0.4,2.4,0.8,2.8c0.4,0.4,0.4,0.4,0.4,0.4
		c0.1,0.7,0.5,1.7,0.7,2.2c0.3,0.6,1.4,0.7,2.6,0.3c0,0,0,0,0.7-0.2c0.7-0.2,1.3-0.8,1.8-2c0.5-1.2,0.5-2.5,1-2.9
		c0.5-0.4,1.1-1,1.5-1.6c0.5-0.6,1.6-2,1.7-2.5c0.1-0.5,0.1-0.5,0.1-0.5c-0.2-1.6-0.5-3.4-0.6-3.8c0,0,0,0,0.5-0.5s2-2.2,2.3-2.6
		c0.2-0.5,1.8-2.4,1.9-2.8c0.1-0.4,0.4-2,0-1.8C76.2,54,76.2,54,76.2,54c-0.8,0.4-1.9,0-2.5-0.8c0,0,0,0,0.5,0.1
		c0.5,0.1,2.4-0.3,3.5-1c1.1-0.8,1.1-0.8,1.1-0.8c0.8-0.9,1.4-2.1,1.4-2.6c0-0.5-0.3-1.1-0.6-1.3c0,0,0,0-0.4-0.1
		c-0.4-0.1-0.4-0.1-0.4-0.1c-0.6-0.1-1.3-0.3-1.6-0.5c-0.3-0.2-1.6-1.1-2.9-2c0,0,0,0,0.8,0.1c0.8,0.1,0.8,0.1,0.8,0.1
		c1.8,0.7,4.1,1.4,5.3,1.4c0,0,0,0,0.4-0.1c0.4-0.1,2.4,1.3,2.8,1.6c0.4,0.3,1.3,1.7,1.8,2.4c0.5,0.7,0.5,0.7,0.5,0.7
		c0,0.1,0.1,0.1,0.1,0.2C85,71.3,68.1,87.1,47.5,87.1z"/>
</g>
</svg>
