<?xml version="1.0" encoding="utf-8"?>
<!-- Generator: Adobe Illustrator 24.1.1, SVG Export Plug-In . SVG Version: 6.00 Build 0)  -->
<svg version="1.1" id="Layer_1" xmlns="http://www.w3.org/2000/svg" xmlns:xlink="http://www.w3.org/1999/xlink" x="0px" y="0px"
	 viewBox="0 0 95.4 95.1" style="enable-background:new 0 0 95.4 95.1;" xml:space="preserve">
<path d="M70.2,11.2L70,11.1L69.7,11c-0.2-0.2-0.4-0.4-0.5-0.5c-0.4-0.3-0.7-0.5-1.1-0.7h-0.1H68l-0.4-0.3l-0.1-0.1
	C58.7,4.3,48.3,2.3,38.2,4c-9.1,1.6-17.6,6.3-23.9,13.1c-0.1,0.1-0.1,0.2-0.2,0.2l0.1-0.1l0.7-0.6h0.2v0.2l0.1-0.1v0.1l-0.1,0.1
	l0.3-0.2l0.2-0.2l0.3-0.3l0.3-0.4l0.5-0.5l0.2-0.1l0.2-0.1l0.1,0.1l0.2-0.1h0.2l-0.3,0.3L17,15.6l-0.3,0.2L16.6,16l-0.2,0.2l0.1-0.1
	L16,16.4l-0.3,0.3l-0.2,0.2l-0.1,0.3l-0.2,0.2l0.2,0.1l0.2-0.1l-0.1,0.4l-0.2,0.2l0.2-0.1c0.3,0,0.5,0,0.7,0V18l-0.1,0.2l0.1,0.2
	l0.3-0.2h0.4l0.5-0.5l0.4-0.4l0.4-0.3l0.4-0.1l-0.3,0.5l0.2,0.1c0.3-0.2,0.5-0.5,0.7-0.6H19l0.1-0.3l0.3-0.3h0.2l0.3,0.1l0.1,0.2
	l0.2,0.1l0.5-0.2l0.1-0.4L20.3,16h-0.5l-0.3-0.2l0.2-0.3l0.1-0.3l0.5-0.5l0.5-0.5l0.4-0.2l0.5-0.2l0.9-0.3h0.2l0.3-0.2l0.1-0.4
	l-0.4-0.1l-0.5,0.2l-0.4,0.3c-0.5,0.1-0.9,0.3-1.3,0.4l-1,0.8L19.2,15L19,15.4l-0.7,0.5H18c-0.5,0.4-1,0.8-1.4,1.2l-0.1-0.2L16.2,17
	l-0.1-0.2c0.7-0.7,1.3-1.4,2.1-2.2l-0.6,0.1h-0.2l0.3-0.5c0.6-0.5,1.2-1.1,1.9-1.4l0.4-0.2h0.5l0.6-0.2c0.7-0.3,1.4-0.5,2.2-0.9
	c0.5-0.1,1.1-0.2,1.5-0.4h0.5l0.2,0.2l0.7-0.2l0.2,0.2l0.4,0.1V12h-0.5l-0.2,0.4l0.4-0.1l-0.1,0.5l0.4,0.4l0.2,0.8l-0.2,0.2
	l-0.4,0.4l-0.5,0.3h-0.5c-0.2-0.2-0.4-0.5-0.5-0.8h-0.2l-0.1,0.5L24,15l0.1,0.3v0.2l0.3-0.2l0.1-0.3l0.4-0.1l0.3,0.5h0.4l0.2-0.5
	l1.1-0.3l0.2,0.1L27,15l0.5-0.3l0.1-0.4l0.5-0.3l0.1-0.4l0.5,0.4l-0.1,0.3h-0.4l-0.3,0.3l0.1,0.3h0.5l0.4-0.3
	c0.7-0.1,1.3-0.2,2.1-0.2l0.2,0.1l-0.5,0.3l0.4,0.2h0l0.5,0.1l0.6-0.1l0.1,0.4l0.6-0.3l-0.2-0.5l0.3-0.1l0.8,0.4l0.4,0.3l0.9,0.8
	l0.4-0.3l-0.2-0.4l0.1-0.1l-0.3-0.1l0.3-0.2l0.1-0.5l0.1-0.2l0.9-0.4l0.5-0.4l0.3-0.1l0.8,0.3l-0.2,0.4l-0.5,0.3l0.1,0.2l-0.1,0.4
	l-0.5,0.7l0.3,0.4l-0.4,0.4l-1.1,0.6h0.5l0.3-0.2l0.5-0.1l0.2-0.3l0.5-0.2l-0.1-0.4l0.4-0.4h-0.4l0.1-0.3l0.5-0.5l-0.3-0.5l0.8-0.3
	l0.1-0.4h0.2l0.1,0.3l-0.4,0.5l0.4,0.1V14l0.6-0.2h0.7l0.5,0.4l-0.1-0.1l0.2-0.5l0.6-0.1l0.8,0.1h0.8l-0.2-0.3l0.5-0.3h0.4l0.7-0.2
	h0.9l0.1-0.1h0.9l0.3,0.1l0.7-0.3h0.6l0.1-0.2l0.3-0.2l0.7-0.3l0.5,0.1l-0.4,0.2H49l0.2,0.2l0.3-0.1l0.9-0.1l0.8,0.2l0.4,0.2v0.3
	l-0.5,0.3l-0.7,0.4l-0.2,0c0.4,0,0.6,0.1,1,0.1l0.3-0.1l0.3,0.3l0.1-0.2l0.5-0.1h1.1l0.2,0.2l1.3-0.1l-0.2-0.4h0.7l0.5-0.1l0.6,0.2
	l0.4,0.3v0.3l0.6,0.3l0.6,0.1l-0.1-0.5l0.6,0.1l0.4-0.2h0.6l0.1-0.2H60l-0.7-0.4l0.2-0.3c0.9-0.1,0.9-0.1,2.3-0.4l0.5,0.2l1,0.1
	l0.7-0.5l0.5-0.1l0.4,0.1l0.4,0.4h0.4l0.1-0.2l0.3-0.2l0.4-0.1l0.2-0.3l0.7,0.2L67,11.8l-0.5-0.2l-0.2-0.2l0.5-0.2l0.2-0.3l0.5-0.1
	h0.4c0.5,0.3,0.8,0.5,1.2,0.8c-0.4-0.3-0.8-0.5-1.2-0.8h0.5l0.6,0.1l0.4,0.3l0,0l-0.5-0.3l0.1-0.3l0.5,0.1l0.3,0.3l0.1,0.3l0.8,0.5
	l0.1,0.1v0.3h-0.2h-0.2L70,12l-0.1,0.2v0.2l-0.2-0.1l-0.2-0.2l0.1,0.3l0.3,0.2l0.2,0.2c-0.4-0.2-0.6-0.5-1-0.6
	c0.4,0.2,0.6,0.5,1,0.7l0,0l0.2,0.3l-0.1,0.1l0.4,0.1l0.5,0.3l0.2,0.1l0.3,0.2l0.2,0.2l-0.3,0l0.2,0.7v0.2l0.2,0.5l0.2,0.5l0.2,0.3
	l-0.6-0.4v0.7l-0.4,0l0.1,0.4L71,16.9l0.3,0.4l0.3,0.6l0.2,0.2h0.4l0.7,0.8l-0.2,0.2l0.3,0.5l0.3,0.2L73,20l0.5,0.7l-0.3,0.4
	l0.4,0.6v0.7l-0.4-0.4c-0.6-0.6-1.2-1.3-1.8-1.9l-0.5-0.8l-0.1-0.5l-0.2-0.3l0.3-0.3c-0.1-0.5-0.3-1.1-0.4-1.5l-0.2-0.6l-0.5-0.7
	l-0.2,0.2l0.4,0.5v0.8l-0.8-0.5l-0.5,0.5l0.2,1.2l0.5,0.3l-0.5,0.4l-0.4,0.2l-0.3-0.4l-0.5,0.1L67.6,19l-1.1-0.1l-1,0.5l-0.5,1.3
	l-0.6,1.7l0.7-0.1l0.5,0.4h0.5l0.1-0.4l0.5-0.1l1,0.5l0.4,0.5v0.7l0.4,0.7l0.4,1.1l-0.2,1.1l0.1,0.5c-0.3,0.7-0.5,1.4-0.7,2.2
	l-0.7,0.5L67,29.9l-0.5-0.3l-0.5,0.6v0.2h-0.2l-0.4,0.2v0.3l0.2,0.5l-0.3,0.2l0.1,0.1l-0.2,0.3L65,32.1l-0.2,0.2l0.1,0.3v0.1
	l0.3,0.1l0.3,0.3l0.7,0.7l0.3,0.5l0.3,0.8l-0.2,0.2l-0.5,0.2l-0.4,0.4l-0.5,0.2L65,35.5v-0.5l-0.5-0.7l0.4-0.2l-0.5-0.5l-0.4-0.1
	v0.2H64l-0.1-0.1h-0.2l-0.1-0.2l0.1-0.4l0.1-0.1L63.7,33v-0.4h-0.1h-0.4l-0.4-0.2l-0.7,0.3L61.8,33l-0.6,0.2l0.3-0.4l-0.2-0.3
	l0.4-0.5l-0.4-0.4L60.8,32l-0.5,0.5L60,33L59.5,33l-0.3,0.4l0.5,0.5l0.5,0.1l0.1,0.3l0.5,0.2l0.5-0.5l0.6,0.2h0.4l0.2,0.4l-0.7,0.1
	l-0.2,0.5L61,35.6L60.7,36l0.7,0.4l0.4,0.6l0.5,0.6l0.6,0.5l0.1,0.5l-0.3,0.3l0.2,0.4l0.5,0.2V40l-0.1,0.6l-0.4,0.1
	c-0.3,0.6-0.5,1.2-0.8,1.8l-0.5,1c-0.5,0.5-1.1,1-1.7,1.4l-0.7,0.1l-0.5,0.4l-0.3-0.2L58,45.5l-1,0.5l-0.8,0.2L56.1,47L55.6,47
	l-0.3-0.5l0.2-0.3l-1-0.2l-0.4,0.2l-0.7,0.4L53,47.3l-0.2,0.5c0.5,0.5,0.9,1.2,1.3,1.6l0.7,0.5l0.5,0.6l0.4,1.3l-0.1,1.3L55,53.7
	l-1,0.5l-0.6,0.6l-1,0.7l-0.3-0.5l0.2-0.5L51.8,54L51.1,54l-0.4-0.4l-0.5-0.8l-0.5-0.2h-0.6l0.1-0.6h-0.7l-0.1,0.8
	c-0.3,0.6-0.5,1.2-0.7,1.7l0.1,0.5h0.5l0.4,0.7l0.2,0.6l0.5,0.5L50,57l0.5,0.4l0.2,0.1l0.5,0.5l0.4,0.5v0.5l-0.1,0.4l0.1,0.3
	l0.1,0.5l0.3,0.2l0.3,0.6v0.3L51.4,61l-0.7-0.5l-0.9-0.5l-0.1-0.4l-0.5-0.5L49,58.4l-0.3-0.5l0.1-0.5L48.7,57l-0.4-0.3l-0.2-0.4
	c-0.3-0.3-0.5-0.5-0.8-0.8v0.7l-0.2-0.5l0.1-0.5l0.3-0.7l-0.1-0.5l0.3-0.5l-0.3-0.5l0.1-0.8L47.1,52l-0.3-0.9l-0.2-1l-0.3-0.7
	l-0.5,0.4l-0.8,0.6l-0.5-0.1l-0.5-0.2l0.3-0.9l-0.2-0.7l-0.6-0.9l0.1-0.3l-0.5-0.1l-0.5-0.6l-0.2-0.4v-0.4l-0.2-0.4l-0.4-0.5
	l-0.7-0.1l0.1,0.3l-0.3,0.5l-0.4-0.2l-0.1,0.1l-0.1,0h-0.4l-0.1,0.3h-0.5l-1,0.1v0.5l-0.5,0.5l-1.1,0.5l-0.9,0.8l-0.6,0.5l-0.8,0.5
	c0,0.1,0,0.3,0,0.4l-0.4,0.2l-0.6-0.1h-0.4l-0.3,0.5l0.1,1v0.6L33,52.5v1.2h-0.4l-0.4,0.6l0.3,0.3l-0.8,0.1l-0.1,0.6l-0.3,0.2
	l-0.7-0.8c-0.2-0.6-0.4-1.2-0.5-1.8l-0.3-0.4l-0.4-0.8c-0.1-0.5-0.1-1-0.3-1.3l-0.6-1.1c-0.1-0.8-0.2-1.5-0.3-2.4l0.1-0.9l-0.1-0.7
	l-1,0.3l-0.5-0.2l-0.8-1l0.4-0.3L26.5,44l-0.6-0.8l-0.5-0.3l-0.1-0.4l-0.5-0.7h-1.1l-1-0.2L22,41.6l-1.1-0.5l-0.6-0.2l-0.6-0.3v-0.9
	l-0.3-0.2H19l-0.6,0.2l-0.6-0.4l-0.4-0.5L17,38.5l-0.2-0.8l-0.1-1.1h-0.3l-0.3-0.4l-0.3,0.2l-0.1,0v0.4v0.4c0,0.5,0,0.8,0,1.2
	l0.2,0.3v0.3l0.3,0.4l-0.1,0.3L16,40v0.3l0.1,0.3v0.3v0.2l0.1-0.5l0.3-0.4h0.2l0.1,0.3L16.7,41l-0.3-0.1v0.3h0.1v0.2H17
	c0.3,0.1,0.5,0.2,0.7,0.3l0.5-0.5c0.4-0.3,0.6-0.5,1-0.7l0.2-0.2l0.1,0.1l-0.1,0.3h-0.1l-0.1,0.6l0.2,0.5l0.3,0.4l0.4,0.2l0.4,0.2
	c0.1,0.3,0.2,0.5,0.3,0.7l0.2,0.2c0,0.1,0,0.1,0,0.2c-0.2,0.2-0.3,0.4-0.5,0.6l-0.3,0.2l-0.5,0.3l-0.3-0.1l-0.1,0.2L19,45.1v0.5
	l-0.1,0.1c-0.1,0-0.2,0-0.3-0.1l-0.4,0.2l-0.1,0.4L18,46.3l-0.4-0.1l-0.3,0.2v0.3l-0.1,0l-0.3-0.2l-0.4,0.2h-0.3l-0.5,0.1L15.6,47
	l-0.1,0.3L15,47.6l-0.7,0L13.8,48h-0.3l-0.2-0.1L13,48.1l-0.4,0.1l-0.5-0.1H12l-0.1,0.2l0,0v0.2l-0.3-0.1l-0.2,0.1l-0.4-0.2v-0.5
	l0.1-0.5L11.1,47v-0.6L11,46.1h0.1v-0.4l0.1-0.1v-0.4v-0.4l-0.1-0.2v-0.3L11,44.3v-0.7V43l-0.3-0.6l-0.2-0.2l-0.1-0.8l0.1-0.5
	l0.1-0.5v-0.9l-0.1-0.4l-0.2-0.2v-0.5l0.1-0.2V38l-0.1-0.2v-0.6c0-0.5,0-0.8-0.1-1.2L10,35.9l0.3-0.3l0.1-0.3l0.2-0.3V35l-0.2,0.3
	l-0.3,0.5L10,36.1l-0.1,0.1c0-0.2-0.1-0.5-0.1-0.6l0.2-1.1l-0.1,0.1l-0.2,0.8c0,0.7-0.1,1.3-0.2,2c0,0.3,0,0.6,0,0.9l0.1,0.9
	l-0.1,0.1l-0.1,0.5l0.3,0.8v0.2l-0.1,0.8l-0.1,0.1l-0.1,0.6V43c0,0.3,0.1,0.5,0.2,0.6l0.1,1v0.7l0.2,0.5l0.5,0.9
	c0.2,0.5,0.4,0.9,0.5,1.3l0.2,0.3l0.2,0.4v0.3L11,48.8c0.1,0.2,0.2,0.4,0.4,0.5l0.1,0.4l0.2,0.4l0.3,0.1h0.5l0.5,0.1l0.5-0.1h0.3
	l0.2-0.1c0.2,0,0.3,0.1,0.5,0.1l0.3-0.1h0.3l0.3-0.2l0.2,0.1v0.2l-0.1,0.5V51L15,51.3L14.8,52c-0.4,0.9-0.7,1.7-1.1,2.5
	c-0.4,0.5-0.6,1.1-1,1.4l-0.9,0.2l-0.7,0.5L11,57.1l-0.5,0.7l-0.1,0.4l-0.1,0.1L10,58.5l0,0.2H9.8v0.5l-0.1,0.3v0.5l-0.1,0.2
	l-0.1,0.8l0.1,0.5l0.3,0.4l0.1,0.2V62l0.1,0.2v0.4c0.2,0.4,0.4,0.8,0.5,1.2l0.2,0.2l0.2,0.4l0.2,0.6c0.2,0.5,0.4,1.1,0.5,1.5
	l0.2,0.4v0.5v0.4L11.7,68c-0.2,0.1-0.4,0.2-0.5,0.2L11,68.4v0.1l-0.1,0.4L10.8,69l0.2,0.5c0.2,0.3,0.5,0.6,0.6,0.9l0.1,0.2h0.1
	L12,71l0.1,0.3l0.1,0.2l0.1,0.2v0.2L12,71.6l-0.3,0.1v0.2l0.2,0.3l0.1,0.1c0.1,0.2,0.2,0.5,0.4,0.6l0.3,0.5l0.1,0.2
	c0,0.1,0,0.2,0,0.2l0.1,0.2l0.1,0.3l0.1,0.3c0.1,0.2,0.1,0.4,0.2,0.6l0,0c8.5,9.9,21.3,15.3,34.3,14.9h0.1h0.2
	c16.3-0.8,31-11,37.5-26c7.1-16.3,3.1-36-9.8-48.2C73.8,14,72.1,12.4,70.2,11.2z M37.4,12.1c-0.7,0-1.3,0.1-2.1,0.1l-1.1,0.3
	c-0.5,0.3-1.1,0.5-1.5,0.7l-0.3,0.4l0.2,0.5h-0.2l-0.9-0.3l0.1-0.2l-0.4-0.3l0.2-0.3h0.4l0.3-0.3l0.9-0.3l-0.2-0.1l1-0.3l0.1-0.2
	c0.6-0.1,1.2-0.2,1.8-0.2l0.9,0.1l0.6-0.1h0.5l0.1,0.2L37.4,12.1z M16.5,73.5l-0.3,0.1c-0.3-0.2-0.5-0.4-0.7-0.5l-0.3-0.4L15,72.3
	l-0.5-0.5l-0.3-0.5l-0.1-0.4h0.2l-0.1-0.2v-0.4l-0.1-0.5l0-0.2l-0.3-0.5l-0.3-0.5v-0.3L13.5,68l0.2,0.1l0.2-0.1l0.2-0.1l0.2,0.1
	l0.2-0.3l0.3-0.3l0.1-0.3l-0.2-0.3l0.3,0.2l0.2-0.4L15,66.3l0.1-0.3c0.2,0.2,0.3,0.5,0.5,0.6l0.3,0.5l0.3,0.8l0.2,0.4v0.5l0,0v0.2
	L16,68.4v0.2l0.3,0.5v0.3l-0.1,0.1l0.2,0.5c0.1,0.8,0.2,1.5,0.3,2.3c0.1,0.5,0.2,0.9,0.3,1.3L16.5,73.5z M34.3,56.7L33.9,57
	l-0.7,0.1L33,56.5l-0.1-1.1l0.4-1.2l0.5,0.5l0.4,0.5l0.4,0.8L34.3,56.7z M71,27.6l0.5,0.1l0.4,0.1l0.2-0.4l0.5,0.7l-0.7,0.4l0,0
	l-0.1,0.7L71,28.8l0.1,0.8l-0.5,0.2l-0.4-0.6v-0.5l0.5-0.2l-0.3-0.9l-0.1-0.6L71,27.6z M68.1,23.4l-0.5-0.8l0.2-0.4l-0.4-0.3
	l0.1-0.1c0.3,0.3,0.5,0.6,0.8,0.9l0.4,0.6c0.5,0.5,1,1.1,1.4,1.4h-0.7l0.3,1l0.7,0.5l0.2,0.5l-0.5-0.3v0.5l-0.4-0.5l-0.3-0.6
	L69.1,25l-0.2-0.4l-0.5-0.8L68.1,23.4z M67.5,36l0.2-0.5l0.5-0.5l0.3-0.5l1-0.5H70l0.2-1.3l0.5,0.3c0.3-0.4,0.5-0.8,0.6-1.2V31
	l-0.4-0.7v-0.5l0.5-0.3l0.6,0.9l0.2,0.5l-0.2,0.8l0.3,0.7V33l0.2,0.4L72.2,34l-0.5,0.5l-0.9,0.3l-0.5,1l-0.5-0.2l-0.2-0.5l-0.9,0.4
	l-0.5,0.5L67.8,36l0.7,0.5l-0.1,1.2l-0.3,0.4l-0.4-0.3v-0.6l-0.5-0.2l-0.3-0.5L67.5,36z M68.7,60.8l-0.2,0.1l-0.2-0.4l-0.2-0.9
	l0.2-0.6l0.3-0.3v0.4h0.4l0.1,0.3L68.9,60h-0.4l-0.1,0.5L68.7,60.8z M68.4,62.2l0.8-0.2l0.7,0.1l0.2,0.5l-0.5-0.2H69l-0.4,0.1
	l-0.5,0.1L68.4,62.2z M64.6,64.5l-0.3-0.2l0.4-0.6l-0.7,0.4L64,63.9l0.1-0.3l-0.5-0.4l0.1-0.7l-0.5,0.3c0,0.6,0,1.2-0.1,1.7
	l-0.4,0.2l-0.1-0.2l0.3-0.6l-0.1-0.6h-0.3L62.3,63l0.4-0.5l0.1-0.5l0.5-1.2l0.2-0.4l0.6-0.6l0.5,0.2h0.9l0.8-0.1l0.7-0.6l0.1,0.2
	l-0.5,0.8l-0.7,0.1l-0.6-0.1l-1.1,0.2l-0.6,0.2l-0.2,0.6l0.6,0.5l0.4-0.4l1.2-0.4l-0.1,0.4l-0.3-0.1l-0.4,0.5l-0.6,0.4l0.6,0.8
	l-0.2,0.3l0.5,0.7l-0.1,0.5L64.6,64.5z M64.6,66.1l-0.1,0.4l-1,0.3h-0.9c0-0.1,0-0.2,0-0.3l0.5-0.2l0.5,0.2l0.5-0.1L64.6,66.1z
	 M65,67.2l0.4-0.5l0.7-0.4l0.1-0.2l0.6-0.3l0.5-0.1l0.2-0.1l0.3,0.1l-0.3,0.2c-0.5,0.3-0.8,0.5-1.2,0.6L65.7,67L65,67.2L65,67.2
	L65,67.2z M67.4,55.9L67.4,55.9l-0.3-0.7l-0.3,0.5l0.2,0.5l-0.2,0.4l-0.8-0.4l-0.2-0.5l0.2-0.4L65.6,55l-0.1,0.4h-0.4l-0.5,0.5
	l-0.1-0.2l0.3-0.7l0.5-0.3l0.4-0.4l0.3,0.3l0.5-0.3l0.1-0.4l0.5-0.1l-0.2-0.5l0.5,0.3c0.1,0.5,0.2,1.1,0.3,1.4L67.4,55.9z M66,52.5
	v0.7l0,0l-0.3,0.3L65.5,54l-0.2,0.3l-0.5-0.5c0.1-0.2,0.2-0.3,0.3-0.5l0.1-0.5l0.4-0.1l-0.1,0.6L66,52.5z M66.6,51.4l0.2,0.3
	l0.3,0.8l-0.5-0.1v0.3l0.2,0.5l-0.4,0.2v-0.5h-0.2l-0.1-0.5h0.3V52l-0.4-0.6L66.6,51.4z M63.2,49.3v-1.2l0.2-0.7l0.5-0.1l0.5,0.2
	l0.2-0.2l0,0.2L64.4,48l0.3,0.5l-0.1,0.6l-0.5,0.2l-0.1,0.6l0.2,0.6h0.4l0.3-0.1l0.9,0.3v0.5l0.3,0.2L66,51.6l-0.5-0.3L65.2,51
	L65,51.3l-0.5-0.4L64,51l-0.4-0.1v-0.4l0.2-0.2l-0.2-0.1l-0.1,0.3l-0.4-0.4L63,49.7l-0.1-0.7L63.2,49.3z M61.7,54.6l0.5-0.5l0.5-0.5
	l0.4-0.8l0.2,0.6L62.7,54l-0.4,0.4l-1,0.8L61.7,54.6z M55.5,60.7l0.5-0.6l0.5,0.2l0.6-0.2l0.2-0.6l0.4-0.2l0.9-0.3l0.5-0.6l0.4-0.5
	l0.3-0.3l0.6-0.5l0.5-0.5l0.4-0.6h0.3l0.4,0.4v0.4c0.4,0.1,0.7,0.3,1.1,0.4l-0.1,0.3l0,0l-0.5,0.1l0.1,0.4l-0.6,0.1l-0.5,0.7
	l0.5,0.6v0.4l0.8,0.6l-0.9,0.2L61.3,61v0.6l-0.5,0.5l-0.1,0.8l-0.3,1.1l-0.1-0.3L59.6,64l-0.3-0.4h-0.5l-0.4-0.2l-0.9,0.4l-0.3-0.4
	l-0.4,0.1h-0.6l-0.1-1l-0.4-0.2l-0.4-0.6l-0.1-0.5L55.5,60.7z M62.2,66.9l-0.8,0.2l0,0l-0.5,0.2h-0.4l0.3-0.5h0.4l0.2-0.3l0.3,0.2
	l0.5-0.1V66.9z M51.5,65.3l-1-0.5l-0.4-0.5l-0.6-0.5l-0.4-0.6l-0.6-1L48,61.7L47.7,61l-0.3-0.5l-0.7-0.5l-0.3-0.6l-0.6-0.4l-0.8-0.8
	L45,58c0.6,0,1.1,0.1,1.7,0.2l0.7,0.7l0.6,0.5l0.5,0.3l0.7,0.8h0.8l0.6,0.5l0.5,0.6l0.6,0.3l-0.4,0.6l0.5,0.3h0.3l0.1,0.5l0.3,0.4
	h0.5l0.4,0.5L53,64.8v1.1l-0.9-0.1L51.5,65.3z M55.6,66.8h-0.5l-0.4,0.1l-1.3-0.3l-0.1-0.3h-0.7l0.5-0.6h1l0.6,0.3h0.3l0.1,0.3h1.3
	l0.2-0.3l1.3,0.3l0.3,0.5h1.1l0.8,0.4l-0.8,0.4l-0.8-0.2l-0.6-0.2h-0.7l-0.7-0.1L55.6,66.8z M69.8,81.4l-0.3,0.2l0,0l-0.4,0.4v-0.1
	l-0.5,0.3h-0.1l-0.2,0.1l0.1-0.3l0.2-0.3l0.1-0.3l0.2-0.2h0.2h0.2c0.2-0.1,0.4-0.2,0.6-0.3h0.2L69.8,81.4z M77,73.2l-0.2,0.4
	L76.6,74l-0.2,0.4l-0.3,0.5c-0.2,0.3-0.5,0.5-0.6,0.8l-0.2,0.3c-0.3,0.4-0.5,0.6-0.8,0.9l-0.5,0.4c-0.4,0.4-0.7,0.8-1.1,1.2l-0.2,0
	c-0.3,0.3-0.5,0.5-0.7,0.7L72,79.2l-0.3,0.3l-0.5,0.2l-0.5,0.3c-0.3,0.2-0.5,0.4-0.7,0.5L70,80.2h-0.2l0.3-0.3l-0.3,0.2l-0.6,0.5
	c-0.2,0-0.3,0-0.5,0h-0.2h-0.2v-0.3l0.2-0.4l0.1-0.2l-0.1-0.1h-0.4l0.3-0.3l0.1-0.4l-0.5,0.4l-0.5,0.2l0.5-0.3l0.3-0.3l0.4-0.3
	l0.2-0.4l-0.6,0.5L68,79l-0.5,0.5L67,79.4l0.2-0.3l-0.1-0.3l-0.2-0.1l0.2-0.1l-0.5-0.2h-0.4l-0.4-0.2l-1,0.2c-0.5,0.2-1,0.4-1.3,0.5
	L63.1,79l-0.7,0.4L62,79.6l-0.2,0.3L61.5,80l-0.3,0.2l-0.4,0.1h-0.5c-0.3,0.1-0.5,0.1-0.8,0.2l-0.5,0.3h-0.2
	c-0.2,0.1-0.5,0.2-0.6,0.4c-0.3,0-0.5,0-0.8,0.1L57.1,81l-0.2-0.1l0.1-0.3l0.3-0.1l0.1-0.1v-0.2l0.2-0.4v-0.3l-0.2-0.5v-0.3l0.1-0.3
	l-0.2-0.3v0.1l-0.4-0.2v-0.4v-0.4v-0.2l0.3,0.2l-0.3-0.5l0.3,0.1l0.2,0.2l0.1-0.3l-0.3-0.4v-0.1l-0.1-0.2l0.1-0.4l0.2-0.2l0.2-0.3
	v-0.4l0.4-0.5v0.5l0.4-0.5l0.5-0.3l0.4-0.3l0.5-0.3l0.3-0.1l0.2,0.1l0.5-0.3l0.5-0.1l0.1-0.2l0.2-0.1h0.4l0.7-0.3l0.5-0.3l0.3-0.4
	l0.5-0.4c0.1-0.2,0.1-0.4,0.2-0.5l0.5-0.5l0.2,0.5l0.3-0.2l-0.2-0.3l0.3-0.4l0.3,0.1l0.2-0.5l0.5-0.4l0.2-0.3l0.4-0.2v-0.2h0.3v-0.2
	c0.2-0.1,0.5-0.2,0.6-0.3l0.5,0.2l0.3,0.4l0.4-0.1h0.4l-0.1-0.4l0.4-0.5l0.3-0.2l-0.1-0.2l0.4-0.5l0.5-0.3h0.3l0.5-0.2l0.1-0.4
	l-0.4-0.1l0.4-0.2l0.4,0.1l0.3,0.2l0.5,0.1l0.2,0.4l0.4,0.1l0.4-0.3h0.2l0.2-0.2l0.2,0.3L73.4,67l-1.2,0.9L72,67.9v0.3
	c-0.2,0.3-0.4,0.5-0.5,0.7v0.2l0.4,0.3l0.4,0.1l0.2,0.2l0.3,0.3c0.1,0,0.1,0,0.2,0l0.3,0.1v0.2l0.5,0.1l0.5-0.3
	c0.1-0.2,0.3-0.5,0.4-0.6l0.2-0.4l0.3-0.5v-0.3l0.1-0.2v-0.4l0.2-0.5l0.1-0.2v-0.2c0.2-0.3,0.3-0.5,0.4-0.7l0.1-0.2l0.4-0.4l0.1,0.3
	l-0.1,0.5h0.1l-0.1,0.3l0.1,0.3l-0.1,0.4v0.3v0.5l0.4-0.4l0.1,0.2l0.2,0.2l-0.1,0.4c0,0.3-0.1,0.5-0.1,0.8h0.1l-0.1,0.5l-0.8,0v0.4
	l0.4,0.2c0.1,0.1,0.3,0.3,0.4,0.4v0.2l0.1,0.3l-0.2,0.6l0.3-0.2l0.1,0.2l0.2-0.1L77,72.3c0.1,0.2,0.1,0.3,0.2,0.4l0.1,0.4L77,73.2z
	 M79.6,64.4l-0.4,0.2l-0.1-0.2c-0.3,0.1-0.5,0.1-0.8,0.1L78,64.2L77.9,64l-0.1-0.5l-0.6-0.1l-0.5,0.4l-0.4,0.3v0.5L75.9,65h-0.3
	l-0.5-0.1l-0.4-0.5h-0.5l-0.2,0.3l-0.7,0.2l0.4-0.6l0.4-0.3v-0.7L74,62.9L73,62.5h-0.5L71.7,62l-0.3,0.5l-0.2,0.1l-0.1-0.3V62
	l-0.5-0.3l0.7-0.4l0.5-0.1V61c-0.3,0.1-0.6,0.1-0.9,0.2l-0.2-0.4h-0.5L70,60.6l0.9-0.4l0.4-0.1l1,0.1l0.1,0.3l0.1,1.1l0.5,0.3
	l0.5-0.9l0.7-0.5c0.2,0,0.4-0.1,0.5-0.1l0.5,0.2l0.4,0.2h0.5l0.9,0.3l0.9,0.2l0.3,0.3l0.3,0.3v0.4l0.7,0.2l0.1,0.4L78.4,63v0.5
	l0.4,0.4l0.2,0.6l0.3-0.1l-0.1,0.3h0.4h-0.3l0.5,0.1L79.6,64.4z M80.8,61L80.5,61l-0.1,0.2c-0.2,0.2-0.4,0.4-0.5,0.5
	c-0.1,0-0.2,0.1-0.3,0.1l-0.4-0.1L79,61.6l0.1-0.3h0.5l0.3-0.2l0.1-0.4H80v0.4l0.3-0.2l0.2-0.3l0.3-0.4v-0.2l0.3-0.1l0.1,0.1
	l-0.1,0.4L80.8,61z M18.7,30.6l-0.1,0.2l-0.3,0.1l-0.1,0.4l-0.1,0.5l0.4,0.3l0.2,0.5l0.6,0.3h0.8l0.1-0.2l0.1-0.5l0.3-0.8l-0.3-0.2
	l0.3-0.5l-0.3-0.1l0.4-0.5l0.4,0.3l0,0l0.5-0.1l-0.2-0.5v-0.4l-0.5,0.1L20.5,30v-0.5l0.1-0.2l0.3-0.3v-0.3l-0.4-0.3l0.1-0.6
	l-0.1-0.2l0.1-0.2l0.4,0.2l0.3-0.5h0.5l0.4,0.2l0.4-0.6l0.1-0.5l-0.5-0.1L21.9,26l-0.6,0.2h-0.5l-0.4,0.4H20L19.3,27l0.1,0.7
	l-0.3,0.5c0,0.5,0.1,0.9,0.2,1.3V30l0.2,0.1l0.1,0.2l-0.4-0.1L18.7,30.6z M9.6,33l0.3,0.1l0.2,0.2L10,33.7l0.2-0.2l0.2,0.3l0.3,0.2
	l0.3-0.1l0.2-0.2v-0.1l0.2-0.3l0.3-0.5l0.1-0.2l0,0l0.4-0.5c0.1-0.2,0.3-0.3,0.4-0.5l0.2-0.5l0.2-0.3v-0.4l0.3-0.2h-0.3l-0.2-0.3
	l-0.8,0.5l-0.5-0.2l-0.1-0.5l-0.3-0.2L11,30h-0.3l-0.1-0.5l-0.3-0.2l0.2-0.7v-0.5l0.4-0.5v-0.4l0.6-0.5l0.4,0.2l0.4-0.5l0.5,0.4
	l0.5-0.3h0.5l0.5,0.3l0.3,0.7l0.4,0.5l0.5,0.1l0.3,0.2l0.6-0.2l0.2-0.3l0.2-0.5l-0.1-0.3l-0.2-0.2v-0.3L16.1,26l-0.3-0.4l-0.1-0.5
	H16l0.6-0.4v-0.4l0.6-0.1l0.1-0.2h-0.4l-0.3-0.1L16.2,24l-0.3-0.1L15.6,24l-0.3,0.4l0.1,0.2l0.4,0.1l-0.2,0.2l-0.1,0.2l-0.6,0.5
	l-0.1-0.2l0.3-0.3l-0.2-0.4l0.1-0.1l0.4-0.1v-0.2L15,23.9l0.2-0.3l-0.3-0.1l-0.3,0.4l-0.5,0.4L14,24.6l-0.2,0.1v-0.1l-0.5,0.7
	l-0.3,0.2l-0.4,0.4l-0.2,0.4l-0.1,0.3l0.1,0.4h-0.3l-0.3-0.2c-0.2,0.1-0.5,0.3-0.6,0.4l0.1-0.4l0.1-0.1l-0.1-0.1l-0.1-0.2H11l0,0.4
	h-0.2l-0.1-0.1l0.1-0.5l-0.1,0.1l-0.2,0.5l-0.1,0.4l-0.2,0.1v0.3v0.3L10,28.2v-0.4l-0.1,0.4H9.7l-0.3,0.7l-0.2-0.1v-0.5l0.2-0.5
	l0.2-0.5c0.1-0.3,0.2-0.5,0.3-0.8l0.1-0.2v-0.1l0.1-0.2v-0.3l0.2-0.3l0.3-0.4l0.2-0.2v-0.1v-0.1l0.1-0.3c0-0.2,0-0.4,0.1-0.5
	l0.1-0.3v-0.4l0.3-0.5h0.1l0.2-0.4l0.2-0.2V22l-0.2,0.2l0.1-0.3l0.2-0.2l0,0H12v-0.2l-0.2,0.1l-0.2,0.3h-0.3L11,22.6l-0.2,0.5
	l-0.3,0.5l-0.3,0.6l0.1,0.1l-0.1,0.3l-0.1,0.1c0,0.2-0.1,0.5-0.1,0.6l0.1,0.4L10,25.7L9.9,26l0.1-0.4l-0.1-0.3l-0.3,0.4V26l-0.2,0.3
	H9.3l-0.3,0.4H9c0-0.1,0.1-0.1,0.1-0.2l0.3-0.3l0.1-0.1c0.1-0.3,0.2-0.5,0.4-0.8v-0.2l0.2-0.3v-0.2l0.1-0.4V24
	c0.2-0.5,0.4-0.9,0.5-1.3l0.5-0.6v-0.2L11,21.7l0,0l-0.2,0.2l0,0l-0.5,0.3l0.1-0.3c-0.9,1.2-1.6,2.5-2.3,3.8v0.1L8,26.1v0.1l0.2-0.1
	v0.2L8,26.5l0.2-0.1l-0.1-0.1l-0.2,0.2L7.7,27v0.2l-0.4,0.5l-0.2,0.2L7,28.3v0.1l-0.2,0.4v0.2v0.5h0.1v0.3v0.5l-0.2,0.6
	c0.1,0.3,0.1,0.5,0.1,0.8v0.6L7,32l0.2-0.2l0.2-0.6l0.2-0.3l0.3-0.2H8l0.3,0.5l-0.1,0.4l0.1,0.1v0.2l0.2,0.3v0.1l0.4,0.2
	c0.2,0.3,0.3,0.6,0.5,0.9l0.3-0.1L9.6,33z M8.7,26.8L8.7,26.8L8.6,27l-0.2,0.3l0.1-0.4v-0.2l0.1-0.5L8.7,26l0.1,0.3
	c0.1,0.1,0.2,0.1,0.3,0.2L8.7,26.8z"/>
</svg>
