<?xml version="1.0" encoding="utf-8"?>
<!-- Generator: Adobe Illustrator 24.1.1, SVG Export Plug-In . SVG Version: 6.00 Build 0)  -->
<svg version="1.1" id="Layer_1" xmlns="http://www.w3.org/2000/svg" xmlns:xlink="http://www.w3.org/1999/xlink" x="0px" y="0px"
	 viewBox="0 0 96.9 95.1" style="enable-background:new 0 0 96.9 95.1;" xml:space="preserve">
<path d="M71.3,46.3L71,45.9l-0.1-0.2v-0.4l-0.2-0.2H70l-0.4-0.4l-0.4-0.1l0.1-0.1l0.5-0.1l-0.2-0.5l0.4-0.3l0.5-0.1l-0.2-0.7
	l-0.2-0.3l-0.6,0.2H69l-0.5,0.6l-0.4,0.4L68,44.1l-0.5,0.3l-0.4,0.9l0.7,0.4l0.1,0.4c0.4,0.3,0.8,0.6,1.3,0.9l0.4,0.4l0.3-0.1
	l0.3,0.1l-0.4,0.2v0.5v0.3l-0.2,0.3l0.1,0.4l0.3,0.4l0.6-0.1l0.4,0.2l0.8-0.2l0.8-0.5v-0.2l-0.3-0.4l-0.2-0.8h-0.3V47l-0.3,0.1
	L71.3,46.3l0.6,0.1l0,0l0.4-0.4l-0.4-0.2l-0.3-0.4l-0.4,0.4L71.3,46.3z M32.3,5.5c-0.2,0.1-0.4,0.1-0.5,0.2l-0.4,0.4l0.4-0.3
	L32.3,5.5z M31.2,6L31.2,6c-0.1,0-0.3,0.1-0.4,0.2c-0.1,0-0.3,0.2-0.6,0.3l-0.3,0.2C30.4,6.5,30.8,6.2,31.2,6z M93.4,48.1
	c-0.1-0.4-0.2-0.9-0.3-1.3l-0.2-0.4c0,0.5-0.1,1.1-0.2,1.5l-0.1,0.2l-0.1,0.3v-0.9l-0.2-0.4L92,46.7v-0.3v0.1l-0.4-0.2l-0.1-0.1
	l-0.1-0.3l-0.1-0.2l-0.2-0.2l-0.2,0.4l0.1,0.2v0.4l-0.1,0.1v0.2l-0.1,0.1L90.7,47v0.3l-0.1,0.2l-0.3,0.6l0.1,0.4l-0.1,0.6l-0.4,1
	l-0.1,1.4l-0.2,0.7L89.3,53c0,0.1,0,0.2,0,0.3c-0.1,0.4-0.3,0.6-0.4,1l-0.2,0.2l-0.1,0.6l0.2,0.7l0.1,0.5l-0.1,0.8l0.1,1.1l-0.2,0.3
	l-0.2,0.6l0.1,0.1l-0.4,0.5l-0.1,0.5l-0.2,0.4l-0.4-0.3c-0.1-0.4-0.3-0.8-0.4-1.3l-0.2-0.2l-0.1-0.3l-0.2-0.7l-0.1-0.4L86,56.9
	c-0.2-0.6-0.4-1.3-0.6-1.8l-0.2-0.8L85,53.8l-0.6,0.9L84,54.9l-0.8-0.4l0.2-0.4l-0.2-0.2l-0.7-0.2l-0.4,0.1l-0.3-0.4l-0.5-0.3
	l-0.9,0.7c-0.5,0.4-1.1,0.6-1.6,1l-1.1,0.4l-0.4,0.3l-0.6,0.2L76.3,55H76l-0.5,0.3L75,55.8l-0.8,0.1l-0.7-0.3h-0.6l-0.5-0.5
	l-0.6-0.7l-0.3,0.3l-0.4-0.1L70.9,55l-0.4,0.1l0.2,0.3v0.1c0.2,0.4,0.4,0.6,0.6,1l0.4,0.1l0.2,0.2l0.4,0.2l0.1,0.3v0.2l0.1,0.2
	l0.2,0.1l0.1,0.2l0.1,0.1l-0.1-0.4l0.1-0.4l0.2-0.2l0.2,0.2l0.1,0.4l-0.1,0.4l0.2,0.2l0.1-0.1l0.1,0.2l0.4-0.3
	c0.3-0.1,0.6-0.2,0.9-0.3c0.4-0.6,0.7-1.2,1-1.8l0.1-0.3h0.1V56l-0.1,0.2l0.2,0.5l0.4,0.4l0.4,0.1l0.4-0.1h0
	c0.2,0.2,0.4,0.3,0.5,0.4h0.2c0,0.1,0,0.1,0,0.2C78.1,58,78,58.1,78,58.4l-0.2,0.4l-0.2,0.5l-0.3,0.1l-0.1,0.2L77.1,60l0.1,0.4
	l-0.1,0.1c-0.1,0-0.2,0.1-0.3,0.1L76.4,61v0.4l0.1-0.1l-0.2,0.1l-0.2,0.3V62l-0.3,0.3l-0.4,0.1L75,62.8L74.7,63l-0.4,0.4l-0.1,0.4
	v0.3l-0.6,0.4l-1,0.7l-0.5,0.6l-0.3,0.1h-0.2l-0.4,0.4l-0.4,0.3l-0.5,0.2L70,67.1l-0.2,0.2l-0.2,0.1l-0.1,0.2l-0.4,0.1l-0.2,0.2
	L68.5,68v-0.7v-0.4l-0.2-0.1l-0.1-0.4L68,66.2l0.2-0.1l-0.1-0.3l0.1-0.2l-0.1-0.3L68,65l-0.2-0.2l-0.1-0.3h-0.3L67,64.1l-0.3-0.6
	l-0.5-0.4h-0.4l-0.5-0.5l-0.1-0.4v-0.4l-0.4-0.7l-0.4-0.2L64,60.8l-0.3-0.4v-0.2l-0.3-0.4l-0.2-0.1l-0.4-0.4
	c-0.3-0.3-0.6-0.6-0.9-0.9l-0.4,0.1l0.1-0.4v-0.3l0.1-0.3v0l-0.2,0.4l0,0.5l-0.2,0.4L61.1,59c-0.2-0.2-0.4-0.3-0.6-0.4l-0.6-0.9
	l-0.1,0.1l0.4,0.7l0.5,0.6l0.6,1l0.3,0.4l0.3,0.4l0.7,0.6h-0.1l0.1,0.4l0.9,0.4l0.2,0.1L64,63l-0.2,0.2l0.2,0.7l0.3,0.7
	c0.3,0.1,0.4,0.2,0.7,0.3l0.4,0.7l0.3,0.5l0.4,0.3l1,0.4c0.4,0.3,0.7,0.4,1,0.7l0.4,0.1l0.2,0.2v0.3l-0.4,0.4
	c0.2,0.1,0.4,0.1,0.5,0.2L69,69l0.4,0.2l0.4-0.1l0.6-0.4l0.7-0.3l0.6-0.4l0.4-0.2l0.3-0.2c0.2-0.1,0.4-0.2,0.6-0.3l0.3-0.2l0.4-0.2
	l0.3-0.4l0.3-0.1v0.2L74.2,67v0.5l-0.1,0.3l-0.3,0.7c-0.3,0.6-0.4,1.2-0.7,1.8l-0.6,1.1c-0.4,0.6-0.9,1.3-1.4,2l-0.7,0.7
	c-0.6,0.4-1.2,1-1.7,1.4l-1.2,0.8l-0.2,0.4l-0.2,0.2l-0.6,0.2l-0.2,0.3L66,77.5l-0.2,0.4l-0.3,0.3l-0.2,0.4L65,78.9l-0.4,0.7v0.3
	L65,80v0.1l-0.3,0.4v0.2L64.6,81l0.2,0.3l0.2,0.4h0.3l0.2-0.2l-0.1,0.4v0.4L65.2,83l0.1,0.2L65,83.6L64.6,84l-0.4,0.4
	c-0.4,0.2-1,0.4-1.4,0.6l-0.9,0.5h-0.3l-0.5,0.4L60.8,86l-0.1,0.3l0.3,0.2l0.1,0.2v0.1h0.1l-0.1,0.4l-0.2,0.2H61l-0.2,0.1l-0.3,0.2
	c-0.4,0.2-0.9,0.4-1.4,0.4l-0.4,0.2v0.1h0.2l-0.1,0.2l-0.3,0.3l-0.2,0.2l-0.2,0.2c-0.2,0.1-0.4,0.2-0.6,0.3l-0.4,0.2L56.8,90
	l-0.4,0.2c-0.4,0.2-0.8,0.4-1.3,0.5l-0.5,0.1L54,91h-0.3l-0.1,0.1h-0.4l-0.3,0.1h-0.4l-0.4,0.1h-0.3l-0.6,0.1l-0.5,0.1l-0.4,0.1H50
	l-0.3-0.1h-0.2l-0.3-0.1l0,0l-0.1-0.1v-0.1L48.9,91h0.2v-0.2l-0.2-0.3c-0.3-0.2-0.5-0.4-0.8-0.5l-0.4-0.2l-0.3-0.2l-0.2-0.3L47,89.1
	l-0.3-0.4v-0.4l-0.1-0.2l-0.3-0.2l-0.5-0.5L45.4,87l-0.2-0.3l-0.6-0.4l-0.1-0.2l-0.1-0.3l0.1-0.4l0.3-0.4v-0.2l0.3-0.4l0.2-0.2
	l0.4-0.3l0.3-0.2l0.1-0.4V83l-0.3-0.2c-0.2-0.2-0.3-0.4-0.4-0.5v0.2l0.3-0.2c-0.2-0.3-0.3-0.5-0.4-0.8l-0.4-0.4L45,81l-0.1-0.2
	l-0.3-0.3L44,79.9l-0.8-0.6l-0.5-0.4l-0.4-0.6v-0.2l0.2-0.2l0.2-0.4l0.2-0.4L42.7,77l0.3-0.6l0.1-0.4l-0.3-0.4l-0.4-0.1l-0.2-0.3
	L42,75.1v-0.2l-0.8,0.2L40.9,75l-0.3,0.1L40,75l-0.8-0.5l-0.3-0.4l-0.5-0.4c-0.4-0.2-0.9-0.2-1.3-0.3h-0.6h-0.6l-1.3,0.2l-0.4,0.1
	h-0.7l-0.7-0.4h-0.4L31.9,73l-0.4-0.1l-0.9-0.1c-0.4,0-0.8,0.1-1.3,0.1l-0.2-0.1l-0.2-0.1l-0.7-0.5l-0.7-0.6l-0.6-0.5l-0.5-0.6
	l-0.2-0.1L25.6,70l-0.4-0.5l-0.1-0.3L25,68.7l-0.3-0.4l-0.2-0.4l-0.2-0.2l-0.2-0.2L24,67.2L23.9,67l-0.2-0.2l-0.3-0.3l-0.3-0.1
	l-0.2-0.3V66l-0.2-0.2c-0.1-0.3-0.1-0.4-0.1-0.7l0.1-0.3l-0.2-0.6l-0.3-0.4h0.3l0.4-0.4l0.2-0.3v-0.4l0.2-0.3l0.2-0.6v-0.7v-0.4
	l0.1-0.3L23.5,60l-0.3-0.4c0.1-0.2,0.1-0.4,0.2-0.5l0.3-0.1l0.3-0.3v-0.3l0.3-0.4l0.4-0.3H25l0.3-0.4l0.1-0.4l0.3-0.4l0.4-0.1
	l0.5-0.5l0.4-0.2l0.6,0.1l0.6-0.3l0.4-0.1l0.6-0.4v-0.5l0.4-0.5l0.2-0.4l0.5-0.4l0.7-0.1l0.5-0.2l0.6-0.6l0.3-0.4l0.5,0.1l0.4,0.4
	l0.6,0.1l0.7,0.4l0.3,0.1l0.7-0.3h0.8l0.5-0.2l0.7-0.1c0.8,0,1.6,0.1,2.4,0.2l0.4,0.3l0.7-0.2l0.8,0.1l0.3,0.2h0.4l0.8-0.2l0.5,0.1
	v0.4l0.6-0.2v0.2l-0.4,0.4v0.4l0.3,0.2l-0.1,0.6l-0.5,0.4l0.1,0.4h0.4l0.2,0.4l0.3,0.1l0.9,0.3l0.3-0.1l0.6,0.2l1,0.4l0.4,0.6
	c0.5,0.1,1.2,0.3,1.7,0.4l0.8,0.4l0.4-0.2l0.4-0.4l-0.2-0.5l0.2-0.4l0.5-0.4l0.5-0.1l1,0.1l0.3,0.3h0.3l0.3,0.1h0.7l0.2,0.2l1-0.1
	c0.6,0.1,1.2,0.2,1.8,0.4l0.5-0.3l0.3-0.3l0.6-0.2h0.5L60,57l0.2-0.3l0.5,0.1l0.5-0.1l0.4-0.3l0.2-0.3h-0.1l0.2-0.4l0.1-0.5l0.1-0.2
	l0,0l0.2-0.6l0.3-0.5l0,0l-0.2-0.5l0.1-0.4l-0.4-0.5l0.2-0.4l-0.4,0.2l-0.5-0.1l-0.9,0.7l-1,0.3l-0.6-0.3h-0.6l-0.1,0.4l-0.4,0.2
	l-0.7-0.3l-0.7,0.1L56,52.7l-0.5-0.4l0.3-0.6l-0.4-0.3l0.7-0.7l1-0.1l0.2-0.5l1.3-0.1l0.7-0.5l0.7-0.4l1.1-0.2l1.2,0.3l1,0.1L64,49
	l0.5-0.1l0.6-0.5V48l-0.5-0.5l-0.4-0.2h-0.4l-0.3-0.2l-0.9-0.4l-0.7-0.1l-0.6-0.3l0.4-0.2l0.4-0.7l-0.4-0.2l0.8-0.4l0-0.2L62,44.7
	l-0.5,0.1l-0.4,0.3l-0.6,0.2l-0.4,0.4l0.1,0.4l0.4,0.1l0.6-0.2l-0.1,0.4l-0.6,0.2l-0.8,0.5L59.3,47l0.1-0.4l-0.7-0.1l0.1-0.2
	l0.5-0.4l-0.2-0.1h-1L58,45.5l-0.5,0.3l-0.2,0.4l-0.4,0.6V47l-0.3,0.2l-0.2-0.1L56.3,48L56,48.4l-0.2,0.5l0.3,0.4l0.1,0.3l0.6,0.2
	L56.7,50l-0.8,0.1l-0.3,0.3l-0.5,0.4l-0.3-0.4v-0.2h-0.4H54l-0.7,0.3l0.4,0.4l-0.4,0.2c-0.1,0-0.3,0-0.4,0l-0.4-0.4l0,0.1l0.2,0.4
	l0.4,0.4l-0.3,0.2l0.4,0.3l0.4,0.2v0.4l-0.5-0.2l0.2,0.4L52.9,53l0.3,0.6h-0.4l-0.5-0.3L52,52.8l-0.2-0.4c-0.2-0.3-0.4-0.4-0.6-0.7
	l-0.1-0.2L51,51.4v-0.2l-0.5-0.4l-0.1-0.3l0.1-0.4l0.1-0.3l-0.1-0.1l-0.2-0.1l-0.2-0.3c-0.3-0.2-0.6-0.3-0.9-0.4l-0.4-0.3l-0.6-0.1
	l-0.6-0.4l0.2-0.1l-0.3-0.3v-0.3l-0.4-0.1l-0.2,0.3l-0.2-0.3V47l0,0l0.2-0.1l-0.5-0.1l-0.5,0.3v0.4l-0.1,0.2l0.2,0.4l0.6,0.4
	l0.4,0.6l0.7,0.6h0.5l0.2,0.2l-0.2,0.2c0.4,0.2,0.7,0.4,1.1,0.4l0.6,0.4l0.1,0.2l-0.1,0.3l-0.4-0.5l-0.6-0.1l-0.3,0.4l0.5,0.3
	L49,51.9h-0.3l-0.3,0.6l-0.3,0.1c0-0.1,0-0.2,0-0.2l0.2-0.4l0.2-0.2c-0.2-0.3-0.4-0.5-0.4-0.8l-0.3-0.1l-0.2-0.4l-0.5,0l-0.7-0.3
	l-0.5-0.1l-0.5-0.4l-0.6-0.5l-0.4-0.4l-0.2-0.7L43.8,48l-0.5-0.3l-0.1,0.1l-0.4,0.3h-0.3l-0.7,0.4l-1.3-0.4l-1,0.1l-0.2,0.4V49
	l-0.8,0.4h-0.9l-0.1,0.3L37.1,50l-0.4,0.5l0.2,0.4l-0.4,0.2l-0.2,0.4h-0.5L35.1,52c-0.5-0.1-1-0.2-1.5-0.4l-0.4,0.2L32.9,52
	l-0.4-0.2l-0.2-0.3l-0.1-0.4l-0.7-0.2L31.2,51l-0.4-0.2h-0.3l0.2-0.5v-0.4l-0.2-0.2l-0.1-0.3l0.2-0.4l0.3-0.2l0.1-0.3l0.3-0.4
	l0.1-0.3l-0.2-0.3v-0.3l0.2-0.4l-0.2-0.4l1-0.3l0.7,0.4l0.8,0.2l0.6,0.3l0.5,0.1l1.1,0.3l0.4-0.4l0.4-1.3l-0.5-0.9l-0.4-0.4L34.9,44
	l0.1-0.5h0.8l1,0.4v-0.8l0.5,0.4l1.5-0.3l0.3-0.5c0.4,0,0.7-0.1,1.1-0.1l0.4-0.2l0.7-1l0.9-0.2l0.5,0.1l0.1-0.2h0.7l0.1,0.2L44,41
	l-0.1-0.3v-0.4l-0.2-0.4l0.1-0.7l0.1-0.2l0.2-0.2h0.5l0.2-0.2l0.4-0.2l-0.1,0.4L44.9,39l0.1,0.2l0.3,0.1l-0.2,0.3l-0.2-0.1l-0.4,0.3
	l0.1,0.4v0.3l0.5,0.2V41l0.6-0.1l0.4-0.2l0.6,0.3l0.3,0.3l0.4-0.2c0.5-0.2,1.1-0.4,1.6-0.5l0.5,0.1l0.1,0.2h0.5l0.1-0.3l0.8-0.3
	l0-0.8V39l0.3-0.4l0.5-0.3l0.4,0.5h0.4c0-0.4,0.1-0.6,0.1-1l-0.2,0.1l-0.4-0.3L52,37.2l0.6-0.3l0.6-0.2l0.5,0.1l0.5-0.1l0.5-0.4
	L54.1,36l-0.6,0.3l-0.9,0.4l-0.8,0.2l-0.3-0.5L51,36.2l0.1-0.7l-0.3-0.6l0.2-0.4l0.4-0.4l1.1-0.8l0.3-0.2l-0.1-0.3l-0.5-0.2
	l-0.8,0.3L51,33.3l0.1,0.4l-0.7,0.5l-0.9,0.6l-0.4,1l0.4,0.4l0.5,0.4l-0.5,0.9L49,37.7l-0.5,1.2l-0.4,0.6l-0.7-0.1L47,39.9h-0.6
	l-0.2-0.7l-0.3-0.7l-0.4-1l-0.4-0.4l-1.2,0.7l-0.7,0.1l-0.7-0.4l0-0.9l0.1-1.6l0.5-0.4l1.4-0.4l1.1-0.6c0.7-0.7,1.4-1.4,2.2-2.2
	c0.7-0.4,1.3-0.9,2-1.3l0.9-0.4h0.7l0.6-0.6h0.7l0.7-0.2l1.3,0.4l-0.4,0.2l0.5,0.4l0.4-0.3l0.8,0.3l1.2-0.1l1.8,0.4l0.5,0.3l0.2,0.4
	l-0.4,0.4l-0.6,0.4c-0.6,0-1.4-0.1-2.1-0.2l-0.3,0.2l0.8,0.4l0.3,1l0.6,0.1l0.4,0.1v-0.4L58,32.6l0.3-0.3l1.2,0.2l0.4-0.3l-0.4-0.3
	l0.8-0.9l0.4-0.1l0.4,0.1l0.1-0.5l-0.4-0.3v-0.4l-0.6-0.3l1.2-0.1l0.4,0.3L61.4,30l0.2,0.4l0.4,0.1l0.5-0.4l-0.1-0.4l0.6-0.5l1-1
	l0.3-0.1L64,28.5l0.4-0.1l0.1-0.3l0.6-0.3l0.4-0.4l0.6,0.2l0.1-0.5l-0.5-0.2v-0.3l1.1-0.4l0.5-0.1h1.5l-0.1-0.4l-0.5-0.1v-0.3
	l-0.4,0.2l-0.1-0.4l-0.5-0.4L67,24.5l0.1-0.8l-0.3-0.6l0.1-0.3l0.7-0.4l0.4,0.3l0.2,0.6h0.3l0.4,0.3l0.6,0.8l0.5,0.1l0.2,0.4
	l0.2,1.2l0.4-0.2l-0.1-0.3l0.2-0.4l-0.2-0.4v-0.4l-0.4,0.1l-0.2-0.4l-0.3,0.2l-0.3-0.4l-0.3-0.7L68.5,23l0.1-0.7h-0.4l0.1-0.1
	l0.4,0.2l0.4,0.5l0.4-0.1l-0.4-0.3l0.2-0.5l0.4-0.4l0.6-0.1l-0.6-0.2l-0.6-0.4l0.2-0.4l0.4-0.4l0.3-0.5l-0.4-0.1L69.3,19l0.2-0.3
	l-0.1-0.6l0.2-0.6l-0.2-0.2l0.2-0.5l0.2-0.1l-0.2-0.6l-0.1-0.6l-0.3-0.2l-0.3-0.4l-0.2-0.6L69,14l0.2,0.4l0.1-0.4l0.4,0.1l-0.2-0.3
	v-0.6l0.3-0.4l0.2-0.1l0.4,0.2l0.3,0.3l0.4,0.7l0.2,0.3l0.1-0.3l0.1-0.3l-0.2-0.3l0.4,0.1l-0.2-0.2l-0.2-0.4l-0.1-0.6l0.3,0.1
	L71,11.5l-0.5-0.1L70.3,11l-0.2-0.3l0.1-0.3h0.3l0.4,0.3l0.3-0.1v-0.3l-0.7-0.4V9.6l-0.4-0.4l-0.4-0.4l-0.3-0.2l-0.3-0.3h-0.4
	L68.2,8c-0.5-0.5-0.5-0.5-1.9-1.5l0,0l-0.4-0.4c-9.8-4.2-21-4.7-31.2-1.4l0,0l0.6-0.2c-0.4,0.3-0.9,0.4-1.4,0.6l-0.8,0.4
	c-0.3,0.1-0.5,0.3-0.9,0.4l0.3-0.2l0,0l0.4-0.4L33,5.2c-0.1,0.1-0.3,0.1-0.4,0.2l0.1,0.1v0.1L32.3,6l-0.4,0.2h-0.2l-0.5,0.3
	l-0.6,0.3V7l-0.4,0.2l-0.7,0.2h0.1l0.7-0.3l-0.1,0.2c-0.3,0.2-0.5,0.3-0.8,0.4C29,7.8,28.7,8,28.3,8.1C27.9,8.4,27.4,8.6,27,9
	l-0.2,0.1l0.4-0.4l-0.4,0.2h-0.1c0.4-0.3,0.7-0.5,1.1-0.8l0.1-0.2l0.4-0.4c0.3-0.2,0.5-0.4,0.9-0.6c-0.3,0.1-0.5,0.3-0.8,0.4h-0.1
	l-0.1,0.2l-0.5,0.3l-0.2,0.1l0.4-0.3v0.1L27.6,8l-0.1,0.2c-0.3,0.2-0.5,0.4-0.8,0.5l-0.2,0.1l-0.6,0.4l-0.3,0.4L25.2,10l0.4-0.2
	L25.5,10L25,10.5l-0.5,0.1h0.3l-0.2,0.2l0.4-0.1c0.4-0.3,0.6-0.4,1-0.7l0.6-0.2l0.3,0.2l-0.3,0.4l-0.4,0.3l-0.8,0.5l-0.2-0.1
	l-0.4,0.5l-0.5,0.3l0.3,0.2l-0.5,0.4l-0.4,0l-0.5,0.4l0.3,0.1h0.4l0.6-0.3c-0.1,0.3-0.3,0.5-0.4,0.8l-0.4,0.4l-0.2,0.3h-0.3
	l-0.4,0.4l-0.3,0.1l-0.4-0.4l0.1-0.4l0.3-0.4l-0.3,0.1h-0.4h-0.2l-0.1-0.1l0.2-0.4L21.6,13l-0.4,0.2l0.1-0.3l-0.2-0.1h-0.4l-0.4,0.1
	l-0.5,0.3l-0.3,0.5c-0.4,0.3-0.7,0.5-1,0.8l-0.2,0.4c-0.4,0.5-0.8,1.1-1.3,1.5c-0.2,0.4-0.4,0.6-0.6,1c-0.1,0.4-0.3,0.6-0.4,1
	l-0.4,0.3l-0.4,0.4l-0.6,0.7l-0.5,0.9l0.1,0.1l0.4-0.3l0.8-0.8l0.3-0.4l0.1,0.4l0.3,0.1l0.4-0.1l0.4-0.3l0.4-0.5l0.4-0.6h0.5
	l0.5-0.4l0.9-0.6l0.1,0.1l-0.2,0.4v0.4l0.2,0.2c-0.2,0.4-0.4,0.6-0.5,1l-0.4,0.1V20l-0.4,0.4L17.8,21l-0.1,0.4l-0.3,0.4l0.4,0.2
	l0.6-0.2h0.3c-0.5,0.8-1,1.6-1.4,2.5l-0.5,0.2l-0.1,0.7l-0.2,0.5l0.1,0.6l-0.1,0.4l-0.4,0.5l0.1,0.3l-0.1,0.4l-0.4,0.6h-0.3l0,0
	l-0.2-0.2l-0.4-0.4h-0.5L14,27.5l-0.2-0.8l-0.1-0.5l-0.1-0.4l-0.4,0.1l-0.3-0.3l-0.6,0.1h-0.4L12,26l0.6-0.1l0.5,0.4l0.2,0.4
	l-0.2,0.5h-0.4c-0.3,0.4-0.5,0.7-0.7,1.2l-0.1,0.7l0.3,0.5l0.6-0.3l-0.3,0.6l-0.1,0.4L12,30.2l-0.5-0.4l-0.3-0.2h-0.4v-0.4l0.4-0.4
	l0.4,0.2l-0.1-0.6L11.4,28l-0.1,0.3L11,28.1l-0.3-0.2l-0.2-0.3l-0.3,0.1h-0.1L9.9,28l-0.1,0.5v0.2l0.2-0.3l-0.1,0.3l-0.1,0.1
	l-0.1-0.2v-0.2l-0.1-0.2c0-0.1,0-0.3-0.1-0.4l0-0.1l0.1,0.4l-0.1,0.3L9.4,28v-0.3l0,0H9.3v0.2L9,28.2l-0.3,0.1l0.1-0.2V28l0.1-0.3
	l-0.2,0.4l-0.1,0.2l-0.1,0.2l0,0.1l-0.3,0.2v-0.1l0.2-0.3L8.6,28l0.3-0.4l-0.2,0.2l-0.3,0.4l0.1-0.4l-0.2,0.4l-0.4,0.5v0.2
	c-0.2,0.3-0.3,0.5-0.4,0.8l-0.2,0.1v-0.3H7.1l0,0c-1.8,4-3,8.4-3.4,12.9v0.1l0,0c-0.2,2.6-0.3,5-0.2,7.3c0.1,0.2,0.1,0.4,0.2,0.6
	l-0.1-0.3v0.4l0.1,0.4l0.1,0.6V52l0.1,0.2c0.1,0.5,0.2,1,0.3,1.5v0.4l0.2,0.4c0.1,0.3,0.1,0.6,0.2,0.9L4.9,56v-0.1l0.2,0.3
	c0.2,0.4,0.4,0.9,0.5,1.3l0.3,1L6,58.9L6.1,59c0.2,0.6,0.3,1.2,0.4,1.8l0.2,0.3l0.1,0.4l-0.3,0.1l0.1,0.3l0.5,0.8l0.1,0.6l0.2-0.1
	c0.4,0.5,0.7,1.2,1.1,1.7l0.3,0.5v0.3L9.2,66l0.8,1.1l0.6,0.5c0.4,0.7,1,1.3,1.3,2.1l0.4,0.4l0.4,0.4l0.2,0.3
	c0.2,0.4,0.3,0.8,0.4,1.2l0.1,0.7l-0.1,0.2l-0.4,0.2l-0.1,0.4v0.2l-0.1-0.2v0.3c0.3,0.6,0.5,1.3,0.8,1.8v0.1l0.1,0.3
	c6,7.4,14.3,12.8,23.5,15.1c8.8,2.3,18.3,1.9,26.8-1.3C79.7,84,91.3,69.5,93.2,52.7C93.4,51.2,93.4,49.7,93.4,48.1L93.4,48.1z
	 M45.6,52.4l0.8,0.1c0.4,0,0.8-0.1,1.3-0.1l-0.3,0.5l0.1,0.2l-0.2,0.4l-0.5-0.3l-0.4-0.1l-1-0.4L45.6,52.4z M62.2,25.9l0.4-0.7
	l-0.4,0.1l0.3-0.8l-0.3-0.3c0.4-0.4,0.7-0.9,1.1-1.3l0.7-0.5l0.3-0.4l0.4-0.4l0.4,0.1V22c-0.4,0.5-0.8,1-1.2,1.5l-0.4,1l-0.1,0.7
	L63.3,26l0.4,0.4l0.8,0.1l-0.2,0.2l-1.2,0.4l-0.3-0.3l-0.6,0.1l-0.3-0.3l0.3-0.3L62.2,25.9z M15.4,28.9c-0.3,0.1-0.5,0.3-0.9,0.4
	h0.3v0.4l-0.2,0.1l0.1,0.4h0.2l0.1,0.5L14.6,31l0.2,0.2l-0.2,0.3l-0.2,0.4L14,32.2l-0.1-0.1l-0.1-0.4l0.4-0.4v-0.2l-0.5,0.1
	l-0.2-0.1h0.4l-0.1-0.4l-0.2-0.4l-0.3-0.7l0.1-0.2h0.3l0.1-0.3h0.4l0.9-0.4l0.4-0.1l0.3,0.1l0.1,0.2L15.4,28.9z M32.2,31.1h-0.4
	c-0.4-0.4-1-0.6-1.4-1l0.5-0.1l-0.6-0.7l0.7,0.2l0.1-0.2l-0.6-0.5l0.4-0.3l0.6,0.2l0.4,0.7l0.8-0.1l0.4,0.4l0.8-0.1l0.6,0.3
	l-0.4,0.4l0.3,0.6l-0.8,0.3C33.1,31.2,32.7,31.2,32.2,31.1z M33.4,40.6l-0.7-0.4l0.6-0.5l-0.1-0.8c0.4-0.2,0.9-0.4,1.4-0.5l0.4,0.1
	l0.4,0.5L35,39.4l-0.1,0.5l-0.4,0.6L33.4,40.6z M39.4,41.7L39,41.9l0.2,0.4l-0.6,0.2l-0.8-0.2h-1.1l-0.3-0.2L36,42.4l-0.5-0.3
	l-0.4,0.2l-0.3-0.2l1.1-0.5h0.5l-0.9-0.4l-0.1-0.4l0.6-0.1l-0.2-0.4l0.3-0.4l0.8,0.3l0.2-0.4l-0.3-0.5L36.2,39l-0.1-0.2l0.3-0.3
	l-0.1-0.3l-0.5,0.3l0.2-0.6l-0.2-0.4l0.4-0.6l0.5-0.4l0.4,0.2l0.6,0.1l-0.8,0.6h0.6l0.6,0.1L37.8,38l-0.6,0.5l0.5,0.2l0.4,1l0.4,0.2
	l0.2,0.9l0.1,0.3l0.7,0.3L39.4,41.7z M30.8,7.4L30.8,7.4l0.6-0.5l0.4-0.4l0.4-0.3h0.2L32,6.5c0.3-0.2,0.7-0.4,1.1-0.7l0.4-0.2
	l0.1,0.2l-0.1,0.1c-0.5,0.3-1,0.5-1.5,0.7l-0.4,0.3l0.8-0.3v0.1l-0.3,0.2C31.9,7,31.7,7,31.5,7.1l-0.1,0.2l-0.3,0.2L30.8,7.4
	L30.8,7.4L30.8,7.4L30.8,7.4z M32.5,10.3l-0.1,0.2l-0.3,0.2h0.4l0.1,0.2v0.3l-0.1,0.3l-0.1,0.1l0.1,0.4c0,0.3,0,0.4,0,0.7
	s0,0.5,0,0.8l-0.1,0.6l-0.2,0.1l-0.4-0.3l-0.3-0.2l-0.1-0.1l0.1,0.4l-0.4-0.3l-0.3-0.2l-0.5-0.1L30.2,13l-0.1-0.1v-0.5L30,12.7
	l-0.1-0.1l-0.4,0.3l-0.2-0.1l-0.1-0.3h-0.3l-0.2-0.2l-0.3,0.1v0.4l-0.2,0.1l-0.3-0.4l0.4-0.6l0.1-0.5c0.2-0.3,0.3-0.4,0.4-0.7
	l0.3-0.1L29,11l0.5-0.3v0.1L29,11.4l0.5-0.4l0.3-0.4l0.2,0.1V11h0.2l0.4-0.4l0.4-0.2l-0.3,0.5l-0.1,0.2l0.2,0.2l0.2-0.4l0.2-0.6
	l0.4-0.4L32,9.7l0.4-0.1l0.3-0.1v0.3l-0.2,0l-0.2,0.3L32.5,10.3z M30.8,9.3H31l0.1,0.1L31.4,9l0.4-0.2l0.4-0.2l0.2,0.1l0.1,0.1
	L32.4,9l0.2-0.1l-0.3,0.4l-0.4,0.3c-0.2,0.2-0.4,0.4-0.5,0.6l-0.7,0.3l-0.3,0.3l-0.1-0.2L30,10.3l0.2-0.4l0.4-0.4L30.8,9.3z M30.6,9
	l0.1-0.3L31,8.5l0.3-0.1l0.3-0.1l-0.2,0.3l-0.1,0.1L30.9,9H30.6L30.6,9z M29.9,9.4l-0.4,0.3l-0.3,0.4l-0.3,0.3h-0.2l-0.2,0.2
	l-0.2,0.2c-0.1,0.2-0.3,0.4-0.4,0.6v0.3l-0.2,0.4l-0.2,0.4l-0.3,0.4l-0.3,0.2L26.7,13v-0.5l0.2-0.3l0.2-0.6l0.2-0.4l0.3-0.4l0.5-0.6
	l0.4-0.2l0.4-0.1l0.4-0.3l0.4-0.4l0.4-0.3h0.2L29.9,9.4z M31.9,8.1l-0.4,0.1l-0.3,0.1L31.6,8L32,7.7l0.4-0.4v0.2l0.4-0.2h0.3
	C32.6,7.6,32.2,7.9,31.9,8.1z M29.4,8.7l0.3-0.2l0.4-0.1l0.3-0.3l0.4-0.2l-0.3,0.3l-0.1,0.3l-0.3,0.3h0.1l-0.4,0.1L29.5,9
	c-0.1,0-0.3,0-0.4,0L29.4,8.7z M27.2,9.5l0.3-0.2c0.4-0.3,0.8-0.5,1.3-0.8H29l-0.4,0.4l0.5-0.3v0.2l-0.4,0.3l-0.3,0.4l-0.2,0.1
	l-0.1-0.1l-0.6,0.3l-0.4-0.1L27.2,9.5z M27.1,9.9l0.6-0.3L28,9.5l0.2,0.1v0.2l-0.4,0.4l-0.3,0.5l-0.4-0.2l0.1-0.3l-0.3-0.1L27.1,9.9
	z M20.6,15.3l0.3-0.3l-0.2-0.1l-0.1-0.4l0.4-0.3l0.1-0.4l0.2,0.1l0.4-0.2l0.4-0.2L22,13.7l-0.3,0.2V14l-0.2,0.5
	c-0.2,0.3-0.4,0.5-0.5,0.8l-0.3,0.2v0.2L20.4,16l-0.1-0.2L20.6,15.3z M21.8,18.4l-0.3,0.2l-0.3,0.5l-0.3,0.5l-0.1,0.2l-0.5,0.5
	l-0.4,0.2l0.1-0.4l0.4-1c-0.3,0.4-0.4,0.8-0.7,1.3l-0.2,0.1l0.1-0.9l0.3-0.8l0.3-0.5h0.2c0.2-0.4,0.4-0.8,0.5-1.2l-0.2,0.1v-0.7
	l0.3-0.4l0.4-0.1l-0.1,0.5V17l0.2-0.2l0.3-0.1h0.5l0.3-0.2l0.2-0.2l0.3-0.5l0.3-0.6l0.1,0.1l0.4-0.4l0.1-0.3l0.3-0.3l0.1-0.2v-0.4
	l0.4-1c0.3-0.4,0.4-0.7,0.6-1l0.3-0.3l0.2,0.2l0.2-0.4l0.6-0.3h0.4l0.1,0.2l-0.1,0.5h-0.6L26.1,12h0.4l0.1,0.4L25.9,13l-0.4,0.1
	l0.1,0.4l0.2,0.1l-0.4,0.6l-0.3,0.4l-0.3,0.3l0.2,0.4l-0.4,0.4l-0.2,0.7l-0.2,0.4l-0.5,0.5L23.3,17L23,17.8v0.4l-0.4,0.7l0.1,0.4
	l-0.4,0.2l0,0h-0.8l0.2-0.5l0.4-0.8L21.8,18.4z M21.8,27.5v-0.8l-0.4-0.5l0.1-0.5l0.4-0.6l0.4-1.1l0.3-0.4l0.4-0.4l0.3-0.8l0.4-0.3
	l0.1-0.4l0.8-0.3l0.4,0.2l0.3-0.1l0.4-0.3l-0.4-0.1L25.1,21l-0.2-0.2v-0.4l0.4-0.3l0.4-0.2l0.2,0.2l0.2,0.5c0.1-0.4,0.1-0.6,0.2-1
	l-0.2-0.2v-0.3l0.7-0.2l0.2-0.3c0.3-0.4,0.5-0.7,0.8-1.1l0.1-0.4l0.3-0.2l0.2-0.7l-0.1-0.4c-0.1-0.4-0.2-0.6-0.3-1l0.2-0.4l0.4-0.5
	l0.3,0.4l0.1,0.4l0.1-0.9l0.3-0.5l0.3-0.1l0.4,0.6l0.4,0.5h0l0.2-0.6l0.3,0.1l0.6,0.4l0.2,0.2l0.3-0.2l0.4,0.3l0.4,0.4l0.3,0.4
	l-0.1,0.3l0.6,0.2l0.1,0.5l0.1,0.3L34,17v-0.5l0.3-0.2l0.8,0.3l0.4,0.5h0.4c0.7,0.4,1.3,1,2,1.4c0.3,0.4,0.6,0.7,1,1.1h-0.5
	c-0.6-0.4-1.3-0.6-2-1v0.2l0.7,0.4l0.4,0.5l0.5,0.1v0.3l-0.5,0.2l0.7,0.1c0.4,0.1,0.9,0.2,1.3,0.3l0.7,0.4v0.3h-1.3l0,0l-0.3,0.1
	l-0.9-0.3l0.5,0.3l-0.6,0.3l-0.4,0.3l-0.4,0.6l0.1,0.5L36.5,23h-0.6l0.3,0.5L35.9,24l-0.4-0.1l0.1,0.6l-0.7-0.3l0.2,0.4l-0.3,0.2
	l-0.4-0.1L34,24.5l0.1,0.5l-0.2,0.3l-0.4-0.5l-0.3,0.1l0.3,0.4l0.2,0.5l-0.2,0.4L32.9,26c-0.1-0.3-0.2-0.5-0.3-0.9l-0.2,0.4
	l-0.5,0.1c0.4,0.3,0.8,0.4,1.3,0.7l-1.3,0.1h-1.2L29.6,26l-0.4-0.2h-0.7l-0.9,0.3L26.7,26l-0.2-0.1c-0.4-0.1-0.6-0.3-1-0.4l-0.4,0.2
	l-0.4,0.4l-0.4,0.3h-0.8l-0.3,0.5c-0.4,0.3-0.7,0.4-1.1,0.7L21.8,27.5z M71.3,81.8L71.1,82L71,81.8L70.8,82v0.3l0,0.2l-0.2,0.2
	l-0.2,0.4c-0.7,0.9-1.4,1.7-2.2,2.5L67.8,86c-0.4,0.2-0.7,0.4-1.1,0.5c-0.3,0-0.4,0-0.7,0l-0.1-0.1l0.1-0.3l-0.1-0.2l0.1-0.3
	l0.2-0.3l0.3-0.2l0.1-0.1l0.4-0.4l0.2-0.3L67,84.1v-0.2l0.1-0.4l0.3-0.3l0.2-0.3l0.4-0.1c0.2-0.1,0.4-0.2,0.6-0.4l0.3-0.1
	c0.4-0.3,0.7-0.5,1.1-0.8l0.3-0.3v0.3h0.3l0.4-0.4l0.1-0.3l0.3-0.3l0.2,0.1l0.1,0.1l0.1,0.3l-0.3,0.4l0.1,0.2L71.3,81.8z M89.5,59.9
	l-0.2,0.4l-0.4,0.5l-0.1-0.3l-0.1-0.8l0.2-1.3l0.3,0.1l0.2,0.3l0.2,0.4L89.5,59.9L89.5,59.9z"/>
</svg>
