<?xml version="1.0" encoding="utf-8"?>
<!-- Generator: Adobe Illustrator 24.1.1, SVG Export Plug-In . SVG Version: 6.00 Build 0)  -->
<svg version="1.1" id="Layer_1" xmlns="http://www.w3.org/2000/svg" xmlns:xlink="http://www.w3.org/1999/xlink" x="0px" y="0px"
	 viewBox="0 0 94.9 95" style="enable-background:new 0 0 94.9 95;" xml:space="preserve">
<path d="M82.8,19.5c-0.1-0.1-0.2-0.2-0.3-0.3l0.2,0.2L82.8,19.5z M92.4,50.7v-0.4v-0.2V50l0,0l0,0v-0.2v-0.1l0,0h-0.1l-0.1,0.1v-0.1
	v-0.1h-0.1c0-0.2-0.1-0.4-0.1-0.5v-0.3l-0.1-0.3h-0.1l0.1-0.3c0-0.4,0-0.7,0-1.1l-0.1-0.3v-0.4l-0.3-0.8c-0.1-0.3-0.1-0.6-0.2-0.8
	v-0.3l-0.1-0.2l-0.1-0.1c0-0.2-0.1-0.4-0.1-0.6v-0.3v-0.5l-0.1-0.2c-0.1-0.4-0.1-0.8-0.1-1.2v-0.2l-0.1-0.5l-0.2-0.3l-0.1-0.5v-0.5
	l-0.2-0.9V38v-0.4c-0.1-0.4-0.1-0.7-0.1-1.1l-0.2-0.8l-0.3-0.6c-0.1-0.3-0.2-0.7-0.4-1L89,33.5c-0.1-0.4-0.1-0.8-0.2-1.2
	c-0.2-0.4-0.3-0.9-0.5-1.3v-0.3h0.1l-0.1-0.4V30v-0.2l-0.2-0.7L88,28.5c-0.3-0.8-0.6-1.7-0.9-2.5v-0.1l-0.2-0.3
	C86,24,85.1,22.5,84,21.1l-0.3-0.3l0.1,0.1V21c0.1,0.2,0.3,0.4,0.4,0.6c0.1,0.3,0.3,0.5,0.5,0.8l0.2,0.6l0.3,0.7
	c0.1,0.2,0.3,0.4,0.5,0.6l0.4,0.7l0.2,0.6l0.1,0.2c0.2,0.4,0.4,0.7,0.6,1.1l0.2,0.1l0.2,0.5l0.2,0.4l0.1,0.4L88,29
	c0,0.3,0.1,0.6,0.1,0.9c0.1,0.3,0.2,0.5,0.3,0.8v0.1h-0.1l-0.4-0.3l-0.1,0.3l0.1,0.3l-0.1,0.1v0.3L87.5,31l-0.2-0.3v0.1l-0.1-0.1
	L87,30.3L86.9,30c-0.1-0.2-0.2-0.4-0.4-0.6l-0.2-0.2l-0.1-0.1l-0.1-0.2l-0.2-0.4l-0.2-0.1l-0.3-0.9l0.1-0.4v-0.5v-0.3
	c0-0.3-0.1-0.6-0.1-0.9l-0.3-0.5l-0.8-1l-0.4-0.1h-0.2l-0.1,0.4l-0.3-0.3l-0.1-0.6v-0.5l-0.4-0.3l0.1-0.1l-0.5-1.2L82,20.7
	c-0.1-0.2-0.2-0.5-0.3-0.7l-0.2-0.3l-0.8-0.9l-0.4-0.6l-0.1-0.3l-0.1-0.1l-0.2-0.3H80l-0.3-0.4h-0.2l-0.3-0.2L79,16.8l-0.4-0.3
	c-0.1-0.1-0.2-0.2-0.3-0.3l-0.2-0.3l-0.2-0.2l-0.3-0.3l0.3,0.2l0.2,0.2l0.1,0.1v-0.1l0.2,0.2v0.1l0.5,0.5l0.2,0.1l0.2,0.1l-0.1-0.2
	l0.2,0.1l-0.3-0.4L78.9,16v-0.2l0,0c-0.4-0.5-0.8-0.9-1.3-1.4l-0.2-0.2l0.1,0.1L77.3,14l-0.2-0.2l-0.6-0.7c-0.5-0.3-1-0.7-1.5-1.1
	h0.1l-0.2-0.2c-0.2-0.1-0.5-0.3-0.7-0.4l0.3,0.1v0.1l-0.2-0.1c-0.3-0.2-0.6-0.5-0.9-0.7l-0.3-0.3l-0.3-0.3l-0.6-0.4l0.1,0.1
	c0.6,0.5,1.1,0.9,1.7,1.4h-0.1l0.1,0.2l-0.5-0.2l-0.3-0.1c-0.8-0.5-1.5-1-2.2-1.5l-0.2-0.1l0.1,0.2l0.5,0.4l0.6,0.4l0.3,0.1
	c0.5,0.4,1.1,0.8,1.6,1.2l0.9,0.5H75l0.1-0.1l0.7,0.5l0.3,0.3l0.9,0.6l0.6,0.5l0.2,0.3l0.5,0.4l0.2,0.4l-0.4-0.2L77.7,15l-0.6-0.2
	h-0.2l0.9,0.9l0.3,0.5l-0.2,0.3c-0.6-0.3-1.1-0.6-1.7-0.9l-0.4-0.5l-0.8-1l-0.8-0.8c-1.6-1.3-3.3-2.4-4.9-3.7L69,9.3l-0.7-0.4
	l-0.4-0.3l-0.5-0.4L67,7.7L67.4,8V7.9L67,7.7l-0.1-0.2L66.3,7l-0.6-0.5V6.4l0.2,0.1c0.4,0.2,0.8,0.4,1.2,0.6c0.3,0.2,0.7,0.5,1,0.7
	L68.4,8l-0.1-0.2L68.9,8c-0.1-0.1-0.3-0.2-0.4-0.3l-0.2-0.1v0.1l-0.4-0.2l-0.5-0.4C67.3,7,67.1,7,67,6.9h-0.1
	c-0.5-0.2-1-0.4-1.4-0.7l-0.1-0.1C65.2,6,65.1,6,64.9,5.9L65,6l-0.4-0.1V6l-0.8-0.4l0,0l0.5,0.2h0.2l0,0c-3-1.2-6.2-2.1-9.4-2.6
	h-0.3c-0.4,0-0.8-0.1-1.2-0.2l0,0c-0.3,0-0.5-0.1-0.8-0.1l0,0h-0.2h-0.1c-1-0.3-1.6-0.4-2.3-0.4v0.1c-0.7-0.1-1.5-0.1-2.3-0.1h0.3
	l-0.4,0.1h-0.4c-0.5,0.1-1,0.1-1.6,0.1h-0.1l-0.9,0.1h-0.3l-0.6,0.1L43.3,3v0.1l-0.2,0.1l-0.6,0.2L42,3.5l0.3-0.1l-0.7,0.1h-0.2
	h-0.2c-0.7,0.2-1.3,0.3-2,0.4l-0.1-0.1l0.2-0.1l0.6-0.2L40,3.4c-0.3,0.1-0.7,0.1-1,0.2l-0.2,0.1h-0.4v0.1c-0.5,0.2-1,0.3-1.4,0.5
	h-0.3l-1.2,0.5h0.3l-0.6,0.3l-0.4,0.2l-0.7,0.2h-0.5V5.4l-0.7,0.2l-0.6,0.3L32.6,6L32,6.3l-0.3,0.2l-0.6,0.3v0.1l-0.4,0.3L31.4,7
	v0.2c-0.7,0.5-0.7,0.5-2,1.6L28.9,9l-0.8,0.6l-0.5,0.9l-0.3,0.4L27,11.2l-0.5,0.1l-0.3,0.3v0.2l-0.1,0.4l-0.2,0.5v0.4l-0.6,0.6
	l0.2,0.2l0.4-0.4h0.3L26,14.3l0.1,0.5l-0.2,0.8l-0.2,0.5l0,0c-0.2,0.6-0.5,1.2-0.7,1.8l-0.4,0.2l-0.3,0.4l0.4-0.3l0.2,0.7l-0.3,0.9
	l-0.4-0.1l-0.3-0.4l-0.6,0.4h-0.2L23,19.4l0.1-0.3v-0.5l0.2-0.2v-0.3l-0.2-0.2l0.2-0.3l0.2-0.1l-0.2-0.2l0.1,0.2h-0.3l0,0l0,0
	l-0.3-0.2v-0.4l-0.3,0.6L22,18l-0.1,0.2l-0.2,0.2h-0.2v-0.6L21,17.3l-0.1-0.2l-0.4-0.2l-0.3-0.2L20,16.8l0.4-0.6l-0.3-0.5l0.2-0.2
	l-0.2-0.1l0.2-0.4L20,15.1h-0.4l-0.2,0.1l-0.3,0.3l-0.8,0.4l0.1-0.3L18,15.8l-0.3,0.3l-0.1-0.3l-0.5,0.3l0.1-0.4L16.7,16l-0.2-0.2
	c0.8-0.7,1.6-1.3,2.4-1.8l0.6-0.3l0.2,0.1l0.2-0.1l-0.1,0.4l0.5,0.1l0.4,0.2l0.3,0.2l0.8-0.2l0.1-0.3l-0.4,0.1l-0.4-0.4l0.8-0.6
	l0.1-0.6l-0.5-0.2L21,12.8l0.2-0.5l0.2-0.4l0.4-0.2l0.4-0.4v-0.2c0.5-0.5,1-1,1.4-1.5V9.3l0,0c-0.8,0.5-1.5,1-2.3,1.5l0,0L21.1,11
	C5.8,22.1-1,42.1,4.3,60.2c4.8,16.1,18.6,28.6,35.2,31.6c6,1.1,12.2,0.9,18.2-0.4l0.4-0.2l0.5-0.1l0.7-0.3H59L58.6,91h-0.3
	c0.4-0.2,0.7-0.4,1.1-0.6l0.4-0.2l0.1-0.2l0.2-0.2l0.2-0.1c0.5-0.3,0.9-0.6,1.4-0.9l0.6-0.4l0.2-0.4l0.3-0.3l0.2-0.3l0.6-0.5
	c0.6-0.8,1.1-1.5,1.7-2.3l0.2-0.6l0.1-0.5L65,83.4v-0.2l-1.2-0.1l-1.1-0.2l-0.5-0.2L62,82.5l0.1-0.2l-0.5-0.5L61.1,81l-0.5-0.9
	l-0.3-0.2l-0.2-0.3l-0.4-0.1l-0.5-0.1l0.3-0.3l-0.3-0.5l0.3-0.4l0.6-0.4l0.5-0.5l-0.1-0.2l-0.3,0.3l-0.4-0.2L60,77l-0.3-0.5l0.3-0.1
	l0.2-0.4l0.3-0.4v-0.2l0.4-0.2l0.5-0.3l-0.1-0.2l0.3-0.1v-0.3l0.2-0.2l0.4-0.1c0.2-0.3,0.4-0.5,0.7-0.8l-0.3-0.1l0.2-0.4l-0.1-0.6
	l0.2-0.2l-0.1-0.5l-0.3-0.3L62.3,71l-0.2-0.3l0.2-0.2h-0.2L62,70.3L61.5,70l-0.3,0.1L61,70.4l-0.3,0.2h-0.2l-0.1,0.1l0.4,0.3
	l-0.2,0.1l-0.1,0.2l-0.4,0.1L60,71l-0.1,0.1h-0.3l-0.1-0.2h-0.3L59,70.8c-0.1,0-0.2,0-0.3,0v0.1h-0.2l-0.4-0.1l-0.2-0.1l0.1-0.1
	v-0.1l-0.2-0.1l-0.3-0.2l-0.3-0.1v-0.2L57,69.8V70l-0.2,0.2L56.6,70h-0.3l-0.1-0.1v-0.2l0.1-0.2l-0.2-0.1l0.2-0.1
	c-0.2-0.2-0.4-0.3-0.6-0.4l-0.2-0.2l-0.3-0.2l-0.4-0.3l0.1-0.1l0.1,0.1l0.1-0.1L55,67.9h-0.2l-0.1,0.2h-0.5L53.9,68l-0.3-0.1h-0.5
	l-0.2-0.1l-0.4-0.3H52l-0.4-0.1l-0.4-0.3l-0.9-0.7l-0.4-0.2L49.2,66h-0.5L48,66.2l-0.4,0.1L47,66.1l-0.5-0.2l-0.7-0.4l-0.6-0.1
	L44.3,65l-0.6-0.4l-0.2-0.1l-0.4-0.1l-0.8-0.3L42,63.7l-0.8-0.5l-0.3-0.5l-0.2-0.4H41l-0.1-0.2l0.2-0.2v-0.2l-0.2-0.3v-0.3l-0.2-0.4
	l-0.6-0.8l-0.7-0.7l-0.3-0.5l-0.6-0.4l-0.1-0.2l0.2-0.4l-0.3-0.2l-0.4-0.4l-0.1-0.5l-0.5-0.1l-0.4-0.4l-0.3-0.4v-0.2l-0.3-0.6
	l-0.2-0.6l0.1-0.3l-0.4-0.4l-0.3-0.1l-0.4-0.3L35,53.5l0.1,0.4v0.5l0.2,0.3l0.4,0.6l0.1,0.2l0.1,0.1l0.1,0.3h0.1l0.1,0.5l0.2,0.2
	l0.1,0.3l0.4,0.4l0.2,0.7c0.1,0.2,0.2,0.5,0.3,0.7v0.4l0.3,0.1c0.2,0.2,0.3,0.5,0.5,0.7V60l-0.3,0.2h-0.1l-0.3-0.4l-0.4-0.5
	l-0.5-0.4l-0.3-0.2l0.1-0.5l-0.1-0.4c-0.3-0.2-0.5-0.5-0.8-0.7l-0.1,0.1L35.3,57l-0.4-0.3l-0.4-0.6h0.1l0.3,0.1l0.3-0.2l0.1-0.3
	l-0.5-0.6l-0.4-0.3c-0.2-0.6-0.4-1.1-0.6-1.7l-0.1-0.7V52l-0.4-0.5L33,51.3v-0.2L32.6,51l-0.1-0.3l-0.6-0.2l-0.1-0.2v-0.4L31.4,49
	l-0.3-1.1l0.1-0.2L31,47.4l-0.3-0.7l0.1-0.6l-0.3-0.5l0.3-0.5l0.2-0.6v-0.6l0.4-0.6l0.5-1.2l0.2-1v-0.6v-0.4l0.1-0.1l0.7,0.5
	l0.1,0.7l0.2-0.1l0.1-0.6v-0.6h-0.1l-0.8-1l-0.2-0.4l-0.8-0.6v-0.7l0.2-0.4l-0.5-0.5l0.2-0.6L31,35l0.1-0.3L31,34.4L30.7,34l0.2-0.6
	l-0.3-0.8l0.1-0.7c-0.3-0.2-0.7-0.4-1-0.5L29.4,31L29,30c-0.3-0.3-0.5-0.6-0.7-0.9l-0.5-0.2l-0.5-0.7l-0.2-0.5l-0.5-0.2l-0.3,0.4
	l-0.2-0.1l-0.5-0.1h-0.4l-0.3-0.2l0.2-0.4l0.6-0.4l0.5,0.1v-0.2h-0.6l-0.5,0.2h-0.7v0.4l-0.7,0.3h-0.5l-0.4-0.1l-0.3,0.1l-0.7-0.1
	l-0.3,0.1L21,27.4l-0.1-0.2c-0.3-0.1-0.5-0.2-0.8-0.2l-0.4-0.1l-0.5-0.4l0.1-0.1l0.5,0.1l0.4,0.1h0.5l0.3,0.3l0.3-0.1l0.6,0.1h0.2
	h0.4l0.4-0.4l0.4-0.2l-0.4-0.1V26h-0.3l0.1-0.4l-0.2,0.1l0.2-0.4l-0.4-0.1c0-0.1-0.1-0.1-0.1-0.2l0.3-0.3l0.2-0.1v-0.3l-0.4-0.2
	l0.1-0.5v-0.3l0.3-0.3l0.1-0.4l0.4-0.2l0.3,0.1l0.3-0.1l0.2,0.2v0.2h0.4l0.1,0.2h0.3l0.2-0.3v-0.2h0.4l-0.1-0.1L25,22.3h-0.2V22
	l-0.3-0.4l-0.1-0.5l0.2-0.3l0.1-0.6l0.5,0.2l0.6,0.3c0,0.1,0.1,0.1,0.1,0.2l-0.3,0.2l0.4,0.5l0.2-0.5v-0.5l0.2-0.4l0.1-0.4v-0.4
	l0.4-0.1l0.3,0.4l0.5,0.1l0.3-0.2h0.4l0.2,0.2l0.6,0.2l0.1,0.2l0.6,0.1l0.2,0.4L30,21h0.2l0.3,0.3l0,0.2l0.3,0.4l0.3,0.1l0.4,0.5
	l0.4,0.4l0.1,0.2l0.4,0.1l0.3,0.4c0.2,0.2,0.4,0.5,0.7,0.7l0.3,0.5L34,25l0.4-0.1h0.5l0.4,0.3h0.6l0.6,0.1l0.1,0.3h0.3l0.2-0.2
	l0.2,0.1l0.3,0.7l0.7-0.3l-0.2,0.5h0.5l0.2-0.1l0.4,0.2l0.4,0.4l0.8,0.5l0.5,0.2h0.4l0.4,0.4L41,28.2l0.7,0.3l1.1,0.1l0.4-0.1
	l0.4,0.5l0.5-0.3l-0.3-0.2l0.3-0.2h0.5h0.3l0.3,0.2l0.4,0.4h0.5l0.7,0.4l0.7-0.1l0.6,0.1v-0.4l0.4-0.1l0.7,0.3v0.6l0.3-0.5h0.4
	l0.2-0.7l-0.6-0.4L49,27.8v-0.7l0.5-0.5l0.5,0.1l0.4,0.3l0.6,0.7L50.6,28l0.8,0.1v0.7l0.5-0.5l0.6,0.4l-0.1,0.5l0.5,0.4l0.4-0.5
	l0.2-0.6l-0.1-0.7c0.4,0,0.8,0,1.2,0l0.6,0.3l0.1,0.3l-0.2,0.4l0.4,0.3v0.3L54.7,30l-0.6,0.2L53.6,30l-0.1,0.3l-0.4,0.6L53,31.2
	l-0.5,0.5l-0.7,0.1l-0.4,0.3v0.4l-0.6,0.1l-0.6,0.6L49.7,34l-0.2,0.5v0.8l0.8,0.1l0.3,0.7l0.3,0.5l0.8-0.2l1.1,0.3l0.6,0.2l0.4,0.3
	l0.7,0.1l0.6,0.2c0.5,0,1,0,1.5,0v0.6l0.3,0.7l0.5,0.7l1,0.6l0.4-0.3L59,39l-0.5-1.1L58,37.6l0.8-0.5l0.5-0.6l0.2-0.5v-0.1L59,35.4
	L58.3,35l0.4-0.8l-0.4-0.6l-0.4-1l0.3-0.2H59h0.5l0.3-0.2l0.5,0.1l0.7,0.3l0.2,0.2l0.8-0.1l0.2,0.6l0.4,0.8H63l0.5,0.3l0.5-0.6
	l0.1-0.9l0.2-0.4l0.6,0.5c0.6,0.4,1.2,0.8,1.7,1.3v0.5l0.7,0.2l0.6,0.2l0.8-0.1l0.4,0.1l0.4,0.3l0.4-0.1l0.3,0.2l0.4,0.7
	c-0.1,0.3-0.3,0.5-0.4,0.8l-0.7,0.6l-0.4,0.8l-0.8,0.4l-1.1,0.2l-0.7,0.2l-0.4,0.2l-0.3,0.6l-0.6,0.5l-0.5,1.1l-0.5,0.8l0.4-0.2
	l0.6-1.1l0.9-0.9l0.7-0.3l0.6,0.2l-0.3,0.6l0.4,0.7l0.3,0.5l0.8,0.1l0.8-0.4l0.2-1l0.2,0.5l0.4,0.1L69.7,42l-1,0.8l-0.2,0.5L68,44
	l-0.4,0.1l-0.2-0.6l0.8-0.9l-0.8,0.3l-0.6,0.3l0.2,0.2l-0.5,0.5L66,44.3l-0.5,0.4c-0.1,0.2-0.2,0.4-0.3,0.7l0.1,0.4l0.3,0.3h0.2
	l-0.3-0.4l0.2,0.1V46l-0.4,0.2L65,46.3l-0.3,0.2c-0.2,0.1-0.4,0.1-0.6,0.2L63.6,47l0.9-0.3l0.2,0.1l-0.8,0.4l-0.4,0.1v-0.1l-0.2,0.2
	h0.2v0.5l-0.4,0.6L63,48.3h-0.1l-0.2-0.1l0.2,0.4l0.2,0.1l0.1,0.3c-0.2,0.3-0.3,0.6-0.4,1h-0.1l0.1-0.5l-0.4-0.2l-0.2-0.6L62.1,49
	l0.2,0.4h-0.4l0.5,0.2l0.1,0.7h0.2l0.1,0.2l0.2,0.7l-0.3,0.6L62,52.1l-0.5,0.5l-0.3,0.1L60.9,53l-0.1,0.3l-0.7,0.6l-0.4,0.4
	l-0.3,0.5l-0.1,0.5l0.2,0.5l0.3,0.6l0.4,0.5v0.3l0.4,0.8v0.5v0.3l-0.2,0.5l-0.2,0.1h-0.4l-0.1-0.3L59.4,59c-0.3-0.4-0.5-0.7-0.8-1.1
	l-0.1-0.6l0.1-0.5l-0.2-0.3L57.8,56l-0.3-0.2l-0.7,0.4h-0.1l-0.4-0.3l-0.5-0.1L55,55.9h-0.7L53.7,56l-0.3,0.1l0.1,0.2v0.3l0.2,0.1
	l-0.2,0.1l-0.3-0.1l-0.3,0.1h-0.6l-0.6-0.4l-0.5,0.1l-0.6-0.2h-0.5l-0.6,0.3l-0.7,0.5L48,57.4l-0.4,0.3L47.4,58v0.5v0.3l0.1,0.2
	l-0.3,0.6L47,60.1L46.9,61l0,0.5l0.1,0.4l0.2,0.4l0.1,0.6l0.5,0.5l0.2,0.4l0.3,0.4l0.8,0.2l0.3,0.3l0.7-0.2l0.6-0.1
	c0.4-0.1,0.7-0.2,1.1-0.3l0.5-0.3l0.2-0.4l0.1-0.6l0.1-0.2l0.5-0.2l0.8-0.2h0.7l0.5-0.1l0.2,0.1v0.3L55,62.9l0,0.6l0.1,0.1
	c-0.1,0.3-0.2,0.6-0.3,0.9l-0.2-0.2h-0.2v0.1h0.2v0.2l-0.1,0.3l0.1,0.1l-0.1,0.3l0.1,0.1l-0.1,0.4L54.3,66h-0.1L54,66.2l0.3,0.1
	l0.1-0.1c0.1,0,0.2,0.1,0.3,0.1l0.2-0.1h0.2l0.1,0.1h0.1h0.4h0.4l0.3-0.1l0.1-0.1h0.3H57h0.2l0.2-0.1l0.4,0.1h0.1l0.2,0.1l0.2,0.1
	l0.3,0.1l0.2,0.2l-0.4-0.1v0.2l0.1,0.2l-0.2,0.3l-0.1,0.3v0.3V68v0.3l-0.1,0.1L58,68.5l0.1,0.2l-0.2,0.2v0.2l0.1,0.1l0.2,0.3
	l0.3,0.2c0.2,0.1,0.4,0.3,0.6,0.5v0.1h0.3l0.1-0.1l0.2,0.1l0.4-0.1l0.3-0.2l0.5-0.2l0.3-0.2h0.4v0.1H62l0.3,0.1l0.2,0.2l0.3,0.1h0.4
	l0.6-0.6l0.3-0.1v-0.2l0.1-0.6l0.4-0.4l0.5-0.1l0.1-0.1l0.6-0.1c0.3-0.2,0.6-0.5,0.8-0.7l0.3-0.4h0.3l0.2,0.1l-0.1,0.3v0.2l-0.4,0.2
	l0.2,0.3v0.3l-0.4,0.3L67,69l0.3-0.1l0.2-0.5l-0.2-0.2v-0.5l0.9-0.5l-0.1-0.3l0.2-0.3l0.3,0.4l0.5-0.1l0.4,0.3v0.2l0.6-0.2l0.7-0.3
	l0.4,0.2l0.5-0.1l0.4-0.3v-0.2c0.5-0.2,1-0.4,1.6-0.6l-0.5,0.4l0.2,0.2l0.5-0.1l0.5,0.1l0.1,0.5l0.3-0.1C75,67,75.2,67,75.4,67
	l0.4,0.3v0.3l0.2-0.1c0.2,0.1,0.4,0.2,0.5,0.3l0.7-0.2l0.1-0.1l0.5-0.3l0.6-0.1c0.2,0,0.4,0,0.6-0.1l0.5,0.2l0.1,0.2l0.2-0.1
	l0.1,0.3l0.2,0.9l0.3-0.1v0.4l-0.5,0.7l0.1,0.1l0.9-0.4l-0.1,0.6l0.5-0.6c0.4-0.1,0.9-0.2,1.3-0.3l0.2,0.2l-0.3,0.5l0.6-0.6l0.8-0.3
	l0.6-0.5H85l0.3,0.2l0.3-0.1l0.3-0.3H86c0,0.3-0.1,0.6-0.1,0.9l-0.4,1l0,0c-0.7,1.1-1.4,2.2-2.1,3.3l-0.1,0.1L83,73.8l-0.4,0.9
	c-0.2,0.4-0.5,0.8-0.7,1.2l-0.2,0.3l-0.4,0.7l-0.8,0.9l-0.4,0.5l-0.4,0.4L79.4,79c-0.6,0.4-1.1,0.8-1.6,1.3c-0.7,0.5-1.3,1.1-2,1.7
	l-0.3,0.3l-0.1,0.2c-0.2,0.2-0.4,0.4-0.6,0.6c-1,0.8-2.1,1.6-3.1,2.4c-0.3,0.2-0.6,0.4-0.9,0.6l-0.7,0.4l-0.3,0.1l-0.3,0.1l-0.3,0.1
	l-0.3,0.1h-0.1h-0.3h0.3l-0.3,0.2h0.1l-0.1,0.1l-0.8,0.5c-0.8,0.4-1.5,0.7-2.3,1l-0.1,0.1L65,89l-0.1,0.1c-0.3,0.1-0.6,0.2-0.9,0.4
	l-0.4,0l-0.3,0.1l-0.2,0.2l0,0c16.1-6,27.9-21,29.3-38.9L92.4,50.7z M64.5,62.1L64,62.2h-0.5l-1,0.3L63,62l-0.3-0.1h-0.5l-0.3-0.2
	l-0.2-0.4l-0.4,0.2l-0.7-0.1l-0.2-0.1h-1l-0.3-0.1l0.3-0.2h-0.7l-0.5,0.4h-0.3l-0.1,0.2l-0.4,0.1h-0.3l0.4-0.3l0.2-0.3l0.3-0.2
	l0.4-0.2l0.6-0.1l0.2-0.1c0.4,0,0.8,0,1.2-0.1l0.7,0.1l0.3,0.2l0.7-0.2c0.5,0.2,0.9,0.5,1.4,0.7l0.2-0.1l0.4,0.1v0.2l0.5-0.1
	l0.6,0.2l-0.1,0.2L64.5,62.1z M69,62.3l-0.3-0.1l-0.3,0.1h-0.2L68,62.5l-0.3,0.1l-0.1-0.1l-0.2,0.2l-0.3,0.5l-0.2-0.1v-0.2h-0.5
	L66.1,63h-0.4l-0.3,0.2L65,63.1l0.1-0.2c0.4,0,0.8-0.1,1.2-0.1l0.2-0.2l-0.3-0.2v-0.3h-0.5l0.1-0.2l0.4-0.1h0.6l0.1-0.1l0.5-0.1
	l0.4,0.1l0.2-0.1l0.1,0.2l0.4-0.1v0.2l0.3-0.1l0.3,0.2L69,62.3z M54.2,3.3L54.2,3.3c1.7,0.3,3.3,0.5,5,0.8h0.2L59,3.9
	c0.4,0.1,0.9,0.3,1.3,0.4l0,0l0.5,0.2h-0.1l-0.5,0H60l-0.9-0.2l0.2,0.1l-1-0.2h-0.1c-1-0.2-2-0.4-3-0.7c-0.3,0-0.7,0-1.1-0.1
	l-0.2-0.1H54.2z M51,20.4h0.3l0.5-0.1l0.3-0.2h0.3l0.3,0.1l0.1-0.3l0.3-0.1l0.4-0.1l0.7-0.1h0.2l0.6-0.2c0.7-0.1,1.4-0.3,2.1-0.4
	h0.5l0.1,0.1l-0.4,0.4l-0.5,0.3L56.7,20l0.5-0.1l-0.3,0.5l-0.2,0.1L56.5,21L56,21.2l-0.1,0.2l-0.8,0.2h0.4l-0.2,0.1l0.4,0.2
	l-0.2,0.4l-0.4,0.2L55,22.8L54.6,23l0.1,0.1l0.5-0.1l0.1,0.1l-0.7,0.5l-0.9-0.1l-1,0.2h-0.5h-0.7l0-0.2l0.6-0.2l-0.2-0.4l0.2-0.1
	L53,23l-0.5-0.4L52,22.5l0.2-0.3l0.5-0.2v-0.2l-0.5-0.2L52,21.3h0.8H53l0.4-0.3h-0.7l-1,0.1l-0.5-0.2l-0.3-0.2l-0.3-0.2l0,0L51,20.4
	z M49.3,21.2l0.2-0.2h0.3l-0.1-0.1h0.7l0.4,0.3c0.3,0.1,0.7,0.1,1,0.2l0.3,0.4l0.4,0.2l-0.4,0.2l-0.5,0.5L51,22.8l-0.7-0.1l-0.4-0.3
	v-0.2l0.2-0.2h-0.6l-0.3-0.2l-0.1-0.3L49.3,21.2z M48.9,22.3h0.2l0.4,0.2l-0.1,0.2l-0.5,0.1l-0.3-0.2l-0.1-0.1v-0.3L48.9,22.3z
	 M48.4,23.7L48.4,23.7l0.3,0.2v0.3l-0.2,0.5l0,0h-0.6l-0.4-0.1v-0.4h-0.6v-0.5h0.4l0.5-0.2L48.4,23.7z M46.5,21.8l0.6,0.1l0.8,0.3
	l0.2,0.3l0.1,0.3l-0.5-0.1l-0.6-0.2l-0.6-0.1l0.3-0.1L46.5,22V21.8z M42.6,23.1L43,23l0.8,0.4l0.5,0.5l0.6,0.1l-0.4-0.7l0.4-0.2
	l0.3,0.1v0.3l0.1,0.2l0.3-0.1l0.3,0.1V24l-0.3,0.3l-1.1,0l-0.9,0.1l-0.5-0.1v-0.2l0.8-0.1c-0.5-0.1-1-0.2-1.5-0.2L42,23.5L42.6,23.1
	z M40.1,25.6H39v-0.3l-0.6-0.6c0.3-0.2,0.5-0.4,0.7-0.6l0.5-0.3l-0.1-0.4l1.1,0.2l0.4,0.3l0.8,0.3l0.2,0.3l0.3,0.3l-0.5,0.1l0,0
	l-1,0.2l-0.6,0.3C40.1,25.4,40.1,25.5,40.1,25.6z M47.1,28.1h-0.7l0.2,0.3l-0.1,0.2l-0.7-0.2l-0.7-0.3h-0.5l-0.8,0.1
	c-0.6,0-1.2-0.1-1.8-0.2l-0.1-0.3l-0.4-0.3h-0.4l-0.3-0.6c0.3,0,0.6,0,0.9,0l0.5,0.1h0.5L42,26.6l-0.7-0.1l-0.5-0.1l-0.1-0.3h0.9
	L41,26l-0.5-0.4l0.5-0.4l0.3-0.2l1.1-0.2l0.3,0.2l-0.3,0.3h0.8l0.4,0.4l0.5-0.2l0.3,0.3l0.2,0.7l0.2-0.2l-0.1-0.8H45l0.3,0.2
	l0.4,0.3l0.1,0.6v0.5c0.4,0.3,0.9,0.5,1.3,0.8V28.1z M49,26.8L48.3,27l-0.4-0.1l-0.3-0.3L46.7,26v-0.2l0.8,0.1l-0.4-0.4l0.5-0.3
	l0.4,0.2h0.7l0.1,0.2l-0.3,0.3l0.6,0.3L49,26.8z M48.9,23.6l0.1-0.3l0.7,0.1l0.4,0.2h0.7l0.3,0.2L51,24l0.4,0.1l0.2,0.1
	c0.3,0,0.7,0,1,0l0.5-0.2l0.7-0.1h0.6l0.4,0.2l0.2,0.2l-0.2,0.2l-0.5,0.2h-0.5l-1,0.2L52.1,25l-0.6-0.1l-1-0.2l-0.1-0.2l-0.1-0.3
	l-0.4-0.3l-0.7-0.1L48.9,23.6z M50.8,26l-0.5,0.1l-0.4,0.5h-0.4L49.3,26v-0.3l0.2-0.3l0.4-0.2h0.8l0.7,0.1L50.8,26z M56.4,32
	l-0.8-0.1l-0.3-0.3L54.9,32l-0.6,0.4L54.1,32l-0.6,0.2l0.4-0.4v-0.5l0.1-0.6h0.3l0.1,0.3l0.2-0.1l0.3,0.1c0.4,0.1,0.7,0.2,1.1,0.3
	l0.1,0.3l0.3-0.1l0.4,0.2L56.4,32z M61.4,29.4l0.6,0.3l0.7,0.1l0.2,0.1l0.5,0.6l0.1,0.5h-0.6l-1.2-0.2c0.5,0.2,0.9,0.5,1.4,0.7
	l0.2,0.2l-1.2,0.1L61,31.5l-0.6-0.2l0.1-0.2c-0.5-0.1-1-0.3-1.5-0.4l0.1,0.2l-1.2,0.3L57.5,31l0-0.5l0.8-0.2l0.8-0.3l-0.2-0.2v-0.4
	l0.3-0.7l-0.1-0.2l-0.2-0.2l-0.7-0.2L57.3,28l0.2-0.2L57,27.5h-0.4l-0.4-0.2L56,27.5l-0.7,0.2h-1.5c-0.5-0.1-1-0.1-1.6-0.2l-0.4-0.2
	l0.4-0.3h-0.6l-0.1-0.5l0.2-0.6l0.4-0.3l0.9-0.2l-0.2,0.4l0.4,0.4l0.3-0.5l0.9-0.4l0.8,0.6l0.1,0.4L56,26l0.3-0.3l0.9,0.2l0.6,0.2
	l0.1,0.3l0.6-0.3l0.5,0.3h1l0.4,0.2l0.6,0.5l-0.6,0.4l1,0.2H62l0.8,0.4l0.6-0.2l0.1,0.5l-0.3,0.9l-0.6-0.1l-0.9-0.4L61.2,29
	L61.4,29.4z M70.2,29.4l-0.5-0.1l-0.6-0.5L68,28.4l-0.4-0.3l-0.4-0.5l-0.8-0.3l-0.2-0.5l-0.3-0.1l-0.2-0.8l0.3-0.4l-0.1-0.3
	l-0.3-0.5L65.5,25l-0.1,0.2l-0.2,0.2h-0.5L64.4,25l-0.1-0.4l0.3-0.1l0.7-0.1c-0.4-0.1-0.8-0.1-1.1-0.2L64,24.4h-0.3l-0.2-0.8
	l-0.3-0.1c-0.4-0.2-0.8-0.5-1.3-0.8l-0.5-0.1l-0.2-0.2l-0.9-0.1l-0.6,0.2c-0.5,0.2-0.9,0.3-1.4,0.5l-0.4-0.1l-0.7-0.2l0.7-0.4
	l0.5-0.2l-1.3,0.2l-0.8-0.1L56.2,22l0.9-0.5l0.8-0.5v-0.2h-0.8l0.1-0.3l0.6-0.6l0.3-0.2l-0.3-0.2l0.4-0.3l0.6-0.3l0.6-0.3l0.4,0.1
	l0.2-0.5l0.6-0.1l0.3-0.1l0.5-0.1h-0.7l-0.2-0.4l0.2-0.6l0.5-0.4v-0.3c0.4-0.5,0.8-0.9,1.2-1.3c0.3-0.1,0.7-0.4,1-0.5l0.1,0.4
	l-0.3,0.5c-0.1,0.2-0.3,0.5-0.5,0.7h0.2l0.3-0.5l0.5-0.3v-0.4H64l0.3,0.4l-0.1-0.5c0-0.2,0-0.6,0-0.8l0.2-0.4h0.3l0.3,0.8l0.1,0.2
	L65,15l0.2-0.3c0.3,0.3,0.5,0.5,0.8,0.8l0.7,0.4h0.5l-0.1,0.3l0.1,0.4l0.5-0.1l0.6,0.3V17l0.6,0.1l-0.1,0.4l0.4-0.1l0.2,0.2v0.3
	l-0.1,0.3h0.5l0.3,0.2l-0.6,0.3l0.1,0.2l0.3-0.2h0.5l0.5,0.3l-0.1,0.4c-0.3,0-0.5,0-0.8,0l0.4,0.2l0.2,0.5c0.2-0.3,0.4-0.5,0.6-0.8
	l0.2,0.9l0.1,0.9l-0.3,0.8L71,22.1v0.4l0.3,0.8l-0.1,0.8l-0.1,0.2l-0.2,0.4l-0.2,0.4l0.1,0.5l0.3,0.4l0.2,0.5l-0.1,0.8l0.5,0.4
	c0.2,0.4,0.3,0.8,0.5,1.2l-0.4,0.3L71,29L70.2,29.4z M73.1,39.6h-0.3L72.7,39h-0.2l-0.3,0.8l-0.3,0.1l0.2-0.5h-0.5l-0.5,0.3
	l-0.9,0.4l-0.1-0.2l0.2-0.4L70,39.4l0.2-0.6v-1.3l0.1-0.5l0.3-0.4l0.2-0.1v0.2c0,0.4-0.1,0.8-0.1,1.2l0.2-0.4h0.4l-0.1,0.3h0.5
	l0.1-0.3h0.5l0.1,0.5l0.3-0.3l0.2,0.3l0.3,0.3l0.1,0.7L73.1,39.6z M75.1,21.6l-0.5,0.5l-0.1-0.4L74,22l0.1-0.5l-0.2-0.1l-0.4,0.4
	l-0.3-0.5l0.1-0.4l0.6-0.1l-0.2-0.6L74,20l-0.2-0.6L74,19l0.4,0.3h0.5l0.4,0.6l0,0l0.1,1v0.3L75.1,21.6z M81.9,24.2l-0.5-0.7
	l-0.5-0.3c-0.2-0.4-0.4-0.8-0.6-1.2v-0.3l0.3-0.1l0.3,0.5l0.3,0.3l0.4,0.7l0.3,0.9L81.9,24.2z M82.7,23.6l-0.5-1l-0.1-0.4v0.5
	l-0.2-0.1l-0.2-0.5L81.5,22l-0.3-0.4v-0.4l-0.3-0.3h-0.3l-0.1,0.3h-0.1l-0.2-0.3h-0.1l0.2,0.4l-0.5-0.4l-0.3-0.1L79,20.3l-0.4-0.6
	v-0.2l-0.1-0.4l0.6,0.8L79,19.5v-0.3l0.4,0.4l0.5,0.6v-0.3l0.6,0.2v-0.2l0.5,0.3l0.2,0.1V20l0.3,0.3l0.2,0.3l0.2,0.1l0.3,0.5
	l0.1,0.5l0.2,0.7l-0.1,0.1l0.2,0.4v0.3L82.7,23.6L82.7,23.6z"/>
</svg>
