<?xml version="1.0" encoding="utf-8"?>
<!-- Generator: Adobe Illustrator 24.1.1, SVG Export Plug-In . SVG Version: 6.00 Build 0)  -->
<svg version="1.1" id="Layer_1" xmlns="http://www.w3.org/2000/svg" xmlns:xlink="http://www.w3.org/1999/xlink" x="0px" y="0px"
	 viewBox="0 0 95.1 95" style="enable-background:new 0 0 95.1 95;" xml:space="preserve">
<path d="M26.7,8.6l0.1-0.1L26.7,8.6l0.4-0.3c0.2-0.1,0.3-0.2,0.5-0.3c-0.4,0.2-0.8,0.4-1.2,0.6l-0.2,0.3l0.4-0.2L26.7,8.6z
	 M74.9,12.3c-0.2-0.1-0.5-0.2-0.7-0.4V12l0.4,0.3l0,0l-0.1,0.1v0.1l-0.1,0.1l-0.3-0.3l-0.5-0.4v-0.1l-0.2-0.1l0.1,0.2l0.2,0.3
	l0.1,0.3l0.4,0.2l0.2,0.3v0.2l-0.1,0.1l0.2,0.2l-0.1,0.2l0.2,0.2l-0.1,0.2L74.3,14l0.1,0.2l-0.1,0.1l-0.1,0.1l-0.4,0.1l-0.1-0.1
	l0.1-0.2l0.1-0.1v-0.2h0.3l-0.1-0.2v-0.3v-0.1v-0.1l-0.3-0.3l-0.2-0.3l-0.1,0.1l-0.2-0.1l0.1,0.2L73,12.6l0.1,0.2l-0.3-0.3v0.2
	c-0.1,0-0.1,0-0.2,0l-0.3-0.3l-0.2-0.2L71.8,12l-0.2,0.1l-0.5-0.2l-0.3-0.2l-0.3-0.2l-0.4-0.2l-0.2-0.2l-0.1-0.2l-0.2-0.2h0.2
	l0.2,0.1l-0.1-0.2h0.2v-0.1l-0.3-0.2l0-0.1v-0.1h-0.1l-0.1,0.1v0.1l-0.3-0.1H69l-0.5-0.1l-0.3-0.2l-0.6-0.2l0.1-0.1L68,9.5
	c0.1,0,0.1,0,0.2,0l0.2,0.2h0.4l-0.5-0.2l-0.5-0.2c-0.3-0.1-0.6-0.3-0.9-0.4l-0.5-0.1l-0.1-0.2h0.4V8.5l-0.2-0.2l-0.1-0.1h0.1
	l0.1-0.1h0.2l0-0.4l0.4,0.1L67.6,8l-0.1-0.1h0.3L67.9,8l0.3,0.1h0.1h0.1C55.8,1.7,40.5,1.6,27.8,7.9c0.4-0.2,0.9-0.4,1.3-0.6
	l0.2-0.1h0.2l-0.3,0.2l-0.6,0.3l-0.1,0.1c-0.4,0.2-0.8,0.5-1.2,0.7l-0.2,0.2C26.6,9,26,9.2,25.5,9.5h0.1l0.3-0.1l0.3-0.1l0.3-0.2
	l0.4-0.2l0.2-0.2l0.5-0.2h-0.1l0.3-0.2l0.7-0.4l0.3-0.2l0.7-0.2l0.3-0.3h0.1l-0.2,0.2l-0.6,0.3h0.1l0.3-0.2L30,7.3h0.4v0.2l0.3-0.3
	l0.6-0.3l0.4-0.1h0.4l0.5-0.1l0.2-0.1l0.6-0.2h0.3l0.6-0.2L35,6.1L35.2,6h0.6l0.1,0.1l0.8-0.2h0.4l0.2-0.1l0.5-0.2l0.7-0.1l0.3,0.1
	l-0.4,0.1h0.5l-0.1,0.1l0.3-0.1h0.8l0.5,0.1l0.1,0.1L40.3,6c-0.5,0.2-0.9,0.3-1.4,0.3l-0.3,0.1c0.2,0,0.5,0,0.7,0.1l0.3-0.1v0.2
	l0.2,0l0.5-0.1h1v0.1h1.3l0.2-0.1h0.7H44l0.5,0.1l0.1,0.2l-0.3,0.1l0.3,0.3l0.5,0.1L45.5,7L46,7.1L46.6,7l0.8,0.2l0.3-0.1h0.6
	L48,6.8l0.4-0.1c1.1,0.1,1.1,0.1,3.1,0.2l0.4,0.2l1,0.2h1.4L55,7.4l0.4,0.1l0.1,0.2L56,7.8l0.4-0.1H57l0.8,0.2h0.6l0.9,0.3l0.3-0.1
	l-0.5-0.2V7.8l1.1,0.1h0.6l1.1,0.2l0.6,0.2c0.3,0.2,0.6,0.5,0.8,0.7c-0.3-0.2-0.5-0.5-0.8-0.7C63.3,8.5,64,8.7,64.8,9l0.3,0.2
	l0.3,0.1L65,9l0.8,0.1l1,0.4l-0.1,0.1h-0.4l0.4,0.4v0.1h-0.3L66,10l-0.5-0.1l-0.3-0.2l-0.4-0.1h-0.3l-0.3-0.1l0.1-0.3L64,9.3
	l0.3,0.2v0.1c-0.2-0.2-0.4-0.4-0.6-0.6c0.2,0.2,0.5,0.4,0.7,0.6l-0.3,0.1h-0.5l0.5,0.2l0.5,0.3l0.3,0.1l0.2,0.2v0.1l-0.8-0.1
	l-0.8,0.3h-0.3l-0.4,0.4l-0.4,0.2v0.2l-0.8-0.3l-0.9,0.3l-0.3-0.2l-0.3,0.2l-0.6-0.1v0.3l-0.4,0.4l0.1,0.2l0.6,0.1l0.3,0.7h-0.4v0.4
	l0.3,0.2L59.2,14v0.5l-0.7,0.1v0.5l-0.7,0.5l-0.3-0.4c-0.4-0.6-0.7-1.2-1.1-1.8v-0.6l0.3-0.3l-0.1-0.2l0.7-0.1l0.6-0.5l0.6-0.4
	l0.6-0.3v-0.6h-0.5l-0.1,0.3l-0.8,0.5l-0.6-0.5L56,10.8l-0.9,0.7l0.5,0.3c-0.6,0.1-1.2,0.1-1.8,0.1l0-0.3L53,11.5l-0.5,0.2L51,11.6
	l-1.6,0.1c-1.2,0.7-2.4,1.3-3.6,2l0.8,0.1l0.3,0.3l0.5,0.1l0.3-0.2h0.6l0.8,0.5v0.4l-0.3,0.5V16l-0.2,0.8l-0.9,0.8L47.5,18
	c-0.7,0.5-1.4,1.1-2.1,1.6l-0.9,0.3h-0.4l-0.3-0.2l-0.9,0.4l-0.1,0.2h-0.2l-0.3,0.2l-0.2,0.2v0.4l-0.4,0.1l-0.1,0.1l-0.3,0.2
	l-0.4,0.1l-0.3,0.2l-0.1,0.3l-0.1,0.1l0.2,0.1l0.3,0.3l0.5,0.7l0.1,0.4l-0.1,0.7l-0.3,0.3l-0.6,0.1l-0.6,0.3l-0.6,0.1v-0.3l0.2-0.5
	l-0.2-0.6l0.5-0.1l-0.4-0.5l-0.3-0.1L39,23.2l-0.2,0.1v-0.1l0-0.3l-0.2-0.1l0.2-0.3l0.2-0.1v-0.1l0.2-0.3v-0.1l-0.4-0.1l-0.3-0.2
	l-0.9,0.2l-0.5,0.4l-0.7,0.2l0.4-0.3l-0.1-0.2l0.6-0.4L37,21.2l-0.6,0.2l-0.8,0.4l-0.5,0.4h-0.6l-0.4,0.3l0.2,0.4l0.5,0.1v0.3
	l0.5,0.2l0.8-0.4l0.5,0.2H37v0.3l-0.9,0.2L35.8,24l-0.7,0.3l-0.4,0.4l0.6,0.3l0.2,0.6l0.3,0.6l0.4,0.5l-0.1,0.5l-0.4,0.2l0.1,0.4
	l0.4,0.2L36,28.5L35.8,29l-0.5,0.2c-0.4,0.5-0.9,1.1-1.3,1.6l-0.7,0.8c-0.7,0.4-1.4,0.9-2.1,1.3L30.4,33l-0.5,0.3l-0.1-0.1l-0.4,0.4
	l-1,0.4l-0.7,0.1l-0.3,0.8L27,35l-0.1-0.5l0.2-0.3L26.2,34l-0.3,0.1l-1,0.6l-0.6,0.7l-0.2,0.5c0.3,0.6,0.6,1.1,0.9,1.7l0.6,0.4
	l0.4,0.6l0.2,1.4l-0.3,1.2l-0.6,0.5l-0.8,0.5l-0.6,0.7L23,43.6l-0.1-0.4l0.2-0.5l-0.5-0.5l-0.5-0.1l-0.3-0.4l-0.3-0.8L21,40.6h-0.5
	l0.1-0.6H20l-0.1,0.8c-0.2,0.6-0.4,1.2-0.7,1.8v0.6h0.4l0.2,0.7l0.1,0.7l0.3,0.4l0.4,0.1l0.3,0.4l0.1,0.1l0.4,0.5l0.3,0.5v0.5
	l0.1,0.4l0.1,0.3l0.1,0.5l0.2,0.2l0.3,0.7v0.3L22,49.6c-0.5-0.4-0.9-0.8-1.4-1.1l-0.1-0.4l-0.4-0.5L20,47l-0.2-0.7l0.1-0.6l-0.1-0.3
	l-0.2-0.3l-0.1-0.4c-0.2-0.3-0.4-0.5-0.6-0.8l-0.1,0.5L18.7,44l0.1-0.5l0.2-0.7v-0.6l0.2-0.6l-0.3-0.4l0.1-0.8L18.8,40l-0.1-0.9
	v-0.9l-0.2-0.6L18.1,38l-0.7,0.6h-0.3l-0.3-0.2l0.3-0.9v-0.7L16.8,36l0.1-0.3l-0.3-0.1L16.3,35l-0.1-0.4v-0.4v-0.3l-0.1-0.4h-0.5
	v0.3l-0.3,0.4l-0.2-0.1L15,34.2l-0.1-0.1L14.7,34l-0.1,0.3h-0.3l-0.6,0.2L13.6,35l-0.4,0.4l-0.8,0.5c-0.4,0.5-0.7,0.9-1.1,1.4
	l-0.5,0.5c0,0.1,0,0.2-0.1,0.3l-0.2,0.2l-0.4,0.3l-0.3,0.2l-0.2,0.6c0,0.5-0.1,1.1-0.1,1.6l-0.3,0.7L9.1,43l-0.2,0.1l-0.2,0.6
	l0.1,0.2l-0.4,0.2l-0.2,0.5L8,44.8l-0.3-0.6c-0.1-0.6-0.1-1.2-0.2-1.8l-0.1-0.3l-0.1-0.7c0-0.5,0-0.9,0-1.4l-0.1-1
	c0.1-0.8,0.2-1.6,0.2-2.3c0.1-0.5,0.2-1,0.3-1.5l-0.5,0.5L7,35.6l-0.1-0.8l0.2-0.3v-0.3L7,33.6l-0.1-0.2L7,32.9v-0.5l-0.4,0.2
	l-0.3,0.1L6,32.8l-0.2-0.1l0-0.2l-0.1-0.1L6,31.6v-0.1l-0.1,0.1c-0.1,0.2-0.2,0.5-0.3,0.7c0.1-0.1,0.2-0.2,0.2-0.3v0.1
	c-0.1,0.1-0.1,0.3-0.2,0.4c-0.1,0.3-0.2,0.7-0.3,1v0.2l0.1,0.1v0.1c0,0.2-0.1,0.4-0.1,0.6v0.1c0,0.1,0,0.1,0,0.2
	C5.2,35,5.1,35.2,5,35.4l-0.1,0.2l-0.2,0.6l0,0l-0.1,0.2l-0.1,0.4l-0.1,0.4v0.1c0,0,0,0-0.1,0l-0.1,0.3L4.1,38L4,38.2H3.9l-0.1,0.2
	C-0.4,57,7.9,76.7,24.2,86.7c2,1.2,4,2.3,6.1,3.1l0,0c0.1,0,0.2,0.1,0.3,0.1c0.2,0,0.3,0.1,0.5,0.1h0.1c0.2,0,0.3,0.1,0.5,0.1h0.1
	l0,0L31.6,90h0.2c0.1,0,0.3,0,0.5,0.1h0.1c0.4,0.1,0.8,0.3,1.2,0.5l0.1,0.1l0.2,0.1l0.3,0.1h0.1c0.2,0.1,0.5,0.2,0.7,0.3l0.3,0.1
	h0.2v-0.1c-0.1-0.1-0.3-0.1-0.4-0.2c-0.1-0.1-0.2-0.1-0.3-0.2c-0.2-0.1-0.3-0.1-0.5-0.2l0,0h0.1l0,0v-0.1c-0.1-0.1-0.2-0.2-0.4-0.2
	l-0.2-0.2V90v-0.1l-0.1-0.1v-0.1v-0.1h0.2c0.1,0,0.1-0.1,0.2-0.1h0.2v-0.1L34,89.2c0.2,0.1,0.4,0.1,0.6,0.2l0.3,0.1h0.2h0.1
	c0.2,0,0.3,0,0.5,0h0.1H36l0.3,0.1l0.1-0.1c0.1,0,0.2,0,0.2,0h0.2h0.3v-0.1v-0.1l0.1-0.1V89h0.2l0.3,0.1c0.3,0.1,0.6,0.2,0.9,0.3
	c0.2,0,0.3,0,0.5,0s0.3-0.1,0.5-0.1l0.2-0.1l0.1-0.1h0.3l0.1-0.1l0.3,0.1l0.2,0.1l0.3,0.1h0.3l0.3,0.1l0.4,0.1h0.4h0.3l0.2-0.1
	l0.1-0.1h0.2c0.2,0,0.4,0.1,0.6,0.1l0.2-0.1c0.1,0,0.2,0,0.3,0c0.2,0,0.4,0,0.5,0.1c0.2,0,0.4-0.1,0.5-0.1c0.2,0,0.4,0,0.6,0
	c0.2,0,0.4,0,0.5-0.1l0.1-0.2v-0.1l0.2,0.1l0.1,0.1l0.1,0.1l0.1,0.1l0.3,0.1c0.8-0.1,1.6-0.1,2.3,0l0.2,0.1l-0.1,0l0.2,0.1
	c0.2,0,0.4,0.1,0.6,0.2c0.3,0.1,0.6,0.1,0.9,0.2h0.3l0.2-0.1l0.2,0.1l0.1,0.1l0.2,0.1c0.2,0,0.4,0,0.5,0.1v0.1l0.2,0.1l0.1,0.1h0.2
	h0.3H54h0.3h0.2h0.2l0.1,0.1l0.2,0.1v0.1L54.8,91c-0.3,0.1-0.6,0.2-0.9,0.4h-0.3l-0.2,0.1h-0.3l-0.2,0.1c-0.2,0.1-0.3,0.1-0.5,0.1
	c-0.1,0-0.2,0.1-0.4,0.2c-0.1,0.1-0.2,0.1-0.3,0.2v0.1l-0.1,0.1v0.1h0.2v-0.2c-0.2,0-0.4,0-0.6,0.1h-0.3l-0.3,0.1l-0.2,0.1
	c-0.1,0-0.2,0.1-0.3,0.1l0.1,0.1l-0.1,0.1v0.1l0,0V93h0.1l-0.1,0.1h0.1h-0.1h0.3l0,0l0,0c-0.1,0-0.3,0-0.4,0.1
	c0.2,0,0.5-0.1,0.7-0.1h-0.1c0.1,0,0.2,0,0.3,0l0,0l0,0h-0.2c0.1,0,0.2,0,0.3,0h0.3c-0.1,0-0.2,0.1-0.3,0.1l0,0
	c0.8-0.1,1.6-0.1,2.4-0.2l0,0h0.2h0.1h0.1H54c0.4-0.1,0.9-0.1,1.3-0.2l0,0h-0.1l0,0l0,0l0.2-0.1l0.1-0.1c0.3-0.1,0.6-0.2,0.9-0.3
	l0,0l0.1-0.1c0.1,0,0.3,0,0.4,0l-0.2,0.1h0.2c0.3,0,0.5-0.1,0.8-0.1h0.1c0.3-0.1,0.5-0.1,0.8-0.2h0.2h-0.1
	C75.6,87.8,89,73.7,92.2,56.6C95.2,39.9,88.4,22.5,74.9,12.3z M9.7,45.9L9.7,45.9l-0.2,0.3l-0.4,0.2l-0.2-0.6v-1.1l0.3-1.3l0.3,0.4
	l0.2,0.5l0.2,0.8L9.7,45.9z M52.7,53.4l0.4,0.4l0.1,0.4l1.2,0.5l0.2,0.4l-0.7,0.1l0.2,0.5l0.7,0.5l0.5,0.8h0.4v0.3l0.6,0.1l-0.2,0.1
	l0.8,0.3L56.8,58h-0.5l-0.2-0.2c-0.5-0.1-0.9-0.1-1.4-0.2l-0.6-0.5l-0.4-0.4l-0.5-0.5l-1-0.3l-0.6,0.2l-0.5,0.2l0.1,0.5l-0.6,0.3
	L50.2,57h-0.8l-0.6-0.6L48,56.2l-0.2,0.2h-1l0.3-0.6l0.5-0.2l-0.2-0.8l-0.3-0.6l-1.5-0.6L45,53.5l-1.1-0.7l-0.2,0.4l-0.4,0l-0.2-0.3
	v-0.3l-0.5-0.4l0.8-0.3h0.5l-0.1-0.2c-0.4,0-0.7,0-1.1,0l-0.3-0.5h-0.6l-0.3-0.4l1-0.2l0.4-0.3l1.2,0.3l0.1,0.3l0.2,1.2l0.8,0.5
	l0.6-0.8l0.9-0.5c0.2,0,0.5,0,0.7,0c0.4,0.2,0.8,0.3,1.2,0.5l0.8,0.1l1.3,0.5l1.4,0.4L52.7,53.4z M49.4,14.4l0.5-0.2L49.7,14
	l0.2-0.1c0.1,0.3,0.3,0.5,0.4,0.8v0.5l0.3,0.5l0.6,0.9l-0.9-0.2L50,17.2l0.6,0.6v0.4l-0.5-0.3l-0.3,0.3l-0.1-0.5v-0.5l-0.1-0.6
	l0.1-0.4v-0.7L49.4,15L49.4,14.4z M48.8,19.7h0.7l0.2-0.8l0.2-0.4l0.7,0.6l0.5,0.2l0.4,0.1l0.4-0.2l0.2,0.6L51.2,20l-0.5,0.6l-1-0.4
	l-0.3,0.6h-0.7l-0.1-0.6L48.8,19.7z M42,25.6l0.4-0.4l0.7-0.3l0.5-0.4l1.3-0.2l0.7,0.1l0.7-1.1l0.4,0.3c0.5-0.3,0.9-0.6,1.4-0.8
	l0.4-0.7l-0.1-0.7l0.3-0.4l0.7-0.1l0.4,0.8v0.5l-0.6,0.6v0.6L49,23.9l0.1,0.3l-0.3,0.4l-0.9,0.3h-1.2l-1,0.7l-0.5-0.2v-0.5L44,25
	l-0.8,0.3h-0.8l0.7,0.5l-0.5,1.1l-0.5,0.3L41.8,27l0.2-0.6l-0.4-0.2l-0.2-0.4L42,25.6z M40.6,52.2l0.8,0.2l0.3,0.6l-0.6-0.3l0,0
	l-0.6-0.1l-0.4,0.1h-0.5l0.2-0.4L40.6,52.2z M39.2,48.7l0.3-0.3l0.1,0.4l0.5,0.1l0.1,0.3v0.7l0,0l-0.4-0.1l-0.1,0.5l0.3,0.4
	l-0.2,0.1l-0.3-0.5l-0.2-1L39.2,48.7z M38.7,56.5l0.2-0.1l0.3,0.1l-0.3,0.2c-0.4,0.2-0.9,0.4-1.4,0.5l-0.4,0.6L36.5,58l-0.1-0.1
	v-0.3l0.4-0.4l0.7-0.3l0.1-0.2l0.6-0.2H38.7z M38.2,43.2c0.1,0.4,0.1,0.8,0.2,1.2l-0.3,0.8l-0.3-0.8l-0.4,0.4l0.2,0.6l-0.2,0.4
	l-0.9-0.4l-0.2-0.6l0.2-0.4L36,44l-0.2,0.3h-0.4l-0.6,0.4l-0.1-0.2l0.3-0.7l0.5-0.2l0.4-0.3l0.3,0.3l0.6-0.2l0.1-0.3h0.5v-0.6
	l0.6,0.4L38.2,43.2z M36.6,41.4l-0.1,0.7l0,0l-0.3,0.3L36,42.9l-0.2,0.2l-0.4-0.5l0.2-0.2l0.2-0.2l0.1-0.5h0.4l-0.1,0.5L36.6,41.4z
	 M37.5,40.4l0.2,0.3l0.2,0.8l-0.6-0.2v0.3l0.2,0.5l-0.4,0.1v-0.5h-0.2l-0.1-0.5l0.4,0.1V41l-0.4-0.6H37.5z M33.7,37.5l0.3,0.2
	l0.1-1.2l0.3-0.7h0.4l0.4,0.2l0.2-0.2l0.1,0.2l-0.1,0.3l0.2,0.5l-0.2,0.6L35,37.7l-0.2,0.8l0.1,0.6l0.4,0.1l0.3-0.1l0.9,0.4
	l-0.1,0.4l0.2,0.2l-0.1,0.4l-0.6-0.4l-0.1-0.5l-0.2,0.3l-0.5-0.4l-0.7,0.1L34,39.4l0.1-0.3l0.2-0.2l-0.2-0.2L34,39l-0.3-0.4
	l-0.1-0.3L33.7,37.5z M33.4,50l0.1-0.3l0.6-0.6l0.6,0.2l0.9,0.1h0.9l0.7-0.6l0.1,0.2l-0.5,0.8L36.2,50l-0.7-0.1L34.3,50l-0.6,0.1
	l-0.1,0.6l0.7,0.7l0.4-0.4l1.4-0.3L36,51.1L35.7,51l-0.3,0.5l-0.6,0.3l0.7,1l-0.1,0.3l0.7,0.9v0.5l-0.4,0.2l-0.4-0.5l0.3-0.6
	l-0.7,0.3l-0.1-0.3l0.1-0.3l-0.6-0.4v-0.7l-0.5,0.2c0.1,0.7,0.1,1.3,0.2,2l-0.5,0.1l-0.3-0.2l0.2-0.7l-0.1-0.7H33l-0.3-0.5l0.3-0.5
	l0.1-0.6L33.4,50z M35.9,56.3l-0.1,0.4l0,0l-1,0.2l-1-0.1c0-0.1,0-0.2,0-0.3l0.6-0.2l0.5,0.2l0.5-0.1L35.9,56.3z M33.2,56.8L32.4,57
	l0,0l-0.5,0.1h-0.4l0.2-0.4h0.4l0.2-0.3l0.3,0.2l0.4-0.1L33.2,56.8z M31.8,43.1l0.5-0.5l0.5-0.5l0.4-0.8l0.1,0.6l-0.5,0.5l0,0
	l-0.4,0.5l-1,0.8L31.8,43.1z M22.6,54.3l-0.9-0.6l-0.3-0.5l-0.6-0.6L20.4,52l-0.6-1.1l-0.6-0.6L19,49.6L18.7,49l-0.6-0.5l-0.3-0.7
	l-0.5-0.4l-0.6-0.8l0.1-0.3h0.4l0.9,0.1l0.5,0.7l0.5,0.5l0.4,0.3l0.6,0.8h0.6l0.6,0.5l0.4,0.6l0.5,0.3L22,50.7l0.4,0.3h0.2l0.1,0.5
	l0.3,0.4l0.5,0.1l0.4,0.5l-0.1,1.2c0,0.4,0.1,0.8,0.1,1.2h-0.7L22.6,54.3z M30,56.9L30,56.9l-0.8-0.3h-0.6h-0.7l-0.7-0.1l-0.8-0.3
	l-0.5-0.1l-0.2,0.1l-1.2-0.3l-0.1-0.3h-0.6l0.4-0.7H25l0.6,0.3h0.3l0.1,0.3h1.3l0.1-0.3l1.3,0.3L29,56l1.1,0.1l0.9,0.4L30,56.9z
	 M30.8,53L30,53.4l-0.3-0.5h-0.5l-0.4-0.3L28,52.9l-0.3-0.4l-0.5,0.1l-0.6-0.1l-0.2-1L26,51.3l-0.2-0.6L25.7,50l0.1-0.7l0.4-0.5
	l0.5,0.3l0.5-0.2l0.1-0.7l0.3-0.2l0.8-0.2c0.3-0.4,0.6-0.7,0.8-1.1l0.3-0.3l0.6-0.4l0.6-0.6l0.4-0.6h0.3l0.4,0.4v0.3
	c0.4,0.2,0.7,0.3,1.1,0.4l-0.1,0.3h-0.5l0.1,0.4l-0.5,0.3l-0.4,0.7l0.5,0.7l-0.1,0.4l0.8,0.7l-0.9,0.1L31.6,50l0.1,0.7L31,51.2V52
	l-0.2,1.2L30.8,53z M53,78.5l-0.2,0.2l-0.1,0.4L52.5,79l-0.4,0.4H52h-0.3l-0.3-0.5v-0.4L51.1,78v-0.3l0.4,0.1L52,78
	c0.3-0.1,0.5-0.1,0.8-0.2h0.3L53,78.5z M57.3,70.8c-0.2,0.3-0.3,0.6-0.4,0.9v0.4l-0.2,0.4l-0.4,0.6l-0.5,0.2l-0.3,0.5l-0.2,0.3
	L55,74.6l-0.3,0.3l-0.2,0.4l-0.1,0.4v0.2L54,76.1h-0.7l-0.5,0.2l-0.3,0.2l-0.4,0.2l-0.4-0.3l-0.3-0.1l0.1-0.3l-0.3,0.1l-0.5,0.4
	c-0.3-0.1-0.5-0.2-0.8-0.2h-0.3l-0.8-0.1l-0.4-0.4l-0.1-0.4l-0.1-0.3l-0.3-0.2l-0.6-0.1l0.2-0.3l-0.2-0.4L47,74.5l-0.5,0.1l0.3-0.3
	l0.1-0.3l0.2-0.3l0-0.5l-0.5,0.5l-0.4,0.2L46,74.4l-0.5-0.2v-0.3l-0.4-0.4l-0.3-0.4l0.1-0.1l-0.8-0.4h-0.4l-0.6-0.3L42,72.4
	c-0.5,0.1-1,0.3-1.5,0.4h-0.6l-0.6,0.3l-0.5,0.2l-0.1,0.3l-0.2,0.2H38l-0.4,0.1l-0.5-0.1l-0.4,0.1h-0.4L36,74.2h-0.2l-0.2,0.2
	l-0.2,0.2c-0.3,0-0.5,0-0.8,0l-0.7-0.4l-0.3-0.1l-0.1-0.3l0.3-0.1l0.1-0.1l-0.1-0.2V73l-0.2-0.4L33.1,72l-0.3-0.5l-0.1-0.3l-0.3-0.4
	l-0.1-0.2L32,70.4l-0.2-0.6l-0.5-0.5L31.1,69l0.3,0.3L31,68.7l0.4,0.2l0.2,0.2l-0.1-0.3l-0.4-0.5L31,68.1l-0.2-0.2v-0.4l0.1-0.2V67
	l-0.1-0.4l0.2-0.5l0.2,0.5l0.2-0.5l0.5-0.2l0.3-0.3l0.5-0.3l0.3-0.1l0.2,0.1l0.5-0.3l0.4-0.1l0.1-0.2l0.2-0.1h0.4l0.7-0.2l0.3-0.3
	l0.1-0.4l0.4-0.4c0-0.2,0-0.4,0-0.7l0.4-0.6l0.4,0.6l0.3-0.1l-0.6-0.1l0.2-0.3l0.3,0.1v-0.5l0.4-0.4l0.1-0.3l0.3-0.1v-0.2l0.3,0.1
	v-0.2c0.2-0.1,0.4-0.1,0.7-0.2l0.6,0.3l0.4,0.4h0.4l0.5,0.1l-0.2-0.4l0.3-0.6l0.3-0.2l-0.1-0.2l0.3-0.4l0.4-0.3l0.4,0.1l0.6-0.1
	v-0.4l-0.5-0.2l0.4-0.1l0.5,0.2l0.4,0.3l0.6,0.2l0.2-0.1l0.5,0.2l0.4-0.2l0.3,0.1L46,59l0.3,0.4l-0.2,0.4l-0.3,0.3h-0.3l0.1,0.3
	l-0.2,0.4l-0.3,0.4l0.1,0.2l0.6,0.4l0.6,0.2l0.4,0.2l0.5,0.4c0.1,0,0.1,0,0.2,0l0.4,0.2L48,63l0.8,0.2l0.5-0.2l0.1-0.4l0.2-0.3
	l0.1-0.4l0.2-0.6l-0.1-0.4l0.1-0.2l-0.1-0.4l0.1-0.5l0.1-0.1l-0.1-0.2l0.2-0.4l0.1-0.4v-0.2l0.3-0.3l0.2,0.4v0.5l0.2,0.1v0.3
	l0.3,0.4v0.4v0.3l0.2,0.6l0.5-0.3l0.2,0.3l0.3,0.3l-0.1,0.3c0.1,0.3,0.1,0.6,0.2,1l0.2,0.1l0.2,0.6l-0.1,0.4l0.2,0.5l0.7,0.4
	c0.3,0.2,0.6,0.4,0.9,0.6l0.1-0.2l0.4,0.4l0.2,0.7l0.3-0.1l0.2,0.3l0.2-0.1v0.7c0.2,0.2,0.5,0.5,0.7,0.7l0.5,0.5l0.1,0.5v0.4
	l-0.1,0.4l0.2,0.6L57.3,70.8z M58,53.8l-0.3,0.5l-0.4,0.1l-0.1,0.2c-0.3,0.1-0.5,0.2-0.8,0.4c-0.1,0-0.3,0-0.4,0l-0.6-0.2L55,54.6
	l0.1-0.2l0.7,0.1l0.4-0.1l0.1-0.4h0.1l0.1,0.4l0.4-0.1l0.2-0.3l0.4-0.3l-0.1-0.4h0.5l0.1,0.1V53.8z M66.5,78.6
	c-0.3,0.2-0.6,0.4-0.8,0.6l-0.4,0.2v0.3h-0.4l-0.5,0.2l-0.3,0.3l-0.6,0.5c-0.3,0.1-0.5,0.2-0.8,0.4h-0.4l-0.2-0.2h-0.5v-0.2l0.4-0.4
	l0.9-0.5l0.4-0.1c0.3-0.1,0.7-0.3,1-0.5l0.4-0.3l0.4-0.4l0.3-0.1l0.2-0.3l0.5-0.2c0,0.2,0,0.3,0,0.5l0.5-0.2v0.2L66.5,78.6z
	 M69.3,76.9L69,77.2h-0.4l-0.2,0.2l-0.1,0.2c-0.3,0.2-0.6,0.5-0.9,0.8l-0.5,0.2v-0.1l-0.1-0.2l0.5-0.4v-0.3l-0.4-0.2l0.1-0.2
	l0.5-0.2l0.3-0.4l0.2-0.4v-0.4l0.1-0.1l-0.3-0.3l-0.2-0.5v-0.4h0.2l0.1,0.3l0.3,0.2l-0.1,0.5l0.1,0.6l0.2-0.4l0.2,0.2l-0.1,0.4
	l0.3,0.2l0.3,0.1l0.4-0.2l0.2,0.1L69.3,76.9z M75.7,62.8L75.7,62.8c0-0.1,0-0.2,0.1-0.3h0.1L75.7,62.8z"/>
</svg>
