<?xml version="1.0" encoding="utf-8"?>
<!-- Generator: Adobe Illustrator 24.1.1, SVG Export Plug-In . SVG Version: 6.00 Build 0)  -->
<svg version="1.1" id="Layer_1" xmlns="http://www.w3.org/2000/svg" xmlns:xlink="http://www.w3.org/1999/xlink" x="0px" y="0px"
	 viewBox="0 0 94.6 95.1" style="enable-background:new 0 0 94.6 95.1;" xml:space="preserve">
<path d="M91.6,44.3l-0.1-0.6l-0.1-0.2v-0.4l-0.1-0.2v-0.2H91l-0.1-0.2l-0.1,0.1l-0.3-0.2l-0.2-0.6l-0.1-0.6l-0.3-0.7
	c-0.2-0.1-0.4-0.3-0.6-0.4L89,40l-0.3-0.1H88L87.8,40h-0.4L87,39.5l-0.2-0.1l-0.3-0.3l-0.3-0.2l-0.6-0.2c-0.3,0-0.6,0.1-0.8,0.1
	l-0.1-0.1l-0.1-0.1l-0.5-0.5l-0.5-0.8l-0.5-0.6l-0.4-0.6L82.6,36l-0.4-0.5L81.9,35l-0.1-0.3l-0.1-0.6l-0.3-0.5l-0.2-0.4h-0.1
	L80.9,33l-0.1-0.3l-0.1-0.2l-0.2-0.2l-0.3-0.4L80,31.8l-0.1-0.3v-0.1l-0.2-0.2c-0.1-0.2-0.1-0.5-0.2-0.7v-0.3l-0.3-0.6l-0.3-0.3h0.2
	l0.2-0.4l0.1-0.3l-0.1-0.4l0.1-0.3v-0.6l-0.2-0.7l-0.1-0.4v-0.3l-0.2-0.4l-0.4-0.4c0-0.2,0-0.4-0.1-0.5l0.2-0.1l0.1-0.3L78.6,24
	l0.1-0.4l0.2-0.3h0.2V23l0-0.2l0.1-0.3l0.3-0.1l0.1-0.5l0.2-0.1l0.5,0.1l0.3-0.2l0.2-0.1l0.2-0.3l-0.4-0.8v-0.4l-0.1-0.3l0.1-0.2
	h0.3l0.2-0.1v-0.4v-0.3l0.3,0.2l0.4,0.4l0.4,0.2l0.5,0.4l0.2,0.1l0.2-0.1l0.4,0.2l0.1-0.1l0.2,0.1l0.5,0.3l0.4,0.3
	c-0.8-1-1.6-2-2.4-2.9L82,17.8l0.1,0.1V18l0.1,0.3l0.3,0.4l-0.1,0.1l0.1,0.3L82.3,19v0.2c-0.3-0.2-0.6-0.3-0.9-0.5h-0.2l-0.1,0.1
	l-0.2-0.2l-0.1-0.1l-0.3-0.4l-0.4-0.2L80,18l-0.3-0.2h-0.2l-0.2-0.4L79.1,17l-0.2-0.1l-0.2-0.2l-0.2-0.3l0.1-0.1l-0.1-0.2l-0.1-0.3
	l-0.1-0.2l-0.2-0.2L78,15.2l-0.2-0.3l-0.3-0.3l0.4-0.1c0.4,0.2,0.7,0.4,1.1,0.6l0.5,0.3l0.3,0.1l0.6,0.4v-0.2l-0.5-0.6
	c-0.5-0.5-1-1-1.6-1.4l-0.6-0.4L77.4,13h0.1c-0.3-0.3-0.6-0.5-0.9-0.8l-0.2-0.1l0,0c-0.5-0.4-0.9-0.7-1.4-1L74.7,11l-0.6-0.3
	l-0.2-0.2L73.3,10l0,0C69,7.1,64.1,5,58.9,3.7h-0.5c-0.4-0.1-0.9-0.1-1.3-0.1l-0.2,0.1L57,3.8l-0.1,0.1L56.3,4l0.3,0.2
	c0,0.1-0.1,0.2-0.1,0.4l-0.7-0.1L55,4.2l-1-0.1l-0.5-0.2l-0.4-0.2l-1-0.2l-0.3-0.1l-0.1-0.2L51,3l0.1-0.1l-0.3-0.1l0.3-0.2h0.6h0.1
	l0,0c-0.3,0-0.6,0-0.9-0.1h-0.1h-0.1c-1.9,0-3.8,0-5.6,0.1l0,0l-0.8,0.1c0.5,0,1.1,0,1.6,0l0.6,0.1h0.7L47.1,3l-0.8,0.2l-0.6-0.1
	L45.1,3l-0.6,0.1l-0.1,0.1l0.4,0.1l0.6,0.1h0.2l0.3,0.1l-0.2,0.2c-0.6,0-1.2-0.1-1.8-0.1c0.4,0.1,0.7,0.2,1.1,0.2l0.1,0.1
	c-0.9,0-1.9,0-2.8-0.1l0.2-0.1c-0.4,0-0.8,0-1.3-0.1v0.1l-1.4,0.2h-0.3l0.4-0.2c0.6-0.1,1.2-0.2,1.8-0.3h-0.1l0.2-0.1l0.7-0.2
	L42.4,3h-0.1c-0.2,0-0.4,0-0.6,0c-1,0.1-2,0.3-2.9,0.5l-0.1,0.1c-0.5,0.1-1.1,0.3-1.6,0.4h-0.2c-0.1,0-0.2,0-0.3,0.1
	c-0.2,0.1-0.5,0.2-0.8,0.3l-0.2,0.1l-0.7,0.2l-0.6,0.1L33.8,5l-0.2,0.2L33,5.3c-0.5,0.2-1.1,0.5-1.6,0.7L31,6.3l-0.4,0.3l0.6-0.1
	l-0.1,0.2v0.2l0.7-0.2l0.8-0.1H33l0.3,0.1h0.6h0.5c0.5-0.1,1-0.1,1.4-0.2l-0.2,0.3v0.3l0.2,0.3l0.7,0.2L37,7.4L37.5,7l-0.1-0.5
	l-0.3-0.1l1-0.2l0.7-0.3l0.4-0.2V5.5L39,5.3l-0.5-0.1l0.8-0.3l-0.1-0.2l0.1-0.3l0.4-0.1c0.4,0,0.8,0,1.3-0.1l0.4-0.1
	c0.3,0,0.6,0.1,1,0.1l0.1,0.1h0.9l-0.1,0.2l0.1,0.3h0.5h0.2l0.8-0.2l0.5-0.3l0.4-0.1c0.5,0.3,1.1,0.5,1.6,0.8l-0.2,0.2l0.7,0.1
	l0.6,0.2l0.9,0.1l0.4,0.1L50.1,6h0.4l0.2,0.1l0.1,0.4c-0.3,0.1-0.5,0.2-0.8,0.2l-1,0.1l-0.7,0.3l-1,0.1c-0.9,0-1.9,0-2.8,0L44,7.5
	l-0.9,0.1c-0.6,0.3-1.2,0.6-1.7,0.9l0.5-0.1L43,7.8l1.3-0.4l0.9-0.1l0.5,0.2l-0.6,0.4l0.2,0.4l0.2,0.3l0.8,0.2l1-0.1l0.6-0.4v0.3
	l0.4,0.1L47.5,9l-1.4,0.3l-0.6,0.2l-0.7,0.3h-0.5V9.5l1.1-0.4c-0.6,0-1.2,0.1-1.7,0.1l0.1,0.1c-0.7,0.2-1.4,0.4-2.1,0.6
	c-0.2,0.1-0.3,0.2-0.5,0.4v0.2l0.2,0.2h0.3v-0.1l0.2,0.1l-0.1,0.1l-0.5,0.1H41c-0.4,0.1-0.8,0.2-1.2,0.2l-0.6,0.2l1-0.2l0.2,0.1
	l-1,0.2H39v-0.1l-0.2,0.1H39l-0.2,0.3l-0.6,0.4V12h-0.1l-0.2-0.1l0.1,0.2l0.1,0.1v0.2c-0.2,0.2-0.5,0.4-0.7,0.6h-0.1l0.3-0.3
	l-0.3-0.1v-0.4l-0.2,0.1l0.1,0.3h-0.4l0.4,0.1l-0.1,0.4h0.2v0.2v0.5l-0.5,0.4l-0.7,0.2l-0.5,0.4l-0.4,0.1l-0.4,0.2l-0.1,0.2
	l-0.8,0.4L33.5,16l-0.4,0.3l-0.2,0.4l0.1,0.4l0.1,0.4l0.3,0.3V18l0.3,0.6L33.6,19l-0.1,0.2l-0.2,0.4l-0.2,0.1h-0.4l-0.1-0.2h-0.3
	c-0.2-0.3-0.4-0.5-0.6-0.8l-0.1-0.2l0.2-0.4l-0.2-0.3l-0.5-0.4h-0.3L30,17.8h-0.1l0-0.3h-0.5l-0.8,0.2L28,17.8l-0.5,0.1L27.2,18
	l0.1,0.1l-0.1,0.2l0.1,0.1l-0.1,0.1H27l-0.3,0.2l-0.5,0.1l-0.4-0.2l-0.6,0.2h-0.4l-0.4,0.1l-0.6,0.3l-0.7,0.6l-0.7,0.4L22,20.6
	l-0.2,0.3l-0.1,0.4v0.3l0.1,0.2l-0.4,0.6l-0.3,0.4l-0.2,0.8l-0.1,0.3v0.3l0.1,0.2l0.1,0.5l0.4,0.4l0.1,0.3l0.2,0.2h0.7l0.2,0.2
	l0.6-0.3l0.5-0.2c0.3-0.2,0.7-0.3,1-0.5l0.5-0.4l0.2-0.4l0.1-0.5l0.1-0.2l0.5-0.3l0.8-0.3l0.6-0.1l0.4-0.1l0.2,0.1L28,23.1l-0.4,0.4
	l-0.2,0.4l0.1,0.1c-0.1,0.3-0.2,0.6-0.4,0.8l-0.2-0.1h-0.2v0.1h0.1V25l-0.1,0.3l0.1,0.1l-0.1,0.3v0.1l-0.1,0.4l-0.2,0.2h-0.1
	l-0.2,0.3l0.2,0.1l0.1-0.1c0.1,0,0.2,0,0.3,0.1l0.2-0.2l0.2-0.1h0.1l0.1-0.1h0.3l0.3-0.1l0.2-0.1l0.1-0.1h0.2h0.2l0.2-0.1l0.2-0.1
	h0.3h0.1l0.2,0.1l0.2,0.1l0.3,0.1l0.2,0.2l0.3,0.1v0.2l0.1,0.2l-0.2,0.3l-0.1,0.3v0.3V28v0.3l-0.1,0.1l-0.1,0.3v0.2L30,29.1v0.2
	l0.1,0.1l0.2,0.4l0.3,0.2c0.2,0.1,0.4,0.3,0.6,0.5v0.2h0.3l0.1-0.1l0.2,0.1l0.4-0.1l0.3-0.2l0.5-0.2l0.3-0.3h0.4V30h0.4l0.3,0.1
	l0.3,0.2l0.3,0.2h0.4l0.6-0.6l0.3-0.1v-0.2l0.1-0.6l0.4-0.4l0.5-0.1l0.1-0.1H38c0.3-0.2,0.6-0.4,0.9-0.6l0.4-0.4h0.3l0.2,0.2l0-0.1
	v0.2l-0.5,0.1l0.3,0.3v0.4l-0.3,0.4l0.3,0.5l0.3-0.1l0.2-0.5l-0.2-0.2v-0.5l1-0.4l-0.1-0.3l0.3-0.2l0.3,0.5H42l0.5,0.4v0.2h0.7
	l0.8-0.1l0.5,0.3l0.6,0.1l0.4-0.2v-0.2c0.6,0,1.3-0.1,1.9-0.1l-0.7,0.2l0.3,0.3h0.6l0.6,0.3l0.1,0.6h0.4c0.3,0.2,0.6,0.3,0.8,0.4
	l0.5,0.5v0.4h0.3c0.2,0.2,0.5,0.4,0.7,0.6l0.9,0.2l0.1-0.1h0.6l0.8,0.2c0.3,0.1,0.6,0.2,0.8,0.3l0.8,0.7l0.1,0.3h0.3l0.2,0.4
	l0.4,1.3l0.4,0.1v0.5l-0.3,0.5l0.2,0.2l1.4,0.2v0.7l0.6-0.5l1,0.3l1.2,0.6l0.4,0.5l-0.1,0.4l0.9-0.1l1.4,0.6l1.1,0.1l1,0.8l0.9,1
	l0.5,0.3l0.6,0.1l0.2,0.3c0.1,0.5,0.2,1,0.2,1.5L67.2,44l0,0l-0.4,0.4l-1.1,0.9l-0.5,0.8l-0.6,0.4h-0.2L64.1,47v1.4
	c-0.2,0.5-0.3,1.1-0.5,1.6l-0.3,0.3l-0.3,1l-0.8,0.9l-0.1,0.7l-0.6,0.3l-0.2,0.3c-0.2,0-0.5-0.1-0.7-0.1l-1.1,0.2L59,53.9L58.2,54
	l-0.8,0.5l-0.6,0.7l-0.1,0.5l0.1,0.4l-0.2,0.7l-0.2,0.3l-0.5,0.4l-0.8,1.2l-0.6,0.5L54,59.5l-0.3,0.7l-0.6,0.6l-0.3,0.4l-0.7,0.4
	l-0.4-0.2l-0.4,0.1l-0.6-0.3h-0.4l-0.4-0.4v0.4l0.8,0.6l-0.1,0.5l0.4,0.3v0.3l-0.6,0.9l-0.9,0.4l-1.2,0.2l-0.6-0.1l0.1,0.4l-0.1,0.5
	l0.1,0.3l-0.3,0.2l-0.6,0.1l-0.6-0.2l-0.2,0.2l0.1,0.7l0.4,0.2l0.3-0.2l0.2,0.3L46.6,67l-0.4,0.4v0.7L46,68.5h-0.5l-0.4,0.3L45,69.3
	l0.6,0.4l0.5,0.1L46,70.5l-0.6,0.4l-0.2,0.8L44.8,72l-0.2,0.3l0.2,0.6l0.4,0.3H45h-0.4l-0.2,0.2l-0.3,0.2v0.6h-0.2L43.4,74l-0.6-0.4
	l-0.7-0.2L41.9,73v-0.4l-0.3-0.4l-0.3-1.1l0.1-0.6l0.4-0.5L41,69.9l0.4-0.6v-1.1l0.6,0.2V67l-0.4-0.1v0.8l-0.4-0.1
	c0-0.7,0-1.5,0-2.2l0.2-0.5l-0.3-0.6l-0.3-0.8H41c0.1-0.8,0.3-1.5,0.5-2.3l0.1-1.1l-0.3-1l0.1-0.6v-1l0.3-0.9c0-1.5,0.1-3.1,0.1-4.6
	l-0.2-1.2l-0.2-1l-0.8-0.4l-0.1-0.3c-1-0.4-1.9-0.8-2.9-1.3L37,47.4l-0.4-0.6l0.1-0.2L36,45.7c-0.6-0.9-1.2-1.8-1.7-2.7L34,42.7
	l-0.3-0.5l-0.6-0.4l-0.6-0.2l0.2-0.4l-0.4-0.7l0.2-0.6l0.6-0.6l0.4-0.6l-0.2-0.2L33,38.9l-0.5-0.3l0.1-0.2l-0.2-0.7l0.3-0.2l0.1-0.5
	l0.3-0.5L33,36.2l0.4-0.2l0.5-0.4v-0.1l0.3-0.1V35l0.2-0.3l0.4-0.1c0.2-0.3,0.4-0.6,0.6-0.9l-0.3-0.1l0.1-0.4l-0.3-0.7l0.2-0.2
	L35,31.7l-0.3-0.4l-0.3-0.2l-0.2-0.4l0.2-0.2h-0.2l-0.1-0.2l-0.4-0.1l-0.3,0.1l-0.2,0.2l-0.3,0.2l-0.2,0.1L32.6,31l0.4,0.3l-0.2,0.1
	l-0.1,0.1l-0.4,0.1l-0.1-0.4l-0.1,0.2h-0.3l-0.2-0.3h-0.3L31.1,31c-0.1,0-0.2,0-0.3,0.1v0.2l-0.1-0.1l-0.4-0.1l-0.2-0.2l0.1-0.1
	v-0.2L30,30.5l-0.3-0.1h-0.3v-0.2l-0.2-0.1v0.2l-0.1,0.2l-0.2-0.2h-0.2l-0.1-0.1V30l0.1-0.2l-0.2-0.1l0.2-0.2
	c-0.2-0.1-0.4-0.3-0.6-0.4l-0.2-0.2l-0.3-0.2l-0.4-0.2l0.1-0.1l0.1,0.1l0.1-0.1l-0.1-0.2h-0.2l-0.1,0.2l-0.4,0.1h-0.3l-0.3-0.1h-0.4
	l-0.2-0.1h-0.4l-0.5,0.1l-0.3-0.1l-0.4-0.2l-0.7-0.5l-0.3-0.1h-0.5L22,27.7l-0.6,0.4l-0.3,0h-0.4h-0.5L19.6,28h-0.5l-0.7-0.1
	l-0.5-0.1l-0.1-0.1l-0.3,0.1h-0.6l-0.1-0.3l-0.5-0.1l-0.2-0.3L16,26.8l0.2-0.1v-0.2l0.2-0.2v-0.2l-0.1-0.2v-0.2l-0.2-0.3L15.8,25
	l-0.4-0.3l-0.1-0.3l-0.4-0.1v-0.1l0.2-0.4h-0.2l-0.2-0.2v-0.4l-0.2,0.1l-0.2-0.2l-0.1-0.2v-0.2L14,22.5v-0.4l0.1-0.2l-0.2-0.1
	l-0.2,0.1h-0.2l-0.2,0.3v0.2l-0.1,0.4l0.1,0.2l0.2,0.2v0.1h0.1v0.2h0.1v0.3l0.1,0.1v0.2l0.2,0.2v0.5l0.1,0.2l0.1,0.2l-0.3,0.3
	l0.2-0.1l0.1,0.2l0.1,0.2v0.1l-0.2,0.3H14v-0.3l-0.2-0.2l-0.3-0.1h-0.2l0.1-0.5v-0.3c-0.1-0.1-0.3-0.1-0.4-0.2l-0.1,0.1l-0.1-0.1
	h-0.2l-0.1-0.2v-0.1l0.2-0.1l0.2-0.3l0.1-0.3l-0.2-0.2h-0.2c0-0.3,0-0.6,0-0.9l0.1-0.4l0.1-0.3l-0.1-0.2h-0.1v-0.1l-0.2,0.1
	l-0.1-0.1l-0.2,0.2l0,0l0.1-0.3v-0.3l0.2-0.6l0.1-0.1v-0.1v-0.1C0.3,35.7-0.2,57.9,11.1,73.9c6.4,9.1,16,15.6,26.8,18.2l0,0h0.2
	c0.4,0.1,0.8,0.1,1.1,0.1l0.3,0.1h0.3l0.3,0.1c0.3,0,0.6,0,0.8,0.1c0.3,0,0.6,0,0.9,0h0.1h0.2h0.1l-0.1-0.1h0.2l0.3,0.1h0.3l0.2,0.1
	h0.4c0.2,0,0.5-0.1,0.7-0.1v-0.1l0.2-0.1l0.1-0.1l0.1-0.1l0.1-0.1v-0.1l0.3-0.1v-0.1c0.1,0,0.1,0,0.2-0.1h-0.3l0.1-0.1l0.1-0.1l0,0
	h-0.4l0.1-0.1c-0.1,0-0.2,0-0.3,0l0,0l0,0l0.2-0.1c-0.1,0-0.3,0-0.4,0l-0.2-0.1c0.1,0,0.3-0.1,0.4-0.1l0.1-0.1l0.2-0.1l0.1-0.1
	l-0.2-0.1l0.1-0.1H45l0.1,0l-0.2-0.1h-0.4l0,0.1l-0.2,0.1H44l-0.2,0.1c-0.4,0-0.8-0.1-1.3-0.1h-0.2H42h-0.2v-0.1l-0.1-0.1H42
	c-0.2-0.1-0.3-0.2-0.5-0.2l-0.2-0.1H41c-0.1,0-0.3,0-0.4,0.1v0.1l-0.1,0.1l-0.1,0.1h-0.3h-0.2h-0.2l-0.8-0.1H39h0.2l-0.1-0.1
	L39,90.2h0.3l-0.2-0.3l-0.2-0.1c-0.1-0.1-0.3-0.2-0.4-0.2l-0.1-0.1l-0.3-0.1h-0.3l-0.3-0.1l-0.1-0.1h0.3l-0.1-0.1L37.4,89v-0.1v-0.1
	c-0.1-0.1-0.1-0.2-0.2-0.3l-0.1-0.1h0.1h0.1v-0.1h0.2l0.1-0.1v-0.1c0.1,0,0.2-0.1,0.4-0.1l0.1-0.5c0.1-0.1,0.2-0.1,0.3-0.2l0.1-0.1
	L38.4,87v-0.1h0.3v-0.1l-0.1-0.2l0.3,0.1l0.3,0.1l0.3,0.1v-0.2l0.4,0.1h0.2h0.3l0.2-0.1l0.1-0.1l0.2-0.1c0.2,0,0.4,0,0.6,0l-0.1-0.2
	c-0.2-0.1-0.3-0.1-0.5-0.2h-0.2L40.4,86c-0.2-0.1-0.4-0.3-0.7-0.4h0.2l0.2-0.1l0.2-0.1h0.3l0.3,0.1l0.2,0.1h0.3l0.2-0.1l0.2-0.1
	l0.2-0.1h0.3l0.2-0.1l-0.1-0.4l0.3,0.2H43l0.2-0.1l0.3,0.1h0.3h0.3l0.3,0.1l0.1-0.2v-0.2l0.3,0.1l0.3-0.1l0.3,0.1l0.2,0.1l0.3-0.1
	c0.1-0.1,0.2-0.2,0.4-0.3l0.2-0.1c0.2,0,0.4-0.1,0.6-0.2l0.2-0.1l0.1-0.2v-0.2l-0.1-0.2c-0.1-0.2-0.3-0.5-0.4-0.7l-0.1-0.2v-0.2
	l0.1-0.2L47,82v-0.2l-0.1-0.2l-0.1-0.2l0.1-0.2c0.1-0.1,0.2-0.2,0.3-0.4l0.2-0.2l0.2-0.2l0.1-0.2l0.2-0.2l0.2-0.1h0.3l0.2-0.2
	l0.2-0.1l0.3-0.1l0.2-0.1l0.2-0.2l0.3-0.1l0.2,0.1l-0.1,0.2l-0.3,0.2l-0.1,0.1l-0.2-0.1L49,79.7c-0.2,0.1-0.3,0.2-0.5,0.3l-0.4,0.4
	v0.2v0.2l0.2,0.2l-0.2,0.1h-0.3c-0.1,0.1-0.2,0.2-0.3,0.3l-0.2,0.2v0.2l0.1,0.2l0.2,0.2l0.2,0.1l0.2,0.1l0.1,0.2
	c0,0.1,0.1,0.2,0.2,0.4l0.1,0.2l0.1,0.2v0.4l0.1,0.2v0.2l0.1,0.2v0.2l-0.1,0.2L48.5,85l-0.3,0.1l-0.1,0.1L48,85.4l-0.2,0.1l-0.2,0.1
	c-0.1,0.1-0.3,0.1-0.4,0.2L47.1,86h-0.3h-0.3l-0.4,0.1c-0.1,0-0.2,0-0.3,0l0.1,0.2h0.3l0.2,0.1l0.2,0.1l-0.1,0.1h-0.3l-0.1,0.2
	c0.1,0.1,0.1,0.2,0.2,0.3l0.2,0.1l0.1,0.1l0.2,0.1h0.3l0.3,0.1c0.2,0.1,0.3,0.1,0.5,0.2h0.3l0.3,0.1c0.1,0.1,0.3,0.1,0.4,0.2
	l0.1,0.2v0.1l0.1-0.1c0.1-0.1,0.2-0.1,0.4-0.2s0.3-0.1,0.5-0.2h0.3l0.2,0.1l0.2,0.1l0.2-0.1l0.2-0.1h0.3c0.2,0,0.4-0.1,0.5-0.1
	c0.2,0,0.4,0,0.6,0l0.3-0.1l0.1-0.1l0.1-0.1l0.1-0.1h-0.3h-0.3c-0.1,0-0.2,0-0.2,0l0.1-0.1l0.2-0.3l0.1-0.1c0.2,0,0.4-0.1,0.6-0.1
	c0.2-0.1,0.4-0.1,0.6-0.2l0.3-0.1c0.2,0,0.4,0,0.7,0h0.2h0.3c0.4,0,0.8-0.1,1.2-0.2c0.2-0.1,0.4-0.1,0.6-0.1l0.2-0.1v-0.1l0.3-0.1
	l0.3-0.1c0.2,0,0.4,0,0.6,0l0.3-0.1l0.3-0.1l0.3-0.1l0.3-0.1l0.2,0.1l-0.4,0.1l0.2,0.1l0.2-0.1l0.3-0.1l0.1,0.1l-0.2,0.2l0.1,0.1
	h0.3l0.2,0.1l0.1,0.1l-0.2,0.2H61h0.2c0.1,0,0.3,0.1,0.4,0.1h0.3h0.2h0.2l0.3-0.1l-0.1,0.2l0.2,0.1c-0.1,0.1-0.3,0.3-0.4,0.4h0.2
	l0.3-0.1h0.3l0.1,0.1L63,87h0.3l0.1,0.1l0.1,0.1v0.1v0.1v0.1l-0.2,0.1l-0.2,0.1l0.2,0.1l0.1,0.1V88v0.1l0.1,0.1l0.1,0.1h0.2h0.1
	l0.1,0.1h0.2l0.4-0.1h0.2l-0.2,0.2l-0.3,0.1l-0.2,0.1v0.1c-0.2,0.1-0.3,0.2-0.5,0.3l0.1,0.1H64l0.1,0.1h0.2v0.1l0.1,0.1
	c0.1,0,0.2,0.1,0.3,0.1l-0.2,0.1c0.1,0,0.2,0,0.3,0l-0.1,0.1h0.1H65h0.1v0.1V90L65,90.1c-0.1,0.1-0.2,0.1-0.3,0.2l-0.3,0.1l-0.3,0
	c-0.2,0.1-0.4,0.2-0.6,0.2l-0.2,0.1c-0.2,0.1-0.4,0.1-0.5,0.2h-0.1C72.9,87.5,81.5,80.6,87,71.6c-0.1,0-0.1,0.1-0.2,0.1
	c-0.1,0.1-0.3,0.3-0.4,0.4l-0.3,0.4c-0.2,0.2-0.5,0.3-0.7,0.5l-0.2,0.1H85V73l-0.1,0.1v-0.2h-0.1v-0.4l-0.1-0.1v-0.1h-0.3l-0.1-0.1
	l-0.2,0L84,72.1l0.1-0.3v-0.1l0.1-0.4l-0.1,0.1l0.1-0.2l0.3-0.3l0.2-0.5h0.1l0.3-0.5c0.3-0.8,0.7-1.5,1-2.3l0.2-0.6l0.2-0.5
	c0.5-1,0.9-2,1.4-3l0.2-0.4l0.1-0.4c0.2-0.7,0.3-1.4,0.5-2.1l0.1-0.9c0.1-0.3,0.2-0.7,0.3-1l0.3-0.6l0.3-0.5l0.1-0.3l0.3-0.5
	l0.1-0.2l0.3-0.3l0.2-0.2l0.2-0.5l0.1-0.4v-0.3c0-0.3,0.1-0.7,0.1-1v-0.1l0.1-0.2c0.1-0.4,0.1-0.9,0.2-1.3v-0.6l0.1-0.1
	c0-0.3,0-0.6,0.1-0.9l-0.1-1c-0.1-0.9-0.2-1.8-0.3-2.7v-0.2l0.1-0.2c0.1-0.3,0.2-0.6,0.2-0.9v-0.2l0.2-0.7L91.6,44.3z M38.1,4.2
	l-0.7,0.1l-0.2-0.1c-0.4,0.1-0.9,0.3-1.3,0.4V4.5l-0.6,0.1l0.5-0.1l0.3-0.2l0.4-0.2h0.3v0.1l0.3-0.1C37.5,4.1,37.8,4.1,38.1,4.2
	L38.1,4.2l0.4-0.1h0.3L38.1,4.2z M36.6,22.5h-0.5L35,22.7l0.5-0.4l-0.3-0.1h-0.5l-0.2-0.1l-0.1-0.3L34,21.9l-0.7-0.1l-0.2-0.1h-1
	l-0.2-0.1l0.3-0.2l-0.9,0.1l-0.6,0.4L30.4,22l-0.1,0.2l-0.4,0.1h-0.3L30,22l0.2-0.2c0.2-0.1,0.5-0.3,0.7-0.4l0.6-0.1l0.2-0.1
	c0.4,0,0.8-0.1,1.2-0.1l0.7,0.1l0.3,0.2l0.7-0.2c0.4,0.2,0.9,0.4,1.3,0.6h0.3l0.4,0.1l-0.1,0.2h0.6l0.6,0.2l-0.1,0.2l-0.5-0.1
	L36.6,22.5z M41.9,23.1L41.5,23l-0.4,0.1h-0.3l-0.1,0.1l-0.3,0.1l-0.1-0.1h-0.2l-0.3,0.5l-0.2-0.1v-0.2l-0.5-0.1l-0.4,0.1h-0.5
	l-0.4,0.1l-0.4-0.2l0.1-0.2c0.4,0,0.9,0,1.3,0l0.3-0.2l-0.3-0.2v-0.2l-0.5,0l0.2-0.2H39h0.7l0.1-0.1h0.6l0.5,0.1h0.2v0.2h0.4v0.2
	h0.3l0.4,0.2L41.9,23.1z M52.6,8.4h-0.3l-0.4-0.1L52,8l-0.2-0.1l-0.7,0.3h-0.4L51.1,8l-0.6-0.1c-0.6,0-1.2,0-1.9,0l-0.1-0.1l0.4-0.1
	l-0.3-0.1l0.5-0.2l0.6-0.5L50,6.7l0.5-0.1h0.3l-0.1,0.1c-0.2,0.2-0.4,0.3-0.6,0.5l0.4-0.1l0.4,0.1l-0.2,0.1l0.5,0.1l0.3-0.1l0.6,0.1
	v0.3h0.4l0.1,0.2l0.2,0.2L52.6,8.4z M46.6,74.8h-0.4L46,74.6l-0.1,0.3l-0.3,0.2h-0.5l-0.3-0.2l-0.5-0.1c-0.4-0.2-0.8-0.4-1.1-0.6
	l-0.8-0.6l0.4,0.1l0.7,0.3l0.6,0.2l0.2-0.3l0.1-0.4l0.4-0.3h0.3l0.2,0.3l0.3,0.4l0.6,0.3l0.6,0.1L46.6,74.8z"/>
</svg>
